Ubuntu-Light.ufo
<glyph name="exclam" format="2">
  <advance width="274"/>
  <unicode hex="0021"/>
  <outline>
    <contour>
      <point x="172" y="693" type="line"/>
      <point x="102" y="693" type="line"/>
      <point x="102" y="500" type="line" smooth="yes"/>
      <point x="102" y="386"/>
      <point x="110" y="302"/>
      <point x="122" y="213" type="curve"/>
      <point x="152" y="213" type="line"/>
      <point x="163" y="302"/>
      <point x="172" y="386"/>
      <point x="172" y="500" type="curve" smooth="yes"/>
    </contour>
    <contour>
      <point x="192" y="43" type="curve" smooth="yes"/>
      <point x="192" y="73"/>
      <point x="171" y="98"/>
      <point x="137" y="98" type="curve" smooth="yes"/>
      <point x="103" y="98"/>
      <point x="82" y="73"/>
      <point x="82" y="43" type="curve" smooth="yes"/>
      <point x="82" y="13"/>
      <point x="103" y="-12"/>
      <point x="137" y="-12" type="curve" smooth="yes"/>
      <point x="171" y="-12"/>
      <point x="192" y="13"/>
    </contour>
  </outline>
</glyph>
<glyph name="quotesingle" format="2">
  <advance width="240"/>
  <unicode hex="0027"/>
  <outline>
    <contour>
      <point x="84" y="760" type="line"/>
      <point x="84" y="723" type="line"/>
      <point x="84" y="655"/>
      <point x="92" y="586"/>
      <point x="103" y="518" type="curve"/>
      <point x="136" y="518" type="line"/>
      <point x="148" y="586"/>
      <point x="156" y="656"/>
      <point x="156" y="722" type="curve"/>
      <point x="156" y="760" type="line"/>
    </contour>
  </outline>
</glyph>
<glyph name="parenright" format="2">
  <advance width="310"/>
  <unicode hex="0029"/>
  <outline>
    <contour>
      <point x="56" y="-185" type="line"/>
      <point x="157" y="-59"/>
      <point x="227" y="107"/>
      <point x="227" y="299" type="curve" smooth="yes"/>
      <point x="227" y="491"/>
      <point x="157" y="657"/>
      <point x="56" y="783" type="curve"/>
      <point x="9" y="751" type="line"/>
      <point x="114" y="621"/>
      <point x="161" y="478"/>
      <point x="161" y="299" type="curve"/>
      <point x="161" y="120"/>
      <point x="114" y="-23"/>
      <point x="9" y="-153" type="curve"/>
    </contour>
  </outline>
</glyph>
<glyph name="asterisk" format="2">
	<unicode hex="002A"/>
	<advance width="472"/>
	<outline>
		<contour>
			<point x="260" y="488" type="qcurve"/>
			<point x="294" y="454"/>
			<point x="349" y="398"/>
			<point x="379" y="358" type="qcurve"/>
			<point x="323" y="317" type="line"/>
			<point x="309" y="337"/>
			<point x="286" y="374"/>
			<point x="266" y="411"/>
			<point x="247" y="450"/>
			<point x="236" y="471" type="qcurve"/>
			<point x="225" y="450"/>
			<point x="206" y="411"/>
			<point x="186" y="374"/>
			<point x="163" y="337"/>
			<point x="149" y="317" type="qcurve"/>
			<point x="93" y="358" type="line"/>
			<point x="108" y="378"/>
			<point x="136" y="411"/>
			<point x="164" y="441"/>
			<point x="195" y="471"/>
			<point x="212" y="488" type="qcurve"/>
			<point x="165" y="495"/>
			<point x="86" y="509"/>
			<point x="39" y="524" type="qcurve"/>
			<point x="60" y="589" type="line"/>
			<point x="84" y="581"/>
			<point x="124" y="565"/>
			<point x="162" y="547"/>
			<point x="200" y="528"/>
			<point x="221" y="518" type="qcurve"/>
			<point x="217" y="542"/>
			<point x="210" y="584"/>
			<point x="205" y="625"/>
			<point x="202" y="668"/>
			<point x="202" y="693" type="qcurve"/>
			<point x="270" y="693" type="line"/>
			<point x="270" y="668"/>
			<point x="267" y="625"/>
			<point x="262" y="584"/>
			<point x="255" y="542"/>
			<point x="251" y="518" type="qcurve"/>
			<point x="272" y="528"/>
			<point x="310" y="547"/>
			<point x="348" y="565"/>
			<point x="388" y="581"/>
			<point x="412" y="589" type="qcurve"/>
			<point x="433" y="524" type="line"/>
			<point x="386" y="509"/>
			<point x="307" y="495"/>
		</contour>
	</outline>
	<guideline y="627"/>
</glyph>
<glyph name="plus" format="2">
  <advance width="564"/>
  <unicode hex="002B"/>
  <outline>
    <contour>
      <point x="253" y="43" type="line"/>
      <point x="311" y="43" type="line"/>
      <point x="311" y="261" type="line"/>
      <point x="508" y="261" type="line"/>
      <point x="508" y="317" type="line"/>
      <point x="311" y="317" type="line"/>
      <point x="311" y="534" type="line"/>
      <point x="253" y="534" type="line"/>
      <point x="253" y="317" type="line"/>
      <point x="56" y="317" type="line"/>
      <point x="56" y="261" type="line"/>
      <point x="253" y="261" type="line"/>
    </contour>
  </outline>
</glyph>
<glyph name="period" format="2">
  <advance width="246"/>
  <unicode hex="002E"/>
  <outline>
    <contour>
      <point x="123" y="-12" type="curve" smooth="yes"/>
      <point x="157" y="-12"/>
      <point x="178" y="13"/>
      <point x="178" y="43" type="curve" smooth="yes"/>
      <point x="178" y="73"/>
      <point x="157" y="98"/>
      <point x="123" y="98" type="curve" smooth="yes"/>
      <point x="89" y="98"/>
      <point x="68" y="73"/>
      <point x="68" y="43" type="curve" smooth="yes"/>
      <point x="68" y="13"/>
      <point x="89" y="-12"/>
    </contour>
  </outline>
</glyph>
<glyph name="zero" format="2">
  <advance width="564"/>
  <unicode hex="0030"/>
  <outline>
    <contour>
      <point x="282" y="-15" type="curve" smooth="yes"/>
      <point x="422" y="-15"/>
      <point x="505" y="114"/>
      <point x="505" y="346" type="curve" smooth="yes"/>
      <point x="505" y="579"/>
      <point x="422" y="708"/>
      <point x="282" y="708" type="curve" smooth="yes"/>
      <point x="140" y="708"/>
      <point x="59" y="579"/>
      <point x="59" y="346" type="curve" smooth="yes"/>
      <point x="59" y="114"/>
      <point x="142" y="-15"/>
    </contour>
    <contour>
      <point x="282" y="44" type="curve" smooth="yes"/>
      <point x="166" y="44"/>
      <point x="130" y="187"/>
      <point x="130" y="346" type="curve" smooth="yes"/>
      <point x="130" y="505"/>
      <point x="166" y="649"/>
      <point x="282" y="649" type="curve" smooth="yes"/>
      <point x="397" y="649"/>
      <point x="434" y="505"/>
      <point x="434" y="346" type="curve" smooth="yes"/>
      <point x="434" y="187"/>
      <point x="397" y="44"/>
    </contour>
  </outline>
</glyph>
<glyph name="one" format="2">
  <advance width="564"/>
  <unicode hex="0031"/>
  <outline>
    <contour>
      <point x="288" y="0" type="line"/>
      <point x="353" y="0" type="line"/>
      <point x="353" y="693" type="line"/>
      <point x="307" y="693" type="line"/>
      <point x="246" y="619"/>
      <point x="187" y="579"/>
      <point x="107" y="551" type="curve"/>
      <point x="126" y="501" type="line"/>
      <point x="189" y="521"/>
      <point x="260" y="563"/>
      <point x="288" y="594" type="curve"/>
    </contour>
  </outline>
</glyph>
<glyph name="two" format="2">
  <advance width="564"/>
  <unicode hex="0032"/>
  <outline>
    <contour>
      <point x="81" y="0" type="curve"/>
      <point x="480" y="0" type="line"/>
      <point x="480" y="57" type="line"/>
      <point x="153" y="57" type="line"/>
      <point x="153" y="122"/>
      <point x="221" y="192"/>
      <point x="290" y="259" type="curve" smooth="yes"/>
      <point x="374" y="340"/>
      <point x="456" y="416"/>
      <point x="456" y="521" type="curve" smooth="yes"/>
      <point x="456" y="638"/>
      <point x="387" y="708"/>
      <point x="253" y="708" type="curve" smooth="yes"/>
      <point x="153" y="708"/>
      <point x="86" y="649"/>
      <point x="69" y="629" type="curve"/>
      <point x="103" y="584" type="line"/>
      <point x="120" y="601"/>
      <point x="170" y="649"/>
      <point x="254" y="649" type="curve"/>
      <point x="330" y="649"/>
      <point x="386" y="611"/>
      <point x="386" y="518" type="curve" smooth="yes"/>
      <point x="386" y="432"/>
      <point x="329" y="378"/>
      <point x="262" y="315" type="curve" smooth="yes"/>
      <point x="181" y="239"/>
      <point x="80" y="149"/>
      <point x="80" y="24" type="curve" smooth="yes"/>
      <point x="80" y="9"/>
      <point x="81" y="3"/>
    </contour>
  </outline>
</glyph>
<glyph name="seven" format="2">
	<unicode hex="0037"/>
	<advance width="564"/>
	<outline>
		<contour>
			<point x="175" y="0" type="line"/>
			<point x="181" y="83"/>
			<point x="230" y="269"/>
			<point x="301" y="443"/>
			<point x="384" y="589"/>
			<point x="423" y="633" type="qcurve"/>
			<point x="69" y="633" type="line"/>
			<point x="69" y="693" type="line"/>
			<point x="490" y="693" type="line"/>
			<point x="490" y="635" type="line"/>
			<point x="456" y="594"/>
			<point x="375" y="457"/>
			<point x="303" y="286"/>
			<point x="250" y="94"/>
			<point x="244" y="0" type="qcurve"/>
		</contour>
	</outline>
</glyph>
<glyph name="eight" format="2">
  <advance width="564"/>
  <unicode hex="0038"/>
  <outline>
    <contour>
      <point x="282" y="-15" type="curve" smooth="yes"/>
      <point x="413" y="-15"/>
      <point x="498" y="65"/>
      <point x="498" y="180" type="curve" smooth="yes"/>
      <point x="498" y="247"/>
      <point x="465" y="310"/>
      <point x="371" y="350" type="curve"/>
      <point x="423" y="381"/>
      <point x="482" y="441"/>
      <point x="482" y="529" type="curve" smooth="yes"/>
      <point x="482" y="619"/>
      <point x="421" y="708"/>
      <point x="282" y="708" type="curve" smooth="yes"/>
      <point x="164" y="708"/>
      <point x="81" y="634"/>
      <point x="81" y="519" type="curve" smooth="yes"/>
      <point x="81" y="455"/>
      <point x="105" y="399"/>
      <point x="186" y="359" type="curve"/>
      <point x="123" y="324"/>
      <point x="66" y="267"/>
      <point x="66" y="174" type="curve" smooth="yes"/>
      <point x="66" y="65"/>
      <point x="152" y="-15"/>
    </contour>
    <contour>
      <point x="429" y="174" type="curve" smooth="yes"/>
      <point x="429" y="100"/>
      <point x="381" y="41"/>
      <point x="282" y="41" type="curve" smooth="yes"/>
      <point x="183" y="41"/>
      <point x="135" y="100"/>
      <point x="135" y="174" type="curve" smooth="yes"/>
      <point x="135" y="250"/>
      <point x="174" y="304"/>
      <point x="242" y="336" type="curve"/>
      <point x="333" y="308"/>
      <point x="429" y="289"/>
    </contour>
    <contour>
      <point x="149" y="526" type="curve" smooth="yes"/>
      <point x="149" y="594"/>
      <point x="193" y="652"/>
      <point x="282" y="652" type="curve" smooth="yes"/>
      <point x="377" y="652"/>
      <point x="414" y="591"/>
      <point x="414" y="529" type="curve" smooth="yes"/>
      <point x="414" y="453"/>
      <point x="375" y="404"/>
      <point x="314" y="370" type="curve"/>
      <point x="176" y="407"/>
      <point x="149" y="451"/>
    </contour>
  </outline>
</glyph>
<glyph name="nine" format="2">
  <advance width="564"/>
  <unicode hex="0039"/>
  <outline>
    <contour>
      <point x="490" y="418" type="curve" smooth="yes"/>
      <point x="490" y="600"/>
      <point x="413" y="708"/>
      <point x="268" y="708" type="curve" smooth="yes"/>
      <point x="127" y="708"/>
      <point x="63" y="591"/>
      <point x="63" y="489" type="curve" smooth="yes"/>
      <point x="63" y="379"/>
      <point x="118" y="279"/>
      <point x="267" y="279" type="curve" smooth="yes"/>
      <point x="324" y="279"/>
      <point x="377" y="296"/>
      <point x="413" y="314" type="curve"/>
      <point x="390" y="128"/>
      <point x="273" y="52"/>
      <point x="96" y="52" type="curve"/>
      <point x="98" y="-2" type="line"/>
      <point x="352" y="-2"/>
      <point x="490" y="141"/>
    </contour>
    <contour>
      <point x="273" y="336" type="curve" smooth="yes"/>
      <point x="182" y="336"/>
      <point x="133" y="386"/>
      <point x="133" y="491" type="curve" smooth="yes"/>
      <point x="133" y="574"/>
      <point x="170" y="651"/>
      <point x="269" y="651" type="curve" smooth="yes"/>
      <point x="389" y="651"/>
      <point x="420" y="544"/>
      <point x="420" y="419" type="curve" smooth="yes"/>
      <point x="420" y="401"/>
      <point x="419" y="387"/>
      <point x="418" y="371" type="curve"/>
      <point x="378" y="352"/>
      <point x="334" y="336"/>
    </contour>
  </outline>
</glyph>
<glyph name="equal" format="2">
  <advance width="564"/>
  <unicode hex="003D"/>
  <outline>
    <contour>
      <point x="56" y="156" type="line"/>
      <point x="508" y="156" type="line"/>
      <point x="508" y="212" type="line"/>
      <point x="56" y="212" type="line"/>
    </contour>
    <contour>
      <point x="56" y="366" type="line"/>
      <point x="508" y="366" type="line"/>
      <point x="508" y="422" type="line"/>
      <point x="56" y="422" type="line"/>
    </contour>
  </outline>
</glyph>
<glyph name="greater" format="2">
  <advance width="564"/>
  <unicode hex="003E"/>
  <outline>
    <contour>
      <point x="55" y="446" type="line"/>
      <point x="75" y="501" type="line"/>
      <point x="508" y="317" type="line"/>
      <point x="508" y="259" type="line"/>
      <point x="75" y="75" type="line"/>
      <point x="55" y="130" type="line"/>
      <point x="432" y="288" type="line"/>
    </contour>
  </outline>
</glyph>
<glyph name="question" format="2">
	<unicode hex="003F"/>
	<advance width="380"/>
	<outline>
		<contour>
			<point x="161" y="650" type="qcurve"/>
			<point x="94" y="650"/>
			<point x="39" y="620" type="qcurve"/>
			<point x="20" y="674" type="line"/>
			<point x="41" y="686"/>
			<point x="120" y="708"/>
			<point x="168" y="708" type="qcurve"/>
			<point x="221" y="708"/>
			<point x="292" y="681"/>
			<point x="334" y="638"/>
			<point x="352" y="584"/>
			<point x="352" y="558" type="qcurve"/>
			<point x="352" y="522"/>
			<point x="326" y="466"/>
			<point x="286" y="418"/>
			<point x="241" y="374"/>
			<point x="201" y="327"/>
			<point x="175" y="273"/>
			<point x="175" y="240" type="qcurve"/>
			<point x="175" y="229"/>
			<point x="175" y="218"/>
			<point x="176" y="213" type="qcurve"/>
			<point x="124" y="213" type="line"/>
			<point x="122" y="223"/>
			<point x="120" y="246"/>
			<point x="120" y="258" type="qcurve"/>
			<point x="120" y="292"/>
			<point x="144" y="345"/>
			<point x="180" y="391"/>
			<point x="222" y="432"/>
			<point x="258" y="475"/>
			<point x="282" y="524"/>
			<point x="282" y="555" type="qcurve"/>
			<point x="282" y="583"/>
			<point x="262" y="620"/>
			<point x="229" y="642"/>
			<point x="185" y="650"/>
		</contour>
		<contour>
			<point x="210" y="43" type="qcurve"/>
			<point x="210" y="20"/>
			<point x="181" y="-12"/>
			<point x="155" y="-12" type="qcurve"/>
			<point x="129" y="-12"/>
			<point x="100" y="20"/>
			<point x="100" y="43" type="qcurve"/>
			<point x="100" y="66"/>
			<point x="129" y="98"/>
			<point x="155" y="98" type="qcurve"/>
			<point x="181" y="98"/>
			<point x="210" y="66"/>
		</contour>
	</outline>
</glyph>
<glyph name="B" format="2">
  <advance width="630"/>
  <unicode hex="0042"/>
  <anchor x="315" y="0" name="bottom"/>
  <anchor x="315" y="347" name="center"/>
  <anchor x="315" y="693" name="top"/>
  <outline>
    <contour>
      <point x="256" y="-6" type="curve" smooth="yes"/>
      <point x="473" y="-6"/>
      <point x="575" y="64"/>
      <point x="575" y="195" type="curve" smooth="yes"/>
      <point x="575" y="304"/>
      <point x="515" y="350"/>
      <point x="436" y="369" type="curve"/>
      <point x="499" y="389"/>
      <point x="541" y="445"/>
      <point x="541" y="519" type="curve" smooth="yes"/>
      <point x="541" y="655"/>
      <point x="413" y="699"/>
      <point x="263" y="699" type="curve" smooth="yes"/>
      <point x="213" y="699"/>
      <point x="138" y="693"/>
      <point x="90" y="680" type="curve"/>
      <point x="90" y="13" type="line"/>
      <point x="129" y="2"/>
      <point x="210" y="-6"/>
    </contour>
    <contour>
      <point x="264" y="52" type="curve" smooth="yes"/>
      <point x="223" y="52"/>
      <point x="178" y="56"/>
      <point x="158" y="59" type="curve"/>
      <point x="158" y="332" type="line"/>
      <point x="302" y="332" type="line" smooth="yes"/>
      <point x="426" y="332"/>
      <point x="503" y="303"/>
      <point x="503" y="196" type="curve" smooth="yes"/>
      <point x="503" y="79"/>
      <point x="388" y="52"/>
    </contour>
    <contour>
      <point x="158" y="390" type="line"/>
      <point x="158" y="634" type="line"/>
      <point x="180" y="638"/>
      <point x="214" y="641"/>
      <point x="263" y="641" type="curve" smooth="yes"/>
      <point x="385" y="641"/>
      <point x="470" y="608"/>
      <point x="470" y="517" type="curve" smooth="yes"/>
      <point x="470" y="416"/>
      <point x="390" y="390"/>
      <point x="290" y="390" type="curve" smooth="yes"/>
    </contour>
  </outline>
</glyph>
<glyph name="D" format="2">
	<unicode hex="0044"/>
	<advance width="702"/>
	<outline>
		<contour>
			<point x="640" y="347" type="qcurve"/>
			<point x="640" y="258"/>
			<point x="584" y="126"/>
			<point x="483" y="38"/>
			<point x="343" y="-6"/>
			<point x="259" y="-6" type="qcurve"/>
			<point x="217" y="-6"/>
			<point x="125" y="3"/>
			<point x="90" y="12" type="qcurve"/>
			<point x="90" y="680" type="line"/>
			<point x="125" y="690"/>
			<point x="217" y="699"/>
			<point x="259" y="699" type="qcurve"/>
			<point x="343" y="699"/>
			<point x="483" y="655"/>
			<point x="584" y="567"/>
			<point x="640" y="435"/>
		</contour>
		<contour>
			<point x="158" y="60" type="line"/>
			<point x="164" y="59"/>
			<point x="213" y="53"/>
			<point x="267" y="53" type="qcurve"/>
			<point x="342" y="53"/>
			<point x="454" y="94"/>
			<point x="530" y="170"/>
			<point x="568" y="279"/>
			<point x="568" y="347" type="qcurve"/>
			<point x="568" y="415"/>
			<point x="530" y="523"/>
			<point x="454" y="599"/>
			<point x="342" y="640"/>
			<point x="267" y="640" type="qcurve"/>
			<point x="213" y="640"/>
			<point x="164" y="634"/>
			<point x="158" y="633" type="qcurve"/>
		</contour>
	</outline>
</glyph>
<glyph name="F" format="2">
	<unicode hex="0046"/>
	<advance width="520"/>
	<outline>
		<contour>
			<point x="90" y="0" type="line"/>
			<point x="90" y="693" type="line"/>
			<point x="485" y="693" type="line"/>
			<point x="485" y="634" type="line"/>
			<point x="158" y="634" type="line"/>
			<point x="158" y="390" type="line"/>
			<point x="448" y="390" type="line"/>
			<point x="448" y="331" type="line"/>
			<point x="158" y="331" type="line"/>
			<point x="158" y="0" type="line"/>
		</contour>
	</outline>
</glyph>
<glyph name="G" format="2">
	<unicode hex="0047"/>
	<advance width="658"/>
	<outline>
		<contour>
			<point x="522" y="328" type="line"/>
			<point x="590" y="328" type="line"/>
			<point x="590" y="19" type="line"/>
			<point x="571" y="11"/>
			<point x="460" y="-14"/>
			<point x="379" y="-14" type="qcurve"/>
			<point x="311" y="-14"/>
			<point x="195" y="34"/>
			<point x="110" y="125"/>
			<point x="62" y="260"/>
			<point x="62" y="347" type="qcurve"/>
			<point x="62" y="434"/>
			<point x="114" y="569"/>
			<point x="203" y="660"/>
			<point x="321" y="708"/>
			<point x="388" y="708" type="qcurve"/>
			<point x="465" y="708"/>
			<point x="565" y="675"/>
			<point x="588" y="660" type="qcurve"/>
			<point x="565" y="602" type="line"/>
			<point x="537" y="622"/>
			<point x="441" y="647"/>
			<point x="385" y="647" type="qcurve"/>
			<point x="333" y="647"/>
			<point x="241" y="609"/>
			<point x="173" y="533"/>
			<point x="134" y="421"/>
			<point x="134" y="347" type="qcurve"/>
			<point x="134" y="278"/>
			<point x="166" y="167"/>
			<point x="231" y="88"/>
			<point x="327" y="46"/>
			<point x="390" y="46" type="qcurve"/>
			<point x="441" y="46"/>
			<point x="510" y="57"/>
			<point x="522" y="62" type="qcurve"/>
		</contour>
	</outline>
</glyph>
<glyph name="H" format="2">
  <advance width="692"/>
  <unicode hex="0048"/>
  <anchor x="346" y="0" name="bottom"/>
  <anchor x="346" y="347" name="center"/>
  <anchor x="346" y="693" name="top"/>
  <anchor x="20" y="693" name="topleft"/>
  <outline>
    <contour>
      <point x="90" y="0" type="line"/>
      <point x="158" y="0" type="line"/>
      <point x="158" y="333" type="line"/>
      <point x="534" y="333" type="line"/>
      <point x="534" y="0" type="line"/>
      <point x="602" y="0" type="line"/>
      <point x="602" y="693" type="line"/>
      <point x="534" y="693" type="line"/>
      <point x="534" y="392" type="line"/>
      <point x="158" y="392" type="line"/>
      <point x="158" y="693" type="line"/>
      <point x="90" y="693" type="line"/>
    </contour>
  </outline>
</glyph>
<glyph name="I" format="2">
  <advance width="248"/>
  <unicode hex="0049"/>
  <anchor x="124" y="0" name="bottom"/>
  <anchor x="223" y="10" name="ogonek"/>
  <anchor x="124" y="693" name="top"/>
  <anchor x="20" y="693" name="topleft"/>
  <outline>
    <contour>
      <point x="90" y="0" type="line"/>
      <point x="158" y="0" type="line"/>
      <point x="158" y="693" type="line"/>
      <point x="90" y="693" type="line"/>
    </contour>
  </outline>
</glyph>
<glyph name="K" format="2">
  <advance width="599"/>
  <unicode hex="004B"/>
  <outline>
    <contour>
      <point x="589" y="0" type="line"/>
      <point x="531" y="111"/>
      <point x="353" y="296"/>
      <point x="236" y="367" type="curve"/>
      <point x="333" y="455"/>
      <point x="490" y="611"/>
      <point x="566" y="693" type="curve"/>
      <point x="484" y="693" type="line"/>
      <point x="419" y="619"/>
      <point x="259" y="462"/>
      <point x="158" y="370" type="curve"/>
      <point x="158" y="693" type="line"/>
      <point x="90" y="693" type="line"/>
      <point x="90" y="0" type="line"/>
      <point x="158" y="0" type="line"/>
      <point x="158" y="343" type="line"/>
      <point x="278" y="277"/>
      <point x="423" y="139"/>
      <point x="513" y="0" type="curve"/>
    </contour>
  </outline>
</glyph>
<glyph name="L" format="2">
  <advance width="502"/>
  <unicode hex="004C"/>
  <outline>
    <contour>
      <point x="158" y="59" type="line"/>
      <point x="158" y="693" type="line"/>
      <point x="90" y="693" type="line"/>
      <point x="90" y="0" type="line"/>
      <point x="484" y="0" type="line"/>
      <point x="484" y="59" type="line"/>
    </contour>
  </outline>
</glyph>
<glyph name="N" format="2">
  <advance width="709"/>
  <unicode hex="004E"/>
  <outline>
    <contour>
      <point x="619" y="0" type="line"/>
      <point x="619" y="693" type="line"/>
      <point x="552" y="693" type="line"/>
      <point x="552" y="129" type="line"/>
      <point x="469" y="277"/>
      <point x="281" y="541"/>
      <point x="144" y="693" type="curve"/>
      <point x="90" y="693" type="line"/>
      <point x="90" y="0" type="line"/>
      <point x="157" y="0" type="line"/>
      <point x="157" y="584" type="line"/>
      <point x="275" y="447"/>
      <point x="485" y="139"/>
      <point x="562" y="0" type="curve"/>
    </contour>
  </outline>
</glyph>
<glyph name="O" format="2">
  <advance width="774"/>
  <unicode hex="004F"/>
  <outline>
    <contour>
      <point x="712" y="347" type="curve"/>
      <point x="712" y="585"/>
      <point x="562" y="708"/>
      <point x="387" y="708" type="curve"/>
      <point x="212" y="708"/>
      <point x="62" y="585"/>
      <point x="62" y="347" type="curve" smooth="yes"/>
      <point x="62" y="109"/>
      <point x="212" y="-15"/>
      <point x="387" y="-15" type="curve" smooth="yes"/>
      <point x="562" y="-15"/>
      <point x="712" y="109"/>
    </contour>
    <contour>
      <point x="640" y="347" type="curve"/>
      <point x="640" y="161"/>
      <point x="541" y="46"/>
      <point x="387" y="46" type="curve" smooth="yes"/>
      <point x="233" y="46"/>
      <point x="134" y="161"/>
      <point x="134" y="347" type="curve"/>
      <point x="134" y="533"/>
      <point x="233" y="647"/>
      <point x="387" y="647" type="curve" smooth="yes"/>
      <point x="541" y="647"/>
      <point x="640" y="533"/>
    </contour>
  </outline>
</glyph>
<glyph name="P" format="2">
  <advance width="592"/>
  <unicode hex="0050"/>
  <outline>
    <contour>
      <point x="265" y="699" type="curve" smooth="yes"/>
      <point x="209" y="699"/>
      <point x="138" y="693"/>
      <point x="90" y="680" type="curve"/>
      <point x="90" y="0" type="line"/>
      <point x="158" y="0" type="line"/>
      <point x="158" y="268" type="line"/>
      <point x="252" y="268" type="line" smooth="yes"/>
      <point x="441" y="268"/>
      <point x="556" y="326"/>
      <point x="556" y="484" type="curve" smooth="yes"/>
      <point x="556" y="620"/>
      <point x="460" y="699"/>
    </contour>
    <contour>
      <point x="268" y="640" type="curve" smooth="yes"/>
      <point x="378" y="640"/>
      <point x="485" y="607"/>
      <point x="485" y="485" type="curve" smooth="yes"/>
      <point x="485" y="356"/>
      <point x="390" y="327"/>
      <point x="244" y="327" type="curve" smooth="yes"/>
      <point x="158" y="327" type="line"/>
      <point x="158" y="633" type="line"/>
      <point x="183" y="636"/>
      <point x="218" y="640"/>
    </contour>
  </outline>
</glyph>
<glyph name="Q" format="2">
  <advance width="774"/>
  <unicode hex="0051"/>
  <outline>
    <contour>
      <point x="712" y="347" type="curve" smooth="yes"/>
      <point x="712" y="585"/>
      <point x="562" y="708"/>
      <point x="387" y="708" type="curve" smooth="yes"/>
      <point x="212" y="708"/>
      <point x="62" y="585"/>
      <point x="62" y="347" type="curve" smooth="yes"/>
      <point x="62" y="114"/>
      <point x="205" y="-9"/>
      <point x="375" y="-15" type="curve"/>
      <point x="398" y="-135"/>
      <point x="546" y="-167"/>
      <point x="647" y="-185" type="curve"/>
      <point x="661" y="-128" type="line"/>
      <point x="567" y="-115"/>
      <point x="456" y="-84"/>
      <point x="444" y="-10" type="curve"/>
      <point x="593" y="14"/>
      <point x="712" y="135"/>
    </contour>
    <contour>
      <point x="640" y="347" type="curve" smooth="yes"/>
      <point x="640" y="161"/>
      <point x="541" y="46"/>
      <point x="387" y="46" type="curve" smooth="yes"/>
      <point x="233" y="46"/>
      <point x="134" y="161"/>
      <point x="134" y="347" type="curve" smooth="yes"/>
      <point x="134" y="533"/>
      <point x="233" y="647"/>
      <point x="387" y="647" type="curve" smooth="yes"/>
      <point x="541" y="647"/>
      <point x="640" y="533"/>
    </contour>
  </outline>
</glyph>
<glyph name="R" format="2">
	<unicode hex="0052"/>
	<advance width="618"/>
	<outline>
		<contour>
			<point x="552" y="485" type="qcurve"/>
			<point x="552" y="407"/>
			<point x="470" y="317"/>
			<point x="403" y="297" type="qcurve"/>
			<point x="419" y="277"/>
			<point x="470" y="209"/>
			<point x="524" y="128"/>
			<point x="576" y="40"/>
			<point x="594" y="0" type="qcurve"/>
			<point x="521" y="0" type="line"/>
			<point x="500" y="40"/>
			<point x="451" y="120"/>
			<point x="400" y="195"/>
			<point x="352" y="259"/>
			<point x="334" y="283" type="qcurve"/>
			<point x="302" y="280"/>
			<point x="270" y="280" type="qcurve"/>
			<point x="158" y="280" type="line"/>
			<point x="158" y="0" type="line"/>
			<point x="90" y="0" type="line"/>
			<point x="90" y="680" type="line"/>
			<point x="126" y="690"/>
			<point x="223" y="699"/>
			<point x="264" y="699" type="qcurve"/>
			<point x="407" y="699"/>
			<point x="552" y="591"/>
		</contour>
		<contour>
			<point x="272" y="640" type="qcurve"/>
			<point x="234" y="640"/>
			<point x="177" y="635"/>
			<point x="158" y="633" type="qcurve"/>
			<point x="158" y="338" type="line"/>
			<point x="252" y="338" type="line"/>
			<point x="299" y="338"/>
			<point x="383" y="347"/>
			<point x="445" y="378"/>
			<point x="481" y="436"/>
			<point x="481" y="486" type="qcurve"/>
			<point x="481" y="532"/>
			<point x="445" y="592"/>
			<point x="387" y="627"/>
			<point x="312" y="640"/>
		</contour>
	</outline>
</glyph>
<glyph name="S" format="2">
	<unicode hex="0053"/>
	<advance width="517"/>
	<outline>
		<contour>
			<point x="239" y="44" type="qcurve"/>
			<point x="320" y="44"/>
			<point x="410" y="103"/>
			<point x="410" y="169" type="qcurve"/>
			<point x="410" y="207"/>
			<point x="381" y="258"/>
			<point x="333" y="293"/>
			<point x="271" y="318"/>
			<point x="237" y="332" type="qcurve"/>
			<point x="194" y="349"/>
			<point x="126" y="385"/>
			<point x="78" y="430"/>
			<point x="53" y="488"/>
			<point x="53" y="527" type="qcurve"/>
			<point x="53" y="616"/>
			<point x="171" y="708"/>
			<point x="276" y="708" type="qcurve"/>
			<point x="304" y="708"/>
			<point x="358" y="700"/>
			<point x="405" y="687"/>
			<point x="444" y="671"/>
			<point x="457" y="662" type="qcurve"/>
			<point x="433" y="605" type="line"/>
			<point x="404" y="625"/>
			<point x="321" y="649"/>
			<point x="273" y="649" type="qcurve"/>
			<point x="240" y="649"/>
			<point x="185" y="636"/>
			<point x="145" y="607"/>
			<point x="122" y="563"/>
			<point x="122" y="532" type="qcurve"/>
			<point x="122" y="500"/>
			<point x="146" y="456"/>
			<point x="189" y="424"/>
			<point x="247" y="398"/>
			<point x="281" y="384" type="qcurve"/>
			<point x="322" y="367"/>
			<point x="395" y="333"/>
			<point x="449" y="287"/>
			<point x="481" y="221"/>
			<point x="481" y="173" type="qcurve"/>
			<point x="481" y="79"/>
			<point x="350" y="-15"/>
			<point x="238" y="-15" type="qcurve"/>
			<point x="198" y="-15"/>
			<point x="132" y="-5"/>
			<point x="80" y="10"/>
			<point x="44" y="26"/>
			<point x="34" y="32" type="qcurve"/>
			<point x="56" y="91" type="line"/>
			<point x="66" y="85"/>
			<point x="100" y="69"/>
			<point x="146" y="54"/>
			<point x="204" y="44"/>
		</contour>
	</outline>
</glyph>
<glyph name="U" format="2">
  <advance width="680"/>
  <unicode hex="0055"/>
  <anchor x="340" y="0" name="bottom"/>
  <anchor x="612" y="10" name="ogonek"/>
  <anchor x="340" y="693" name="top"/>
  <anchor x="660" y="693" name="topright"/>
  <outline>
    <contour>
      <point x="340" y="-15" type="curve" smooth="yes"/>
      <point x="525" y="-15"/>
      <point x="593" y="105"/>
      <point x="593" y="257" type="curve" smooth="yes"/>
      <point x="593" y="693" type="line"/>
      <point x="525" y="693" type="line"/>
      <point x="525" y="266" type="line" smooth="yes"/>
      <point x="525" y="114"/>
      <point x="451" y="46"/>
      <point x="340" y="46" type="curve" smooth="yes"/>
      <point x="229" y="46"/>
      <point x="155" y="114"/>
      <point x="155" y="266" type="curve" smooth="yes"/>
      <point x="155" y="693" type="line"/>
      <point x="87" y="693" type="line"/>
      <point x="87" y="257" type="line" smooth="yes"/>
      <point x="87" y="105"/>
      <point x="155" y="-15"/>
    </contour>
  </outline>
</glyph>
<glyph name="V" format="2">
  <advance width="624"/>
  <unicode hex="0056"/>
  <outline>
    <contour>
      <point x="10" y="693" type="line"/>
      <point x="133" y="343"/>
      <point x="199" y="184"/>
      <point x="281" y="0" type="curve"/>
      <point x="344" y="0" type="line"/>
      <point x="426" y="184"/>
      <point x="492" y="343"/>
      <point x="614" y="693" type="curve"/>
      <point x="542" y="693" type="line"/>
      <point x="462" y="456"/>
      <point x="397" y="272"/>
      <point x="314" y="80" type="curve"/>
      <point x="230" y="275"/>
      <point x="167" y="456"/>
      <point x="86" y="693" type="curve"/>
    </contour>
  </outline>
</glyph>
<glyph name="W" format="2">
	<unicode hex="0057"/>
	<advance width="921"/>
	<outline>
		<contour>
			<point x="491" y="608" type="line"/>
			<point x="539" y="447"/>
			<point x="636" y="186"/>
			<point x="682" y="77" type="qcurve"/>
			<point x="717" y="195"/>
			<point x="786" y="515"/>
			<point x="818" y="693" type="qcurve"/>
			<point x="885" y="693" type="line"/>
			<point x="867" y="586"/>
			<point x="830" y="399"/>
			<point x="790" y="230"/>
			<point x="746" y="75"/>
			<point x="720" y="0" type="qcurve"/>
			<point x="647" y="0" type="line"/>
			<point x="623" y="57"/>
			<point x="576" y="171"/>
			<point x="530" y="292"/>
			<point x="484" y="424"/>
			<point x="460" y="498" type="qcurve"/>
			<point x="436" y="424"/>
			<point x="389" y="292"/>
			<point x="343" y="171"/>
			<point x="296" y="57"/>
			<point x="272" y="0" type="qcurve"/>
			<point x="200" y="0" type="line"/>
			<point x="173" y="75"/>
			<point x="128" y="230"/>
			<point x="89" y="399"/>
			<point x="54" y="586"/>
			<point x="36" y="693" type="qcurve"/>
			<point x="106" y="693" type="line"/>
			<point x="121" y="605"/>
			<point x="153" y="436"/>
			<point x="188" y="278"/>
			<point x="225" y="137"/>
			<point x="243" y="77" type="qcurve"/>
			<point x="286" y="188"/>
			<point x="384" y="447"/>
			<point x="432" y="608" type="qcurve"/>
		</contour>
	</outline>
</glyph>
<glyph name="Z" format="2">
  <advance width="560"/>
  <unicode hex="005A"/>
  <anchor x="280" y="0" name="bottom"/>
  <anchor x="280" y="347" name="center"/>
  <anchor x="280" y="693" name="top"/>
  <outline>
    <contour>
      <point x="38" y="0" type="line"/>
      <point x="520" y="0" type="line"/>
      <point x="520" y="59" type="line"/>
      <point x="112" y="59" type="line"/>
      <point x="215" y="248"/>
      <point x="414" y="520"/>
      <point x="510" y="631" type="curve"/>
      <point x="510" y="693" type="line"/>
      <point x="57" y="693" type="line"/>
      <point x="57" y="634" type="line"/>
      <point x="436" y="634" type="line"/>
      <point x="326" y="510"/>
      <point x="127" y="225"/>
      <point x="38" y="51" type="curve"/>
    </contour>
  </outline>
</glyph>
<glyph name="backslash" format="2">
  <advance width="359"/>
  <unicode hex="005C"/>
  <outline>
    <contour>
      <point x="-23" y="783" type="line"/>
      <point x="41" y="783" type="line"/>
      <point x="382" y="-185" type="line"/>
      <point x="316" y="-185" type="line"/>
    </contour>
  </outline>
</glyph>
<glyph name="bracketright" format="2">
	<unicode hex="005D"/>
	<advance width="310"/>
	<outline>
		<contour>
			<point x="210" y="-185" type="line"/>
			<point x="8" y="-185" type="line"/>
			<point x="8" y="-135" type="line"/>
			<point x="148" y="-135" type="line"/>
			<point x="148" y="733" type="line"/>
			<point x="8" y="733" type="line"/>
			<point x="8" y="783" type="line"/>
			<point x="210" y="783" type="line"/>
		</contour>
	</outline>
</glyph>
<glyph name="grave" format="2">
  <advance width="376"/>
  <unicode hex="0060"/>
  <outline>
    <contour>
      <point x="60" y="722" type="line"/>
      <point x="231" y="583" type="line"/>
      <point x="264" y="621" type="line"/>
      <point x="106" y="773" type="line"/>
    </contour>
  </outline>
</glyph>
<glyph name="c" format="2">
  <advance width="460"/>
  <unicode hex="0063"/>
  <anchor x="230" y="0" name="bottom"/>
  <anchor x="230" y="517" name="top"/>
  <outline>
    <contour>
      <point x="300" y="-11" type="curve" smooth="yes"/>
      <point x="355" y="-11"/>
      <point x="413" y="5"/>
      <point x="437" y="18" type="curve"/>
      <point x="423" y="74" type="line"/>
      <point x="406" y="65"/>
      <point x="366" y="48"/>
      <point x="311" y="48" type="curve" smooth="yes"/>
      <point x="175" y="48"/>
      <point x="124" y="134"/>
      <point x="124" y="257" type="curve" smooth="yes"/>
      <point x="124" y="392"/>
      <point x="185" y="470"/>
      <point x="299" y="470" type="curve" smooth="yes"/>
      <point x="354" y="470"/>
      <point x="384" y="461"/>
      <point x="411" y="448" type="curve"/>
      <point x="428" y="504" type="line"/>
      <point x="402" y="519"/>
      <point x="348" y="529"/>
      <point x="293" y="529" type="curve" smooth="yes"/>
      <point x="146" y="529"/>
      <point x="55" y="419"/>
      <point x="55" y="257" type="curve" smooth="yes"/>
      <point x="55" y="96"/>
      <point x="140" y="-11"/>
    </contour>
  </outline>
</glyph>
<glyph name="h" format="2">
  <advance width="569"/>
  <unicode hex="0068"/>
  <anchor x="285" y="0" name="bottom"/>
  <anchor x="285" y="388" name="center"/>
  <anchor x="285" y="776" name="top"/>
  <outline>
    <contour>
      <point x="86" y="0" type="line"/>
      <point x="151" y="0" type="line"/>
      <point x="151" y="445" type="line"/>
      <point x="163" y="451"/>
      <point x="227" y="468"/>
      <point x="272" y="468" type="curve" smooth="yes"/>
      <point x="389" y="468"/>
      <point x="424" y="414"/>
      <point x="424" y="268" type="curve" smooth="yes"/>
      <point x="424" y="0" type="line"/>
      <point x="489" y="0" type="line"/>
      <point x="489" y="289" type="line" smooth="yes"/>
      <point x="489" y="431"/>
      <point x="443" y="527"/>
      <point x="282" y="527" type="curve" smooth="yes"/>
      <point x="238" y="527"/>
      <point x="193" y="518"/>
      <point x="151" y="502" type="curve"/>
      <point x="151" y="776" type="line"/>
      <point x="86" y="764" type="line"/>
    </contour>
  </outline>
</glyph>
<glyph name="i" format="2">
	<unicode hex="0069"/>
	<advance width="237"/>
	<outline>
		<contour>
			<point x="151" y="0" type="line"/>
			<point x="86" y="0" type="line"/>
			<point x="86" y="517" type="line"/>
			<point x="151" y="517" type="line"/>
		</contour>
		<contour>
			<point x="166" y="673" type="qcurve"/>
			<point x="166" y="650"/>
			<point x="138" y="623"/>
			<point x="118" y="623" type="qcurve"/>
			<point x="98" y="623"/>
			<point x="70" y="650"/>
			<point x="70" y="673" type="qcurve"/>
			<point x="70" y="696"/>
			<point x="98" y="723"/>
			<point x="118" y="723" type="qcurve"/>
			<point x="138" y="723"/>
			<point x="166" y="696"/>
		</contour>
	</outline>
</glyph>
<glyph name="j" format="2">
  <advance width="237"/>
  <unicode hex="006A"/>
  <outline>
    <contour>
      <point x="-11" y="-187" type="curve" smooth="yes"/>
      <point x="106" y="-187"/>
      <point x="151" y="-125"/>
      <point x="151" y="5" type="curve" smooth="yes"/>
      <point x="151" y="517" type="line"/>
      <point x="86" y="517" type="line"/>
      <point x="86" y="2" type="line"/>
      <point x="86" y="-86"/>
      <point x="67" y="-130"/>
      <point x="-12" y="-130" type="curve" smooth="yes"/>
      <point x="-27" y="-130"/>
      <point x="-45" y="-127"/>
      <point x="-54" y="-124" type="curve"/>
      <point x="-63" y="-177" type="line"/>
      <point x="-52" y="-182"/>
      <point x="-25" y="-187"/>
    </contour>
    <contour>
      <point x="166" y="673" type="curve" smooth="yes"/>
      <point x="166" y="703"/>
      <point x="145" y="723"/>
      <point x="118" y="723" type="curve" smooth="yes"/>
      <point x="91" y="723"/>
      <point x="70" y="703"/>
      <point x="70" y="673" type="curve" smooth="yes"/>
      <point x="70" y="643"/>
      <point x="91" y="623"/>
      <point x="118" y="623" type="curve" smooth="yes"/>
      <point x="145" y="623"/>
      <point x="166" y="643"/>
    </contour>
  </outline>
</glyph>
<glyph name="k" format="2">
	<unicode hex="006B"/>
	<advance width="495"/>
	<outline>
		<contour>
			<point x="224" y="281" type="qcurve"/>
			<point x="255" y="260"/>
			<point x="326" y="194"/>
			<point x="395" y="117"/>
			<point x="456" y="36"/>
			<point x="477" y="0" type="qcurve"/>
			<point x="400" y="0" type="line"/>
			<point x="376" y="40"/>
			<point x="315" y="117"/>
			<point x="248" y="185"/>
			<point x="181" y="241"/>
			<point x="151" y="260" type="qcurve"/>
			<point x="151" y="0" type="line"/>
			<point x="86" y="0" type="line"/>
			<point x="86" y="764" type="line"/>
			<point x="151" y="776" type="line"/>
			<point x="151" y="284" type="line"/>
			<point x="176" y="308"/>
			<point x="238" y="370"/>
			<point x="301" y="434"/>
			<point x="357" y="494"/>
			<point x="377" y="517" type="qcurve"/>
			<point x="455" y="517" type="line"/>
			<point x="432" y="493"/>
			<point x="374" y="433"/>
			<point x="311" y="368"/>
			<point x="249" y="306"/>
		</contour>
	</outline>
</glyph>
<glyph name="m" format="2">
	<unicode hex="006D"/>
	<advance width="863"/>
	<outline>
		<contour>
			<point x="86" y="499" type="line"/>
			<point x="115" y="507"/>
			<point x="208" y="527"/>
			<point x="282" y="527" type="qcurve"/>
			<point x="380" y="527"/>
			<point x="424" y="470" type="qcurve"/>
			<point x="429" y="474"/>
			<point x="458" y="493"/>
			<point x="502" y="513"/>
			<point x="561" y="527"/>
			<point x="597" y="527" type="qcurve"/>
			<point x="656" y="527"/>
			<point x="729" y="492"/>
			<point x="769" y="429"/>
			<point x="783" y="341"/>
			<point x="783" y="289" type="qcurve"/>
			<point x="783" y="0" type="line"/>
			<point x="718" y="0" type="line"/>
			<point x="718" y="268" type="line"/>
			<point x="718" y="319"/>
			<point x="709" y="394"/>
			<point x="682" y="443"/>
			<point x="632" y="468"/>
			<point x="592" y="468" type="qcurve"/>
			<point x="562" y="468"/>
			<point x="513" y="457"/>
			<point x="477" y="441"/>
			<point x="454" y="425"/>
			<point x="449" y="421" type="qcurve"/>
			<point x="458" y="395"/>
			<point x="467" y="330"/>
			<point x="467" y="294" type="qcurve"/>
			<point x="467" y="0" type="line"/>
			<point x="402" y="0" type="line"/>
			<point x="402" y="268" type="line"/>
			<point x="402" y="319"/>
			<point x="393" y="394"/>
			<point x="365" y="443"/>
			<point x="314" y="468"/>
			<point x="272" y="468" type="qcurve"/>
			<point x="225" y="468"/>
			<point x="160" y="458"/>
			<point x="151" y="454" type="qcurve"/>
			<point x="151" y="0" type="line"/>
			<point x="86" y="0" type="line"/>
		</contour>
	</outline>
</glyph>
<glyph name="n" format="2">
  <advance width="569"/>
  <unicode hex="006E"/>
  <anchor x="285" y="0" name="bottom"/>
  <anchor x="285" y="517" name="top"/>
  <outline>
    <contour>
      <point x="86" y="0" type="line"/>
      <point x="151" y="0" type="line"/>
      <point x="151" y="454" type="line"/>
      <point x="164" y="459"/>
      <point x="213" y="468"/>
      <point x="274" y="468" type="curve" smooth="yes"/>
      <point x="388" y="468"/>
      <point x="424" y="414"/>
      <point x="424" y="268" type="curve" smooth="yes"/>
      <point x="424" y="0" type="line"/>
      <point x="489" y="0" type="line"/>
      <point x="489" y="289" type="line" smooth="yes"/>
      <point x="489" y="431"/>
      <point x="442" y="527"/>
      <point x="284" y="527" type="curve" smooth="yes"/>
      <point x="190" y="527"/>
      <point x="125" y="510"/>
      <point x="86" y="499" type="curve"/>
    </contour>
  </outline>
</glyph>
<glyph name="o" format="2">
  <advance width="582"/>
  <unicode hex="006F"/>
  <outline>
    <contour>
      <point x="527" y="258" type="curve" smooth="yes"/>
      <point x="527" y="421"/>
      <point x="429" y="529"/>
      <point x="291" y="529" type="curve" smooth="yes"/>
      <point x="153" y="529"/>
      <point x="55" y="421"/>
      <point x="55" y="258" type="curve" smooth="yes"/>
      <point x="55" y="95"/>
      <point x="153" y="-12"/>
      <point x="291" y="-12" type="curve" smooth="yes"/>
      <point x="429" y="-12"/>
      <point x="527" y="95"/>
    </contour>
    <contour>
      <point x="458" y="258" type="curve" smooth="yes"/>
      <point x="458" y="129"/>
      <point x="393" y="47"/>
      <point x="291" y="47" type="curve" smooth="yes"/>
      <point x="189" y="47"/>
      <point x="124" y="129"/>
      <point x="124" y="258" type="curve" smooth="yes"/>
      <point x="124" y="387"/>
      <point x="189" y="470"/>
      <point x="291" y="470" type="curve" smooth="yes"/>
      <point x="393" y="470"/>
      <point x="458" y="387"/>
    </contour>
  </outline>
</glyph>
<glyph name="p" format="2">
  <advance width="583"/>
  <unicode hex="0070"/>
  <anchor x="292" y="0" name="bottom"/>
  <anchor x="292" y="517" name="top"/>
  <outline>
    <contour>
      <point x="86" y="-185" type="line"/>
      <point x="151" y="-185" type="line"/>
      <point x="151" y="30" type="line"/>
      <point x="174" y="13"/>
      <point x="227" y="-12"/>
      <point x="294" y="-12" type="curve" smooth="yes"/>
      <point x="443" y="-12"/>
      <point x="528" y="99"/>
      <point x="528" y="257" type="curve" smooth="yes"/>
      <point x="528" y="425"/>
      <point x="425" y="527"/>
      <point x="274" y="527" type="curve" smooth="yes"/>
      <point x="183" y="527"/>
      <point x="124" y="512"/>
      <point x="86" y="499" type="curve"/>
    </contour>
    <contour>
      <point x="288" y="47" type="curve" smooth="yes"/>
      <point x="226" y="47"/>
      <point x="174" y="74"/>
      <point x="151" y="93" type="curve"/>
      <point x="151" y="454" type="line"/>
      <point x="171" y="460"/>
      <point x="210" y="468"/>
      <point x="273" y="468" type="curve" smooth="yes"/>
      <point x="384" y="468"/>
      <point x="459" y="392"/>
      <point x="459" y="257" type="curve" smooth="yes"/>
      <point x="459" y="142"/>
      <point x="415" y="47"/>
    </contour>
  </outline>
</glyph>
<glyph name="s" format="2">
  <advance width="428"/>
  <unicode hex="0073"/>
  <outline>
    <contour>
      <point x="192" y="46" type="curve" smooth="yes"/>
      <point x="110" y="46"/>
      <point x="66" y="72"/>
      <point x="57" y="76" type="curve"/>
      <point x="40" y="17" type="line"/>
      <point x="56" y="9"/>
      <point x="102" y="-12"/>
      <point x="192" y="-12" type="curve" smooth="yes"/>
      <point x="313" y="-12"/>
      <point x="388" y="37"/>
      <point x="388" y="130" type="curve" smooth="yes"/>
      <point x="388" y="228"/>
      <point x="314" y="256"/>
      <point x="235" y="288" type="curve" smooth="yes"/>
      <point x="157" y="319"/>
      <point x="114" y="337"/>
      <point x="114" y="394" type="curve" smooth="yes"/>
      <point x="114" y="449"/>
      <point x="165" y="472"/>
      <point x="223" y="472" type="curve" smooth="yes"/>
      <point x="296" y="472"/>
      <point x="331" y="454"/>
      <point x="347" y="446" type="curve"/>
      <point x="362" y="504" type="line"/>
      <point x="344" y="513"/>
      <point x="296" y="529"/>
      <point x="226" y="529" type="curve" smooth="yes"/>
      <point x="116" y="529"/>
      <point x="48" y="472"/>
      <point x="48" y="388" type="curve" smooth="yes"/>
      <point x="48" y="301"/>
      <point x="117" y="270"/>
      <point x="193" y="239" type="curve" smooth="yes"/>
      <point x="289" y="200"/>
      <point x="321" y="184"/>
      <point x="321" y="127" type="curve" smooth="yes"/>
      <point x="321" y="68"/>
      <point x="267" y="46"/>
    </contour>
  </outline>
</glyph>
<glyph name="v" format="2">
  <advance width="480"/>
  <unicode hex="0076"/>
  <outline>
    <contour>
      <point x="242" y="70" type="curve"/>
      <point x="187" y="185"/>
      <point x="121" y="375"/>
      <point x="89" y="517" type="curve"/>
      <point x="20" y="517" type="line"/>
      <point x="67" y="329"/>
      <point x="141" y="143"/>
      <point x="209" y="0" type="curve"/>
      <point x="271" y="0" type="line"/>
      <point x="339" y="143"/>
      <point x="413" y="329"/>
      <point x="460" y="517" type="curve"/>
      <point x="395" y="517" type="line"/>
      <point x="363" y="375"/>
      <point x="297" y="185"/>
    </contour>
  </outline>
</glyph>
<glyph name="x" format="2">
  <advance width="499"/>
  <unicode hex="0078"/>
  <outline>
    <contour>
      <point x="248" y="234" type="curve"/>
      <point x="305" y="157"/>
      <point x="370" y="59"/>
      <point x="401" y="0" type="curve"/>
      <point x="471" y="0" type="line"/>
      <point x="420" y="100"/>
      <point x="347" y="203"/>
      <point x="290" y="278" type="curve"/>
      <point x="455" y="517" type="line"/>
      <point x="384" y="517" type="line"/>
      <point x="248" y="319" type="line"/>
      <point x="114" y="517" type="line"/>
      <point x="38" y="517" type="line"/>
      <point x="206" y="274" type="line"/>
      <point x="144" y="189"/>
      <point x="82" y="102"/>
      <point x="28" y="0" type="curve"/>
      <point x="95" y="0" type="line"/>
      <point x="126" y="59"/>
      <point x="190" y="157"/>
    </contour>
  </outline>
</glyph>
<glyph name="z" format="2">
  <advance width="455"/>
  <unicode hex="007A"/>
  <outline>
    <contour>
      <point x="407" y="517" type="line"/>
      <point x="53" y="517" type="line"/>
      <point x="53" y="462" type="line"/>
      <point x="328" y="462" type="line"/>
      <point x="257" y="377"/>
      <point x="107" y="177"/>
      <point x="38" y="47" type="curve"/>
      <point x="38" y="0" type="line"/>
      <point x="416" y="0" type="line"/>
      <point x="416" y="55" type="line"/>
      <point x="113" y="55" type="line"/>
      <point x="195" y="203"/>
      <point x="346" y="396"/>
      <point x="407" y="464" type="curve"/>
    </contour>
  </outline>
</glyph>
<glyph name="braceleft" format="2">
  <advance width="319"/>
  <unicode hex="007B"/>
  <outline>
    <contour>
      <point x="132" y="289" type="curve"/>
      <point x="175" y="313"/>
      <point x="201" y="352"/>
      <point x="201" y="451" type="curve" smooth="yes"/>
      <point x="201" y="558" type="line" smooth="yes"/>
      <point x="201" y="683"/>
      <point x="202" y="723"/>
      <point x="311" y="723" type="curve"/>
      <point x="311" y="773" type="line"/>
      <point x="303" y="773" type="line"/>
      <point x="174" y="773"/>
      <point x="139" y="714"/>
      <point x="139" y="606" type="curve" smooth="yes"/>
      <point x="139" y="412" type="line"/>
      <point x="139" y="365"/>
      <point x="109" y="313"/>
      <point x="43" y="313" type="curve"/>
      <point x="43" y="264" type="line"/>
      <point x="109" y="264"/>
      <point x="139" y="212"/>
      <point x="139" y="165" type="curve" smooth="yes"/>
      <point x="139" y="-29" type="line" smooth="yes"/>
      <point x="139" y="-137"/>
      <point x="174" y="-196"/>
      <point x="303" y="-196" type="curve" smooth="yes"/>
      <point x="311" y="-196" type="line"/>
      <point x="311" y="-146" type="line"/>
      <point x="202" y="-146"/>
      <point x="201" y="-106"/>
      <point x="201" y="19" type="curve" smooth="yes"/>
      <point x="201" y="126" type="line" smooth="yes"/>
      <point x="201" y="225"/>
      <point x="175" y="265"/>
    </contour>
  </outline>
</glyph>
<glyph name="bar" format="2">
  <advance width="262"/>
  <unicode hex="007C"/>
  <outline>
    <contour>
      <point x="100" y="-185" type="line"/>
      <point x="162" y="-185" type="line"/>
      <point x="162" y="783" type="line"/>
      <point x="100" y="783" type="line"/>
    </contour>
  </outline>
</glyph>
<glyph name="braceright" format="2">
  <advance width="319"/>
  <unicode hex="007D"/>
  <outline>
    <contour>
      <point x="8" y="-196" type="line"/>
      <point x="16" y="-196" type="line" smooth="yes"/>
      <point x="145" y="-196"/>
      <point x="180" y="-137"/>
      <point x="180" y="-29" type="curve" smooth="yes"/>
      <point x="180" y="165" type="line" smooth="yes"/>
      <point x="180" y="212"/>
      <point x="210" y="264"/>
      <point x="276" y="264" type="curve"/>
      <point x="276" y="313" type="line"/>
      <point x="210" y="313"/>
      <point x="180" y="365"/>
      <point x="180" y="412" type="curve"/>
      <point x="180" y="606" type="line" smooth="yes"/>
      <point x="180" y="714"/>
      <point x="145" y="773"/>
      <point x="16" y="773" type="curve"/>
      <point x="8" y="773" type="line"/>
      <point x="8" y="723" type="line"/>
      <point x="15" y="723" type="line"/>
      <point x="117" y="721"/>
      <point x="118" y="680"/>
      <point x="118" y="558" type="curve" smooth="yes"/>
      <point x="118" y="451" type="line" smooth="yes"/>
      <point x="118" y="352"/>
      <point x="144" y="313"/>
      <point x="187" y="289" type="curve"/>
      <point x="144" y="265"/>
      <point x="118" y="225"/>
      <point x="118" y="126" type="curve" smooth="yes"/>
      <point x="118" y="19" type="line" smooth="yes"/>
      <point x="118" y="-103"/>
      <point x="117" y="-144"/>
      <point x="16" y="-146" type="curve"/>
      <point x="8" y="-146" type="line"/>
    </contour>
  </outline>
</glyph>
<glyph name="exclamdown" format="2">
  <advance width="274"/>
  <unicode hex="00A1"/>
  <outline>
    <contour>
      <point x="172" y="5" type="line"/>
      <point x="172" y="119"/>
      <point x="163" y="203"/>
      <point x="152" y="292" type="curve"/>
      <point x="122" y="292" type="line"/>
      <point x="110" y="203"/>
      <point x="102" y="119"/>
      <point x="102" y="5" type="curve" smooth="yes"/>
      <point x="102" y="-185" type="line"/>
      <point x="172" y="-185" type="line"/>
    </contour>
    <contour>
      <point x="192" y="462" type="curve" smooth="yes"/>
      <point x="192" y="492"/>
      <point x="171" y="517"/>
      <point x="137" y="517" type="curve" smooth="yes"/>
      <point x="103" y="517"/>
      <point x="82" y="492"/>
      <point x="82" y="462" type="curve" smooth="yes"/>
      <point x="82" y="432"/>
      <point x="103" y="407"/>
      <point x="137" y="407" type="curve" smooth="yes"/>
      <point x="171" y="407"/>
      <point x="192" y="432"/>
    </contour>
  </outline>
</glyph>
<glyph name="cent" format="2">
	<unicode hex="00A2"/>
	<advance width="564"/>
	<outline>
		<contour>
			<point x="304" y="34" type="line"/>
			<point x="256" y="41"/>
			<point x="182" y="85"/>
			<point x="133" y="152"/>
			<point x="107" y="239"/>
			<point x="107" y="290" type="qcurve"/>
			<point x="107" y="341"/>
			<point x="134" y="430"/>
			<point x="185" y="498"/>
			<point x="258" y="543"/>
			<point x="304" y="550" type="qcurve"/>
			<point x="304" y="693" type="line"/>
			<point x="363" y="693" type="line"/>
			<point x="363" y="552" type="line"/>
			<point x="394" y="552"/>
			<point x="451" y="539"/>
			<point x="479" y="528" type="qcurve"/>
			<point x="462" y="473" type="line"/>
			<point x="441" y="482"/>
			<point x="384" y="496"/>
			<point x="353" y="496" type="qcurve"/>
			<point x="266" y="496"/>
			<point x="176" y="393"/>
			<point x="176" y="290" type="qcurve"/>
			<point x="176" y="246"/>
			<point x="197" y="172"/>
			<point x="242" y="118"/>
			<point x="313" y="88"/>
			<point x="363" y="88" type="qcurve"/>
			<point x="405" y="88"/>
			<point x="463" y="105"/>
			<point x="476" y="111" type="qcurve"/>
			<point x="488" y="57" type="line"/>
			<point x="482" y="53"/>
			<point x="455" y="44"/>
			<point x="421" y="37"/>
			<point x="382" y="32"/>
			<point x="363" y="31" type="qcurve"/>
			<point x="363" y="-109" type="line"/>
			<point x="304" y="-109" type="line"/>
		</contour>
	</outline>
	<guideline y="110"/>
	<guideline y="475"/>
</glyph>
<glyph name="section" format="2">
  <advance width="482"/>
  <unicode hex="00A7"/>
  <outline>
    <contour>
      <point x="56" y="-79" type="line"/>
      <point x="86" y="-93"/>
      <point x="135" y="-109"/>
      <point x="214" y="-109" type="curve" smooth="yes"/>
      <point x="333" y="-109"/>
      <point x="411" y="-59"/>
      <point x="411" y="37" type="curve" smooth="yes"/>
      <point x="411" y="86"/>
      <point x="385" y="128"/>
      <point x="341" y="154" type="curve"/>
      <point x="390" y="181"/>
      <point x="437" y="233"/>
      <point x="437" y="300" type="curve" smooth="yes"/>
      <point x="437" y="412"/>
      <point x="349" y="442"/>
      <point x="262" y="470" type="curve" smooth="yes"/>
      <point x="179" y="496"/>
      <point x="147" y="521"/>
      <point x="147" y="576" type="curve"/>
      <point x="147" y="631"/>
      <point x="195" y="657"/>
      <point x="260" y="657" type="curve" smooth="yes"/>
      <point x="326" y="657"/>
      <point x="368" y="640"/>
      <point x="390" y="630" type="curve"/>
      <point x="406" y="683" type="line"/>
      <point x="386" y="691"/>
      <point x="341" y="708"/>
      <point x="261" y="708" type="curve" smooth="yes"/>
      <point x="146" y="708"/>
      <point x="85" y="652"/>
      <point x="85" y="565" type="curve" smooth="yes"/>
      <point x="85" y="516"/>
      <point x="104" y="484"/>
      <point x="144" y="455" type="curve"/>
      <point x="103" y="432"/>
      <point x="47" y="385"/>
      <point x="47" y="309" type="curve" smooth="yes"/>
      <point x="47" y="202"/>
      <point x="126" y="173"/>
      <point x="220" y="141" type="curve" smooth="yes"/>
      <point x="311" y="110"/>
      <point x="348" y="85"/>
      <point x="348" y="28" type="curve" smooth="yes"/>
      <point x="348" y="-33"/>
      <point x="290" y="-58"/>
      <point x="221" y="-58" type="curve"/>
      <point x="142" y="-58"/>
      <point x="107" y="-43"/>
      <point x="72" y="-28" type="curve"/>
    </contour>
    <contour>
      <point x="227" y="420" type="curve" smooth="yes"/>
      <point x="300" y="396"/>
      <point x="375" y="371"/>
      <point x="375" y="295" type="curve" smooth="yes"/>
      <point x="375" y="248"/>
      <point x="347" y="202"/>
      <point x="296" y="177" type="curve"/>
      <point x="287" y="181"/>
      <point x="270" y="187"/>
      <point x="257" y="191" type="curve"/>
      <point x="175" y="218"/>
      <point x="109" y="241"/>
      <point x="109" y="317" type="curve" smooth="yes"/>
      <point x="109" y="373"/>
      <point x="144" y="409"/>
      <point x="190" y="433" type="curve"/>
      <point x="197" y="430"/>
      <point x="212" y="425"/>
    </contour>
  </outline>
</glyph>
<glyph name="plusminus" format="2">
	<unicode hex="00B1"/>
	<advance width="564"/>
	<outline>
		<contour>
			<point x="56" y="56" type="line"/>
			<point x="508" y="56" type="line"/>
			<point x="508" y="0" type="line"/>
			<point x="56" y="0" type="line"/>
		</contour>
		<contour>
			<point x="56" y="401" type="line"/>
			<point x="253" y="401" type="line"/>
			<point x="253" y="618" type="line"/>
			<point x="311" y="618" type="line"/>
			<point x="311" y="401" type="line"/>
			<point x="508" y="401" type="line"/>
			<point x="508" y="345" type="line"/>
			<point x="311" y="345" type="line"/>
			<point x="311" y="128" type="line"/>
			<point x="253" y="128" type="line"/>
			<point x="253" y="345" type="line"/>
			<point x="56" y="345" type="line"/>
		</contour>
	</outline>
</glyph>
<glyph name="threesuperior" format="2">
  <advance width="359"/>
  <unicode hex="00B3"/>
  <outline>
    <contour>
      <point x="149" y="309" type="curve" smooth="yes"/>
      <point x="257" y="309"/>
      <point x="299" y="362"/>
      <point x="299" y="423" type="curve" smooth="yes"/>
      <point x="299" y="479"/>
      <point x="265" y="511"/>
      <point x="216" y="526" type="curve"/>
      <point x="257" y="543"/>
      <point x="277" y="571"/>
      <point x="277" y="613" type="curve" smooth="yes"/>
      <point x="277" y="668"/>
      <point x="243" y="708"/>
      <point x="157" y="708" type="curve" smooth="yes"/>
      <point x="101" y="708"/>
      <point x="61" y="687"/>
      <point x="46" y="675" type="curve"/>
      <point x="66" y="633" type="line"/>
      <point x="83" y="645"/>
      <point x="112" y="661"/>
      <point x="155" y="661" type="curve" smooth="yes"/>
      <point x="196" y="661"/>
      <point x="223" y="647"/>
      <point x="223" y="608" type="curve" smooth="yes"/>
      <point x="223" y="556"/>
      <point x="177" y="544"/>
      <point x="128" y="544" type="curve" smooth="yes"/>
      <point x="113" y="544" type="line"/>
      <point x="113" y="499" type="line"/>
      <point x="126" y="499" type="line" smooth="yes"/>
      <point x="186" y="499"/>
      <point x="243" y="481"/>
      <point x="243" y="425" type="curve" smooth="yes"/>
      <point x="243" y="386"/>
      <point x="222" y="357"/>
      <point x="146" y="357" type="curve" smooth="yes"/>
      <point x="105" y="357"/>
      <point x="77" y="368"/>
      <point x="58" y="377" type="curve"/>
      <point x="45" y="330" type="line"/>
      <point x="66" y="320"/>
      <point x="98" y="309"/>
    </contour>
  </outline>
</glyph>
<glyph name="cedilla" format="2">
  <advance width="376"/>
  <unicode hex="00B8"/>
  <outline>
    <contour>
      <point x="169" y="-187" type="curve" smooth="yes"/>
      <point x="249" y="-187"/>
      <point x="267" y="-145"/>
      <point x="267" y="-112" type="curve" smooth="yes"/>
      <point x="267" y="-73"/>
      <point x="243" y="-52"/>
      <point x="206" y="-36" type="curve"/>
      <point x="212" y="-20"/>
      <point x="226" y="5"/>
      <point x="235" y="20" type="curve"/>
      <point x="189" y="20" type="line"/>
      <point x="181" y="7"/>
      <point x="157" y="-38"/>
      <point x="148" y="-65" type="curve"/>
      <point x="188" y="-81"/>
      <point x="206" y="-90"/>
      <point x="206" y="-112" type="curve" smooth="yes"/>
      <point x="206" y="-131"/>
      <point x="192" y="-141"/>
      <point x="165" y="-141" type="curve" smooth="yes"/>
      <point x="138" y="-141"/>
      <point x="121" y="-138"/>
      <point x="106" y="-132" type="curve"/>
      <point x="98" y="-175" type="line"/>
      <point x="110" y="-181"/>
      <point x="142" y="-187"/>
    </contour>
  </outline>
</glyph>
<glyph name="questiondown" format="2">
  <advance width="380"/>
  <unicode hex="00BF"/>
  <outline>
    <contour>
      <point x="215" y="-186" type="curve" smooth="yes"/>
      <point x="279" y="-186"/>
      <point x="335" y="-168"/>
      <point x="363" y="-152" type="curve"/>
      <point x="344" y="-98" type="line"/>
      <point x="307" y="-118"/>
      <point x="267" y="-128"/>
      <point x="222" y="-128" type="curve" smooth="yes"/>
      <point x="155" y="-128"/>
      <point x="99" y="-107"/>
      <point x="99" y="-39" type="curve"/>
      <point x="99" y="72"/>
      <point x="255" y="128"/>
      <point x="255" y="255" type="curve" smooth="yes"/>
      <point x="255" y="269"/>
      <point x="254" y="279"/>
      <point x="251" y="292" type="curve"/>
      <point x="200" y="292" type="line"/>
      <point x="201" y="285"/>
      <point x="201" y="284"/>
      <point x="201" y="276" type="curve" smooth="yes"/>
      <point x="201" y="140"/>
      <point x="30" y="92"/>
      <point x="30" y="-45" type="curve" smooth="yes"/>
      <point x="30" y="-106"/>
      <point x="71" y="-186"/>
    </contour>
    <contour>
      <point x="219" y="407" type="curve" smooth="yes"/>
      <point x="253" y="407"/>
      <point x="274" y="432"/>
      <point x="274" y="462" type="curve" smooth="yes"/>
      <point x="274" y="492"/>
      <point x="253" y="517"/>
      <point x="219" y="517" type="curve" smooth="yes"/>
      <point x="185" y="517"/>
      <point x="164" y="492"/>
      <point x="164" y="462" type="curve" smooth="yes"/>
      <point x="164" y="432"/>
      <point x="185" y="407"/>
    </contour>
  </outline>
</glyph>
<glyph name="Aring" format="2">
  <advance width="641"/>
  <unicode hex="00C5"/>
  <outline>
    <contour>
      <point x="10" y="0" type="curve"/>
      <point x="81" y="0" type="line"/>
      <point x="105" y="68"/>
      <point x="128" y="130"/>
      <point x="150" y="190" type="curve"/>
      <point x="487" y="190" type="line"/>
      <point x="508" y="130"/>
      <point x="531" y="68"/>
      <point x="556" y="0" type="curve"/>
      <point x="631" y="0" type="line"/>
      <point x="529" y="272"/>
      <point x="457" y="465"/>
      <point x="367" y="657" type="curve"/>
      <point x="395" y="673"/>
      <point x="415" y="703"/>
      <point x="415" y="742" type="curve" smooth="yes"/>
      <point x="415" y="799"/>
      <point x="371" y="837"/>
      <point x="320" y="837" type="curve" smooth="yes"/>
      <point x="268" y="837"/>
      <point x="224" y="799"/>
      <point x="224" y="742" type="curve" smooth="yes"/>
      <point x="224" y="703"/>
      <point x="243" y="673"/>
      <point x="272" y="657" type="curve"/>
      <point x="182" y="465"/>
      <point x="110" y="272"/>
    </contour>
    <contour>
      <point x="171" y="248" type="line"/>
      <point x="221" y="384"/>
      <point x="267" y="501"/>
      <point x="318" y="615" type="curve"/>
      <point x="369" y="501"/>
      <point x="415" y="384"/>
      <point x="466" y="248" type="curve"/>
    </contour>
    <contour>
      <point x="320" y="683" type="curve" smooth="yes"/>
      <point x="288" y="683"/>
      <point x="263" y="704"/>
      <point x="263" y="742" type="curve" smooth="yes"/>
      <point x="263" y="779"/>
      <point x="288" y="801"/>
      <point x="320" y="801" type="curve" smooth="yes"/>
      <point x="352" y="801"/>
      <point x="377" y="779"/>
      <point x="377" y="742" type="curve" smooth="yes"/>
      <point x="377" y="704"/>
      <point x="352" y="683"/>
    </contour>
  </outline>
</glyph>
<glyph name="AE" format="2">
  <advance width="915"/>
  <unicode hex="00C6"/>
  <outline>
    <contour>
      <point x="876" y="0" type="line"/>
      <point x="876" y="59" type="line"/>
      <point x="532" y="59" type="line"/>
      <point x="532" y="335" type="line"/>
      <point x="814" y="335" type="line"/>
      <point x="814" y="393" type="line"/>
      <point x="532" y="393" type="line"/>
      <point x="532" y="634" type="line"/>
      <point x="850" y="634" type="line"/>
      <point x="850" y="693" type="line"/>
      <point x="433" y="693" type="line"/>
      <point x="290" y="496"/>
      <point x="151" y="285"/>
      <point x="6" y="0" type="curve"/>
      <point x="76" y="0" type="line"/>
      <point x="108" y="64"/>
      <point x="142" y="127"/>
      <point x="177" y="190" type="curve"/>
      <point x="464" y="190" type="line"/>
      <point x="464" y="0" type="line"/>
    </contour>
    <contour>
      <point x="464" y="637" type="curve"/>
      <point x="464" y="248" type="line"/>
      <point x="210" y="248" type="line"/>
      <point x="288" y="384"/>
      <point x="372" y="514"/>
    </contour>
  </outline>
</glyph>
<glyph name="Ccedilla" format="2">
  <advance width="609"/>
  <unicode hex="00C7"/>
  <outline>
    <contour>
      <point x="364" y="-36" type="curve"/>
      <point x="366" y="-30"/>
      <point x="369" y="-22"/>
      <point x="373" y="-15" type="curve"/>
      <point x="378" y="-15" type="line" smooth="yes"/>
      <point x="489" y="-15"/>
      <point x="562" y="14"/>
      <point x="581" y="26" type="curve"/>
      <point x="562" y="84" type="line"/>
      <point x="531" y="67"/>
      <point x="472" y="46"/>
      <point x="384" y="46" type="curve" smooth="yes"/>
      <point x="224" y="46"/>
      <point x="134" y="163"/>
      <point x="134" y="346" type="curve" smooth="yes"/>
      <point x="134" y="524"/>
      <point x="223" y="647"/>
      <point x="395" y="647" type="curve" smooth="yes"/>
      <point x="470" y="647"/>
      <point x="521" y="623"/>
      <point x="554" y="603" type="curve"/>
      <point x="576" y="662" type="line"/>
      <point x="552" y="677"/>
      <point x="486" y="708"/>
      <point x="382" y="708" type="curve" smooth="yes"/>
      <point x="214" y="708"/>
      <point x="62" y="580"/>
      <point x="62" y="347" type="curve" smooth="yes"/>
      <point x="62" y="135"/>
      <point x="175" y="10"/>
      <point x="329" y="-11" type="curve"/>
      <point x="320" y="-29"/>
      <point x="311" y="-50"/>
      <point x="306" y="-65" type="curve"/>
      <point x="346" y="-81"/>
      <point x="364" y="-90"/>
      <point x="364" y="-112" type="curve" smooth="yes"/>
      <point x="364" y="-131"/>
      <point x="350" y="-141"/>
      <point x="323" y="-141" type="curve" smooth="yes"/>
      <point x="296" y="-141"/>
      <point x="279" y="-138"/>
      <point x="264" y="-132" type="curve"/>
      <point x="256" y="-175" type="line"/>
      <point x="268" y="-181"/>
      <point x="300" y="-187"/>
      <point x="327" y="-187" type="curve" smooth="yes"/>
      <point x="407" y="-187"/>
      <point x="425" y="-145"/>
      <point x="425" y="-112" type="curve" smooth="yes"/>
      <point x="425" y="-73"/>
      <point x="401" y="-52"/>
    </contour>
  </outline>
</glyph>
<glyph name="Oslash" format="2">
	<unicode hex="00D8"/>
	<advance width="774"/>
	<outline>
		<contour>
			<point x="712" y="347" type="qcurve"/>
			<point x="712" y="258"/>
			<point x="660" y="122"/>
			<point x="571" y="31"/>
			<point x="453" y="-15"/>
			<point x="387" y="-15" type="qcurve"/>
			<point x="333" y="-15"/>
			<point x="236" y="15"/>
			<point x="194" y="46" type="qcurve"/>
			<point x="133" y="-34" type="line"/>
			<point x="85" y="2" type="line"/>
			<point x="150" y="86" type="line"/>
			<point x="108" y="131"/>
			<point x="62" y="262"/>
			<point x="62" y="347" type="qcurve"/>
			<point x="62" y="436"/>
			<point x="114" y="571"/>
			<point x="203" y="662"/>
			<point x="321" y="708"/>
			<point x="387" y="708" type="qcurve"/>
			<point x="441" y="708"/>
			<point x="540" y="677"/>
			<point x="582" y="645" type="qcurve"/>
			<point x="646" y="728" type="line"/>
			<point x="694" y="692" type="line"/>
			<point x="626" y="604" type="line"/>
			<point x="666" y="559"/>
			<point x="712" y="431"/>
		</contour>
		<contour>
			<point x="134" y="347" type="qcurve"/>
			<point x="134" y="283"/>
			<point x="164" y="178"/>
			<point x="192" y="140" type="qcurve"/>
			<point x="543" y="594" type="line"/>
			<point x="478" y="647"/>
			<point x="387" y="647" type="qcurve"/>
			<point x="329" y="647"/>
			<point x="236" y="606"/>
			<point x="170" y="528"/>
			<point x="134" y="417"/>
		</contour>
		<contour>
			<point x="640" y="347" type="qcurve"/>
			<point x="640" y="410"/>
			<point x="611" y="512"/>
			<point x="584" y="550" type="qcurve"/>
			<point x="233" y="96" type="line"/>
			<point x="295" y="46"/>
			<point x="387" y="46" type="qcurve"/>
			<point x="445" y="46"/>
			<point x="538" y="88"/>
			<point x="604" y="166"/>
			<point x="640" y="277"/>
		</contour>
	</outline>
</glyph>
<glyph name="germandbls" format="2">
  <advance width="596"/>
  <unicode hex="00DF"/>
  <outline>
    <contour>
      <point x="475" y="619" type="curve" smooth="yes"/>
      <point x="475" y="712"/>
      <point x="417" y="776"/>
      <point x="287" y="776" type="curve" smooth="yes"/>
      <point x="165" y="776"/>
      <point x="86" y="693"/>
      <point x="86" y="564" type="curve" smooth="yes"/>
      <point x="86" y="0" type="line"/>
      <point x="151" y="0" type="line"/>
      <point x="151" y="560" type="line"/>
      <point x="151" y="656"/>
      <point x="193" y="718"/>
      <point x="295" y="718" type="curve" smooth="yes"/>
      <point x="365" y="718"/>
      <point x="410" y="676"/>
      <point x="410" y="616" type="curve"/>
      <point x="410" y="568"/>
      <point x="385" y="545"/>
      <point x="344" y="503" type="curve"/>
      <point x="310" y="467"/>
      <point x="279" y="435"/>
      <point x="279" y="390" type="curve" smooth="yes"/>
      <point x="279" y="332"/>
      <point x="302" y="314"/>
      <point x="390" y="268" type="curve"/>
      <point x="466" y="229"/>
      <point x="495" y="203"/>
      <point x="495" y="145" type="curve" smooth="yes"/>
      <point x="495" y="84"/>
      <point x="453" y="45"/>
      <point x="381" y="45" type="curve" smooth="yes"/>
      <point x="304" y="45"/>
      <point x="264" y="68"/>
      <point x="254" y="74" type="curve"/>
      <point x="240" y="14" type="line"/>
      <point x="253" y="7"/>
      <point x="304" y="-12"/>
      <point x="369" y="-12" type="curve" smooth="yes"/>
      <point x="489" y="-12"/>
      <point x="562" y="45"/>
      <point x="562" y="145" type="curve" smooth="yes"/>
      <point x="562" y="253"/>
      <point x="499" y="287"/>
      <point x="418" y="325" type="curve"/>
      <point x="384" y="341"/>
      <point x="345" y="358"/>
      <point x="345" y="396" type="curve"/>
      <point x="345" y="425"/>
      <point x="358" y="440"/>
      <point x="395" y="478" type="curve"/>
      <point x="422" y="506"/>
      <point x="475" y="550"/>
    </contour>
  </outline>
</glyph>
<glyph name="ae" format="2">
  <advance width="854"/>
  <unicode hex="00E6"/>
  <outline>
    <contour>
      <point x="432" y="300" type="line"/>
      <point x="437" y="390"/>
      <point x="496" y="471"/>
      <point x="588" y="471" type="curve" smooth="yes"/>
      <point x="675" y="471"/>
      <point x="726" y="408"/>
      <point x="728" y="300" type="curve"/>
    </contour>
    <contour>
      <point x="252" y="-11" type="curve" smooth="yes"/>
      <point x="350" y="-11"/>
      <point x="407" y="26"/>
      <point x="437" y="49" type="curve"/>
      <point x="481" y="7"/>
      <point x="539" y="-11"/>
      <point x="615" y="-11" type="curve" smooth="yes"/>
      <point x="684" y="-11"/>
      <point x="740" y="9"/>
      <point x="758" y="19" type="curve"/>
      <point x="746" y="75" type="line"/>
      <point x="728" y="66"/>
      <point x="687" y="48"/>
      <point x="617" y="48" type="curve" smooth="yes"/>
      <point x="490" y="48"/>
      <point x="434" y="119"/>
      <point x="430" y="245" type="curve"/>
      <point x="793" y="245" type="line"/>
      <point x="794" y="254"/>
      <point x="795" y="266"/>
      <point x="795" y="276" type="curve" smooth="yes"/>
      <point x="795" y="448"/>
      <point x="714" y="529"/>
      <point x="587" y="529" type="curve" smooth="yes"/>
      <point x="521" y="529"/>
      <point x="456" y="496"/>
      <point x="412" y="431" type="curve"/>
      <point x="389" y="490"/>
      <point x="337" y="529"/>
      <point x="243" y="529" type="curve" smooth="yes"/>
      <point x="178" y="529"/>
      <point x="128" y="518"/>
      <point x="105" y="507" type="curve"/>
      <point x="113" y="451" type="line"/>
      <point x="130" y="458"/>
      <point x="168" y="471"/>
      <point x="240" y="471" type="curve" smooth="yes"/>
      <point x="348" y="471"/>
      <point x="364" y="398"/>
      <point x="364" y="327" type="curve" smooth="yes"/>
      <point x="364" y="295" type="line"/>
      <point x="354" y="300"/>
      <point x="302" y="310"/>
      <point x="265" y="310" type="curve" smooth="yes"/>
      <point x="139" y="310"/>
      <point x="48" y="263"/>
      <point x="48" y="151" type="curve" smooth="yes"/>
      <point x="48" y="34"/>
      <point x="135" y="-11"/>
    </contour>
    <contour>
      <point x="365" y="238" type="curve"/>
      <point x="366" y="175"/>
      <point x="379" y="127"/>
      <point x="400" y="93" type="curve"/>
      <point x="381" y="76"/>
      <point x="335" y="47"/>
      <point x="252" y="47" type="curve" smooth="yes"/>
      <point x="172" y="47"/>
      <point x="115" y="73"/>
      <point x="115" y="151" type="curve" smooth="yes"/>
      <point x="115" y="239"/>
      <point x="199" y="254"/>
      <point x="263" y="254" type="curve" smooth="yes"/>
      <point x="318" y="254"/>
      <point x="351" y="244"/>
    </contour>
  </outline>
</glyph>
<glyph name="eth" format="2">
  <advance width="578"/>
  <unicode hex="00F0"/>
  <anchor x="289" y="0" name="bottom"/>
  <anchor x="289" y="776" name="top"/>
  <outline>
    <contour>
      <point x="277" y="-12" type="curve" smooth="yes"/>
      <point x="476" y="-12"/>
      <point x="518" y="169"/>
      <point x="518" y="330" type="curve" smooth="yes"/>
      <point x="518" y="448"/>
      <point x="487" y="551"/>
      <point x="433" y="634" type="curve"/>
      <point x="540" y="672" type="line"/>
      <point x="523" y="717" type="line"/>
      <point x="403" y="675" type="line"/>
      <point x="371" y="715"/>
      <point x="332" y="749"/>
      <point x="288" y="776" type="curve"/>
      <point x="245" y="737" type="line"/>
      <point x="282" y="714"/>
      <point x="316" y="685"/>
      <point x="343" y="653" type="curve"/>
      <point x="225" y="612" type="line"/>
      <point x="242" y="567" type="line"/>
      <point x="373" y="613" type="line"/>
      <point x="411" y="555"/>
      <point x="434" y="491"/>
      <point x="441" y="435" type="curve"/>
      <point x="419" y="454"/>
      <point x="365" y="487"/>
      <point x="286" y="487" type="curve" smooth="yes"/>
      <point x="149" y="487"/>
      <point x="55" y="400"/>
      <point x="55" y="245" type="curve" smooth="yes"/>
      <point x="55" y="105"/>
      <point x="139" y="-12"/>
    </contour>
    <contour>
      <point x="277" y="47" type="curve" smooth="yes"/>
      <point x="176" y="47"/>
      <point x="123" y="139"/>
      <point x="123" y="245" type="curve" smooth="yes"/>
      <point x="123" y="348"/>
      <point x="174" y="429"/>
      <point x="294" y="429" type="curve" smooth="yes"/>
      <point x="350" y="429"/>
      <point x="402" y="412"/>
      <point x="449" y="366" type="curve"/>
      <point x="450" y="354"/>
      <point x="450" y="343"/>
      <point x="450" y="331" type="curve" smooth="yes"/>
      <point x="450" y="190"/>
      <point x="420" y="47"/>
    </contour>
  </outline>
</glyph>
<glyph name="divide" format="2">
  <advance width="564"/>
  <unicode hex="00F7"/>
  <outline>
    <contour>
      <point x="281" y="51" type="curve" smooth="yes"/>
      <point x="309" y="51"/>
      <point x="329" y="72"/>
      <point x="329" y="100" type="curve" smooth="yes"/>
      <point x="329" y="129"/>
      <point x="309" y="150"/>
      <point x="281" y="150" type="curve" smooth="yes"/>
      <point x="254" y="150"/>
      <point x="234" y="129"/>
      <point x="234" y="100" type="curve" smooth="yes"/>
      <point x="234" y="72"/>
      <point x="254" y="51"/>
    </contour>
    <contour>
      <point x="281" y="427" type="curve" smooth="yes"/>
      <point x="309" y="427"/>
      <point x="329" y="448"/>
      <point x="329" y="477" type="curve" smooth="yes"/>
      <point x="329" y="505"/>
      <point x="309" y="526"/>
      <point x="281" y="526" type="curve" smooth="yes"/>
      <point x="254" y="526"/>
      <point x="234" y="505"/>
      <point x="234" y="477" type="curve" smooth="yes"/>
      <point x="234" y="448"/>
      <point x="254" y="427"/>
    </contour>
    <contour>
      <point x="56" y="261" type="line"/>
      <point x="508" y="261" type="line"/>
      <point x="508" y="317" type="line"/>
      <point x="56" y="317" type="line"/>
    </contour>
  </outline>
</glyph>
<glyph name="thorn" format="2">
  <advance width="583"/>
  <unicode hex="00FE"/>
  <anchor x="292" y="0" name="bottom"/>
  <anchor x="292" y="517" name="top"/>
  <outline>
    <contour>
      <point x="86" y="-185" type="line"/>
      <point x="151" y="-185" type="line"/>
      <point x="151" y="30" type="line"/>
      <point x="174" y="13"/>
      <point x="227" y="-12"/>
      <point x="294" y="-12" type="curve" smooth="yes"/>
      <point x="443" y="-12"/>
      <point x="528" y="99"/>
      <point x="528" y="257" type="curve" smooth="yes"/>
      <point x="528" y="423"/>
      <point x="427" y="527"/>
      <point x="278" y="527" type="curve" smooth="yes"/>
      <point x="235" y="527"/>
      <point x="192" y="518"/>
      <point x="151" y="502" type="curve"/>
      <point x="151" y="776" type="line"/>
      <point x="86" y="764" type="line"/>
    </contour>
    <contour>
      <point x="288" y="47" type="curve" smooth="yes"/>
      <point x="226" y="47"/>
      <point x="174" y="74"/>
      <point x="151" y="93" type="curve"/>
      <point x="151" y="445" type="line"/>
      <point x="165" y="452"/>
      <point x="216" y="468"/>
      <point x="272" y="468" type="curve" smooth="yes"/>
      <point x="384" y="468"/>
      <point x="459" y="392"/>
      <point x="459" y="257" type="curve" smooth="yes"/>
      <point x="459" y="142"/>
      <point x="415" y="47"/>
    </contour>
  </outline>
</glyph>
<glyph name="Aogonek" format="2">
  <advance width="641"/>
  <unicode hex="0104"/>
  <outline>
    <contour>
      <point x="581" y="-186" type="curve" smooth="yes"/>
      <point x="601" y="-186"/>
      <point x="625" y="-181"/>
      <point x="635" y="-177" type="curve"/>
      <point x="630" y="-129" type="line"/>
      <point x="619" y="-133"/>
      <point x="604" y="-135"/>
      <point x="592" y="-135" type="curve" smooth="yes"/>
      <point x="568" y="-135"/>
      <point x="550" y="-125"/>
      <point x="550" y="-101" type="curve" smooth="yes"/>
      <point x="550" y="-63"/>
      <point x="603" y="-19"/>
      <point x="630" y="2" type="curve"/>
      <point x="522" y="290"/>
      <point x="448" y="489"/>
      <point x="350" y="693" type="curve"/>
      <point x="290" y="693" type="line"/>
      <point x="192" y="489"/>
      <point x="117" y="289"/>
      <point x="10" y="0" type="curve"/>
      <point x="81" y="0" type="line"/>
      <point x="105" y="68"/>
      <point x="128" y="130"/>
      <point x="150" y="190" type="curve"/>
      <point x="487" y="190" type="line"/>
      <point x="508" y="130"/>
      <point x="531" y="67"/>
      <point x="556" y="0" type="curve"/>
      <point x="556" y="0" type="line"/>
      <point x="526" y="-24"/>
      <point x="483" y="-67"/>
      <point x="483" y="-116" type="curve" smooth="yes"/>
      <point x="483" y="-157"/>
      <point x="510" y="-186"/>
    </contour>
    <contour>
      <point x="171" y="248" type="line"/>
      <point x="221" y="384"/>
      <point x="267" y="501"/>
      <point x="318" y="615" type="curve"/>
      <point x="369" y="501"/>
      <point x="415" y="384"/>
      <point x="466" y="248" type="curve"/>
    </contour>
  </outline>
</glyph>
<glyph name="aogonek" format="2">
	<unicode hex="0105"/>
	<advance width="509"/>
	<outline>
		<contour>
			<point x="243" y="529" type="qcurve"/>
			<point x="294" y="529"/>
			<point x="365" y="500"/>
			<point x="409" y="449"/>
			<point x="429" y="379"/>
			<point x="429" y="338" type="qcurve"/>
			<point x="429" y="10" type="line"/>
			<point x="405" y="-9"/>
			<point x="380" y="-36" type="qcurve"/>
			<point x="364" y="-53"/>
			<point x="345" y="-84"/>
			<point x="345" y="-101" type="qcurve"/>
			<point x="345" y="-119"/>
			<point x="369" y="-135"/>
			<point x="387" y="-135" type="qcurve"/>
			<point x="396" y="-135"/>
			<point x="417" y="-132"/>
			<point x="425" y="-129" type="qcurve"/>
			<point x="430" y="-177" type="line"/>
			<point x="422" y="-180"/>
			<point x="391" y="-186"/>
			<point x="376" y="-186" type="qcurve"/>
			<point x="322" y="-186"/>
			<point x="278" y="-147"/>
			<point x="278" y="-116" type="qcurve"/>
			<point x="278" y="-97"/>
			<point x="291" y="-65"/>
			<point x="312" y="-37"/>
			<point x="339" y="-14"/>
			<point x="352" y="-4" type="qcurve"/>
			<point x="327" y="-7"/>
			<point x="269" y="-11"/>
			<point x="238" y="-11" type="qcurve"/>
			<point x="197" y="-11"/>
			<point x="128" y="7"/>
			<point x="77" y="46"/>
			<point x="48" y="107"/>
			<point x="48" y="151" type="qcurve"/>
			<point x="48" y="193"/>
			<point x="80" y="253"/>
			<point x="138" y="292"/>
			<point x="218" y="310"/>
			<point x="265" y="310" type="qcurve"/>
			<point x="279" y="310"/>
			<point x="310" y="307"/>
			<point x="339" y="302"/>
			<point x="360" y="297"/>
			<point x="364" y="295" type="qcurve"/>
			<point x="364" y="327" type="line"/>
			<point x="364" y="354"/>
			<point x="356" y="405"/>
			<point x="329" y="446"/>
			<point x="280" y="471"/>
			<point x="240" y="471" type="qcurve"/>
			<point x="186" y="471"/>
			<point x="126" y="456"/>
			<point x="113" y="451" type="qcurve"/>
			<point x="105" y="507" type="line"/>
			<point x="122" y="515"/>
			<point x="194" y="529"/>
		</contour>
		<contour>
			<point x="249" y="47" type="qcurve"/>
			<point x="287" y="47"/>
			<point x="344" y="52"/>
			<point x="364" y="56" type="qcurve"/>
			<point x="364" y="238" type="line"/>
			<point x="353" y="243"/>
			<point x="305" y="254"/>
			<point x="263" y="254" type="qcurve"/>
			<point x="239" y="254"/>
			<point x="187" y="247"/>
			<point x="143" y="224"/>
			<point x="115" y="184"/>
			<point x="115" y="151" type="qcurve"/>
			<point x="115" y="122"/>
			<point x="134" y="82"/>
			<point x="169" y="58"/>
			<point x="218" y="47"/>
		</contour>
	</outline>
	<guideline x="-783"/>
	<guideline x="486"/>
	<guideline y="-25"/>
</glyph>
<glyph name="Eogonek" format="2">
  <advance width="555"/>
  <unicode hex="0118"/>
  <anchor x="278" y="693" name="top"/>
  <outline>
    <contour>
      <point x="467" y="-186" type="curve" smooth="yes"/>
      <point x="487" y="-186"/>
      <point x="511" y="-181"/>
      <point x="521" y="-177" type="curve"/>
      <point x="516" y="-129" type="line"/>
      <point x="505" y="-133"/>
      <point x="490" y="-135"/>
      <point x="478" y="-135" type="curve" smooth="yes"/>
      <point x="454" y="-135"/>
      <point x="436" y="-125"/>
      <point x="436" y="-101" type="curve" smooth="yes"/>
      <point x="436" y="-63"/>
      <point x="489" y="-19"/>
      <point x="516" y="2" type="curve" smooth="yes"/>
      <point x="516" y="59" type="line"/>
      <point x="158" y="59" type="line"/>
      <point x="158" y="335" type="line"/>
      <point x="454" y="335" type="line"/>
      <point x="454" y="393" type="line"/>
      <point x="158" y="393" type="line"/>
      <point x="158" y="634" type="line"/>
      <point x="490" y="634" type="line"/>
      <point x="490" y="693" type="line"/>
      <point x="90" y="693" type="line"/>
      <point x="90" y="0" type="line"/>
      <point x="445" y="0" type="line"/>
      <point x="414" y="-22"/>
      <point x="369" y="-64"/>
      <point x="369" y="-116" type="curve" smooth="yes"/>
      <point x="369" y="-157"/>
      <point x="396" y="-186"/>
    </contour>
  </outline>
</glyph>
<glyph name="hbar" format="2">
  <advance width="569"/>
  <unicode hex="0127"/>
  <outline>
    <contour>
      <point x="151" y="0" type="line"/>
      <point x="151" y="445" type="line"/>
      <point x="163" y="451"/>
      <point x="227" y="468"/>
      <point x="272" y="468" type="curve" smooth="yes"/>
      <point x="389" y="468"/>
      <point x="424" y="414"/>
      <point x="424" y="268" type="curve" smooth="yes"/>
      <point x="424" y="0" type="line"/>
      <point x="489" y="0" type="line"/>
      <point x="489" y="289" type="line" smooth="yes"/>
      <point x="489" y="431"/>
      <point x="443" y="527"/>
      <point x="282" y="527" type="curve" smooth="yes"/>
      <point x="238" y="527"/>
      <point x="193" y="518"/>
      <point x="151" y="502" type="curve"/>
      <point x="151" y="628" type="line"/>
      <point x="338" y="628" type="line"/>
      <point x="338" y="680" type="line"/>
      <point x="151" y="680" type="line"/>
      <point x="151" y="776" type="line"/>
      <point x="86" y="764" type="line"/>
      <point x="86" y="680" type="line"/>
      <point x="6" y="680" type="line"/>
      <point x="6" y="628" type="line"/>
      <point x="86" y="628" type="line"/>
      <point x="86" y="0" type="line"/>
    </contour>
  </outline>
</glyph>
<glyph name="iogonek" format="2">
  <advance width="237"/>
  <unicode hex="012F"/>
  <outline>
    <contour>
      <point x="151" y="517" type="line"/>
      <point x="86" y="517" type="line"/>
      <point x="86" y="0" type="line"/>
      <point x="79" y="-5"/>
      <point x="72" y="-11"/>
      <point x="65" y="-17" type="curve" smooth="yes"/>
      <point x="36" y="-43"/>
      <point x="11" y="-75"/>
      <point x="11" y="-116" type="curve" smooth="yes"/>
      <point x="11" y="-157"/>
      <point x="38" y="-186"/>
      <point x="109" y="-186" type="curve" smooth="yes"/>
      <point x="129" y="-186"/>
      <point x="153" y="-181"/>
      <point x="163" y="-177" type="curve"/>
      <point x="158" y="-129" type="line"/>
      <point x="147" y="-133"/>
      <point x="132" y="-135"/>
      <point x="120" y="-135" type="curve" smooth="yes"/>
      <point x="96" y="-135"/>
      <point x="78" y="-125"/>
      <point x="78" y="-101" type="curve" smooth="yes"/>
      <point x="78" y="-78"/>
      <point x="89" y="-61"/>
      <point x="110" y="-38" type="curve" smooth="yes"/>
      <point x="125" y="-22"/>
      <point x="140" y="-10"/>
      <point x="151" y="0" type="curve"/>
    </contour>
    <contour>
      <point x="166" y="673" type="curve" smooth="yes"/>
      <point x="166" y="703"/>
      <point x="145" y="723"/>
      <point x="118" y="723" type="curve" smooth="yes"/>
      <point x="91" y="723"/>
      <point x="70" y="703"/>
      <point x="70" y="673" type="curve" smooth="yes"/>
      <point x="70" y="643"/>
      <point x="91" y="623"/>
      <point x="118" y="623" type="curve" smooth="yes"/>
      <point x="145" y="623"/>
      <point x="166" y="643"/>
    </contour>
  </outline>
</glyph>
<glyph name="dotlessi" format="2">
  <advance width="237"/>
  <unicode hex="0131"/>
  <anchor x="119" y="0" name="bottom"/>
  <anchor x="213" y="10" name="ogonek"/>
  <anchor x="119" y="517" name="top"/>
  <outline>
    <contour>
      <point x="86" y="0" type="line"/>
      <point x="151" y="0" type="line"/>
      <point x="151" y="517" type="line"/>
      <point x="86" y="517" type="line"/>
    </contour>
  </outline>
</glyph>
<glyph name="lslash" format="2">
  <advance width="255"/>
  <unicode hex="0142"/>
  <outline>
    <contour>
      <point x="155" y="439" type="line"/>
      <point x="155" y="776" type="line"/>
      <point x="90" y="764" type="line"/>
      <point x="90" y="404" type="line"/>
      <point x="13" y="364" type="line"/>
      <point x="36" y="317" type="line"/>
      <point x="90" y="345" type="line"/>
      <point x="90" y="123" type="line" smooth="yes"/>
      <point x="90" y="25"/>
      <point x="135" y="-4"/>
      <point x="222" y="-10" type="curve"/>
      <point x="231" y="44" type="line"/>
      <point x="178" y="53"/>
      <point x="155" y="60"/>
      <point x="155" y="125" type="curve"/>
      <point x="155" y="379" type="line"/>
      <point x="251" y="429" type="line"/>
      <point x="229" y="477" type="line"/>
    </contour>
  </outline>
</glyph>
<glyph name="eng" format="2">
	<unicode hex="014B"/>
	<advance width="569"/>
	<outline>
		<contour>
			<point x="424" y="268" type="line"/>
			<point x="424" y="323"/>
			<point x="409" y="399"/>
			<point x="374" y="447"/>
			<point x="317" y="468"/>
			<point x="274" y="468" type="qcurve"/>
			<point x="228" y="468"/>
			<point x="161" y="458"/>
			<point x="151" y="454" type="qcurve"/>
			<point x="151" y="0" type="line"/>
			<point x="86" y="0" type="line"/>
			<point x="86" y="499" type="line"/>
			<point x="115" y="507"/>
			<point x="213" y="527"/>
			<point x="284" y="527" type="qcurve"/>
			<point x="343" y="527"/>
			<point x="422" y="493"/>
			<point x="469" y="430"/>
			<point x="489" y="342"/>
			<point x="489" y="289" type="qcurve"/>
			<point x="489" y="-26" type="line"/>
			<point x="489" y="-60"/>
			<point x="481" y="-119"/>
			<point x="455" y="-162"/>
			<point x="406" y="-186"/>
			<point x="364" y="-186" type="qcurve"/>
			<point x="347" y="-186"/>
			<point x="319" y="-181"/>
			<point x="311" y="-178" type="qcurve"/>
			<point x="320" y="-125" type="line"/>
			<point x="332" y="-130"/>
			<point x="356" y="-130" type="qcurve"/>
			<point x="394" y="-130"/>
			<point x="424" y="-85"/>
			<point x="424" y="-37" type="qcurve"/>
		</contour>
	</outline>
	<guideline y="-187"/>
</glyph>
<glyph name="OE" format="2">
  <advance width="990"/>
  <unicode hex="0152"/>
  <outline>
    <contour>
      <point x="539" y="633" type="line"/>
      <point x="531" y="634"/>
      <point x="504" y="640"/>
      <point x="432" y="640" type="curve" smooth="yes"/>
      <point x="237" y="640"/>
      <point x="137" y="528"/>
      <point x="137" y="347" type="curve" smooth="yes"/>
      <point x="137" y="165"/>
      <point x="237" y="53"/>
      <point x="432" y="53" type="curve" smooth="yes"/>
      <point x="504" y="53"/>
      <point x="531" y="59"/>
      <point x="539" y="60" type="curve"/>
    </contour>
    <contour>
      <point x="540" y="0" type="line"/>
      <point x="507" y="-4"/>
      <point x="472" y="-6"/>
      <point x="440" y="-6" type="curve" smooth="yes"/>
      <point x="220" y="-6"/>
      <point x="65" y="111"/>
      <point x="65" y="347" type="curve" smooth="yes"/>
      <point x="65" y="582"/>
      <point x="220" y="699"/>
      <point x="440" y="699" type="curve" smooth="yes"/>
      <point x="472" y="699"/>
      <point x="507" y="697"/>
      <point x="539" y="693" type="curve"/>
      <point x="925" y="693" type="line"/>
      <point x="925" y="634" type="line"/>
      <point x="607" y="634" type="line"/>
      <point x="607" y="393" type="line"/>
      <point x="889" y="393" type="line"/>
      <point x="889" y="335" type="line"/>
      <point x="607" y="335" type="line"/>
      <point x="607" y="59" type="line"/>
      <point x="951" y="59" type="line"/>
      <point x="951" y="0" type="line"/>
    </contour>
  </outline>
</glyph>
<glyph name="oe" format="2">
	<unicode hex="0153"/>
	<advance width="944"/>
	<outline>
		<contour>
			<point x="291" y="529" type="qcurve"/>
			<point x="361" y="529"/>
			<point x="460" y="460"/>
			<point x="488" y="399" type="qcurve"/>
			<point x="517" y="464"/>
			<point x="617" y="529"/>
			<point x="677" y="529" type="qcurve"/>
			<point x="772" y="529"/>
			<point x="885" y="405"/>
			<point x="885" y="276" type="qcurve"/>
			<point x="885" y="268"/>
			<point x="884" y="252"/>
			<point x="883" y="245" type="qcurve"/>
			<point x="520" y="245" type="line"/>
			<point x="523" y="150"/>
			<point x="611" y="48"/>
			<point x="707" y="48" type="qcurve"/>
			<point x="760" y="48"/>
			<point x="822" y="68"/>
			<point x="836" y="75" type="qcurve"/>
			<point x="848" y="19" type="line"/>
			<point x="834" y="11"/>
			<point x="757" y="-11"/>
			<point x="705" y="-11" type="qcurve"/>
			<point x="615" y="-11"/>
			<point x="513" y="55"/>
			<point x="487" y="113" type="qcurve"/>
			<point x="458" y="54"/>
			<point x="360" y="-12"/>
			<point x="291" y="-12" type="qcurve"/>
			<point x="239" y="-12"/>
			<point x="153" y="27"/>
			<point x="90" y="97"/>
			<point x="55" y="197"/>
			<point x="55" y="258" type="qcurve"/>
			<point x="55" y="319"/>
			<point x="90" y="419"/>
			<point x="153" y="490"/>
			<point x="239" y="529"/>
		</contour>
		<contour>
			<point x="458" y="258" type="qcurve"/>
			<point x="458" y="355"/>
			<point x="368" y="470"/>
			<point x="291" y="470" type="qcurve"/>
			<point x="214" y="470"/>
			<point x="124" y="355"/>
			<point x="124" y="258" type="qcurve"/>
			<point x="124" y="161"/>
			<point x="214" y="47"/>
			<point x="291" y="47" type="qcurve"/>
			<point x="368" y="47"/>
			<point x="458" y="161"/>
		</contour>
		<contour>
			<point x="818" y="300" type="line"/>
			<point x="816" y="381"/>
			<point x="744" y="471"/>
			<point x="678" y="471" type="qcurve"/>
			<point x="643" y="471"/>
			<point x="588" y="443"/>
			<point x="547" y="396"/>
			<point x="524" y="334"/>
			<point x="522" y="300" type="qcurve"/>
		</contour>
	</outline>
</glyph>
<glyph name="scedilla" format="2">
  <advance width="428"/>
  <unicode hex="015F"/>
  <outline>
    <contour>
      <point x="184" y="-187" type="curve" smooth="yes"/>
      <point x="264" y="-187"/>
      <point x="282" y="-145"/>
      <point x="282" y="-112" type="curve" smooth="yes"/>
      <point x="282" y="-73"/>
      <point x="258" y="-52"/>
      <point x="221" y="-36" type="curve"/>
      <point x="224" y="-28"/>
      <point x="228" y="-19"/>
      <point x="233" y="-9" type="curve"/>
      <point x="329" y="0"/>
      <point x="388" y="48"/>
      <point x="388" y="130" type="curve" smooth="yes"/>
      <point x="388" y="228"/>
      <point x="314" y="256"/>
      <point x="235" y="288" type="curve" smooth="yes"/>
      <point x="157" y="319"/>
      <point x="114" y="337"/>
      <point x="114" y="394" type="curve" smooth="yes"/>
      <point x="114" y="449"/>
      <point x="165" y="472"/>
      <point x="223" y="472" type="curve" smooth="yes"/>
      <point x="296" y="472"/>
      <point x="331" y="454"/>
      <point x="347" y="446" type="curve"/>
      <point x="362" y="504" type="line"/>
      <point x="344" y="513"/>
      <point x="296" y="529"/>
      <point x="226" y="529" type="curve" smooth="yes"/>
      <point x="116" y="529"/>
      <point x="48" y="472"/>
      <point x="48" y="388" type="curve" smooth="yes"/>
      <point x="48" y="301"/>
      <point x="117" y="270"/>
      <point x="193" y="239" type="curve" smooth="yes"/>
      <point x="289" y="200"/>
      <point x="321" y="184"/>
      <point x="321" y="127" type="curve" smooth="yes"/>
      <point x="321" y="68"/>
      <point x="267" y="46"/>
      <point x="192" y="46" type="curve" smooth="yes"/>
      <point x="110" y="46"/>
      <point x="66" y="72"/>
      <point x="57" y="76" type="curve"/>
      <point x="40" y="17" type="line"/>
      <point x="55" y="9"/>
      <point x="100" y="-11"/>
      <point x="186" y="-12" type="curve"/>
      <point x="177" y="-29"/>
      <point x="168" y="-50"/>
      <point x="163" y="-65" type="curve"/>
      <point x="203" y="-81"/>
      <point x="221" y="-90"/>
      <point x="221" y="-112" type="curve" smooth="yes"/>
      <point x="221" y="-131"/>
      <point x="207" y="-141"/>
      <point x="180" y="-141" type="curve" smooth="yes"/>
      <point x="153" y="-141"/>
      <point x="136" y="-138"/>
      <point x="121" y="-132" type="curve"/>
      <point x="113" y="-175" type="line"/>
      <point x="125" y="-181"/>
      <point x="157" y="-187"/>
    </contour>
  </outline>
</glyph>
<glyph name="uni0162" format="2">
  <advance width="548"/>
  <unicode hex="0162"/>
  <outline>
    <contour>
      <point x="281" y="-36" type="curve"/>
      <point x="285" y="-26"/>
      <point x="291" y="-12"/>
      <point x="298" y="0" type="curve"/>
      <point x="308" y="0" type="line"/>
      <point x="308" y="634" type="line"/>
      <point x="530" y="634" type="line"/>
      <point x="530" y="693" type="line"/>
      <point x="18" y="693" type="line"/>
      <point x="18" y="634" type="line"/>
      <point x="240" y="634" type="line"/>
      <point x="240" y="0" type="line"/>
      <point x="252" y="0" type="line"/>
      <point x="242" y="-19"/>
      <point x="229" y="-46"/>
      <point x="223" y="-65" type="curve"/>
      <point x="263" y="-81"/>
      <point x="281" y="-90"/>
      <point x="281" y="-112" type="curve" smooth="yes"/>
      <point x="281" y="-131"/>
      <point x="267" y="-141"/>
      <point x="240" y="-141" type="curve" smooth="yes"/>
      <point x="213" y="-141"/>
      <point x="196" y="-138"/>
      <point x="181" y="-132" type="curve"/>
      <point x="173" y="-175" type="line"/>
      <point x="185" y="-181"/>
      <point x="217" y="-187"/>
      <point x="244" y="-187" type="curve" smooth="yes"/>
      <point x="324" y="-187"/>
      <point x="342" y="-145"/>
      <point x="342" y="-112" type="curve" smooth="yes"/>
      <point x="342" y="-73"/>
      <point x="318" y="-52"/>
    </contour>
  </outline>
</glyph>
<glyph name="uni0163" format="2">
	<unicode hex="0163"/>
	<advance width="387"/>
	<outline>
		<contour>
			<point x="243" y="-36" type="qcurve"/>
			<point x="271" y="-48"/>
			<point x="304" y="-83"/>
			<point x="304" y="-112" type="qcurve"/>
			<point x="304" y="-124"/>
			<point x="296" y="-151"/>
			<point x="274" y="-173"/>
			<point x="236" y="-187"/>
			<point x="206" y="-187" type="qcurve"/>
			<point x="186" y="-187"/>
			<point x="144" y="-180"/>
			<point x="135" y="-175" type="qcurve"/>
			<point x="143" y="-132" type="line"/>
			<point x="154" y="-137"/>
			<point x="182" y="-141"/>
			<point x="202" y="-141" type="qcurve"/>
			<point x="243" y="-141"/>
			<point x="243" y="-112" type="qcurve"/>
			<point x="243" y="-95"/>
			<point x="215" y="-77"/>
			<point x="185" y="-65" type="qcurve"/>
			<point x="188" y="-55"/>
			<point x="200" y="-29"/>
			<point x="206" y="-17" type="qcurve"/>
			<point x="208" y="-12"/>
			<point x="210" y="-8" type="qcurve"/>
			<point x="187" y="-5"/>
			<point x="169" y="1" type="qcurve"/>
			<point x="137" y="14"/>
			<point x="98" y="65"/>
			<point x="82" y="141"/>
			<point x="82" y="193" type="qcurve"/>
			<point x="82" y="669" type="line"/>
			<point x="147" y="681" type="line"/>
			<point x="147" y="517" type="line"/>
			<point x="353" y="517" type="line"/>
			<point x="353" y="462" type="line"/>
			<point x="147" y="462" type="line"/>
			<point x="147" y="187" type="line"/>
			<point x="147" y="143"/>
			<point x="162" y="88"/>
			<point x="190" y="58"/>
			<point x="230" y="48"/>
			<point x="254" y="48" type="qcurve"/>
			<point x="295" y="48"/>
			<point x="345" y="67"/>
			<point x="359" y="75" type="qcurve"/>
			<point x="375" y="21" type="line"/>
			<point x="361" y="12"/>
			<point x="326" y="0" type="qcurve"/>
			<point x="293" y="-10"/>
			<point x="254" y="-11" type="qcurve"/>
			<point x="247" y="-25"/>
		</contour>
	</outline>
	<guideline y="-11"/>
</glyph>
<glyph name="tbar" format="2">
  <advance width="387"/>
  <unicode hex="0167"/>
  <outline>
    <contour>
      <point x="250" y="-11" type="curve" smooth="yes"/>
      <point x="305" y="-11"/>
      <point x="356" y="9"/>
      <point x="375" y="21" type="curve"/>
      <point x="359" y="75" type="line"/>
      <point x="340" y="65"/>
      <point x="308" y="48"/>
      <point x="254" y="48" type="curve" smooth="yes"/>
      <point x="189" y="48"/>
      <point x="147" y="69"/>
      <point x="147" y="187" type="curve" smooth="yes"/>
      <point x="147" y="245" type="line"/>
      <point x="349" y="245" type="line"/>
      <point x="349" y="298" type="line"/>
      <point x="147" y="298" type="line"/>
      <point x="147" y="462" type="line"/>
      <point x="353" y="462" type="line"/>
      <point x="353" y="517" type="line"/>
      <point x="147" y="517" type="line"/>
      <point x="147" y="681" type="line"/>
      <point x="82" y="669" type="line"/>
      <point x="82" y="193" type="line" smooth="yes"/>
      <point x="82" y="55"/>
      <point x="121" y="-11"/>
    </contour>
  </outline>
</glyph>
<glyph name="uni0181" format="2">
	<unicode hex="0181"/>
	<advance width="712"/>
	<outline>
		<contour>
			<point x="345" y="699" type="qcurve"/>
			<point x="401" y="699"/>
			<point x="502" y="681"/>
			<point x="578" y="639"/>
			<point x="623" y="570"/>
			<point x="623" y="519" type="qcurve"/>
			<point x="623" y="463"/>
			<point x="566" y="384"/>
			<point x="518" y="369" type="qcurve"/>
			<point x="548" y="362"/>
			<point x="598" y="336"/>
			<point x="636" y="295"/>
			<point x="657" y="236"/>
			<point x="657" y="195" type="qcurve"/>
			<point x="657" y="97"/>
			<point x="501" y="-6"/>
			<point x="338" y="-6" type="qcurve"/>
			<point x="321" y="-6"/>
			<point x="276" y="-3"/>
			<point x="229" y="2"/>
			<point x="187" y="9"/>
			<point x="172" y="13" type="qcurve"/>
			<point x="172" y="635" type="line"/>
			<point x="123" y="632"/>
			<point x="79" y="582"/>
			<point x="79" y="535" type="qcurve"/>
			<point x="79" y="530"/>
			<point x="80" y="512"/>
			<point x="82" y="503" type="qcurve"/>
			<point x="26" y="495" type="line"/>
			<point x="24" y="503"/>
			<point x="20" y="534"/>
			<point x="20" y="543" type="qcurve"/>
			<point x="20" y="594"/>
			<point x="63" y="655"/>
			<point x="146" y="688"/>
			<point x="267" y="699"/>
		</contour>
		<contour>
			<point x="240" y="332" type="line"/>
			<point x="240" y="59" type="line"/>
			<point x="255" y="57"/>
			<point x="315" y="52"/>
			<point x="346" y="52" type="qcurve"/>
			<point x="392" y="52"/>
			<point x="479" y="64"/>
			<point x="545" y="96"/>
			<point x="585" y="152"/>
			<point x="585" y="196" type="qcurve"/>
			<point x="585" y="236"/>
			<point x="557" y="289"/>
			<point x="505" y="320"/>
			<point x="430" y="332"/>
			<point x="384" y="332" type="qcurve"/>
		</contour>
		<contour>
			<point x="345" y="641" type="qcurve"/>
			<point x="317" y="641"/>
			<point x="257" y="640"/>
			<point x="240" y="638" type="qcurve"/>
			<point x="240" y="390" type="line"/>
			<point x="372" y="390" type="line"/>
			<point x="409" y="390"/>
			<point x="475" y="401"/>
			<point x="524" y="430"/>
			<point x="552" y="479"/>
			<point x="552" y="517" type="qcurve"/>
			<point x="552" y="551"/>
			<point x="522" y="598"/>
			<point x="467" y="628"/>
			<point x="391" y="641"/>
		</contour>
	</outline>
	<guideline y="578"/>
	<guideline y="635"/>
</glyph>
<glyph name="uni018A" format="2">
  <advance width="784"/>
  <unicode hex="018A"/>
  <outline>
    <contour>
      <point x="341" y="699" type="curve" smooth="yes"/>
      <point x="137" y="699"/>
      <point x="20" y="679"/>
      <point x="20" y="543" type="curve" smooth="yes"/>
      <point x="20" y="531"/>
      <point x="23" y="506"/>
      <point x="26" y="495" type="curve"/>
      <point x="82" y="503" type="line"/>
      <point x="80" y="515"/>
      <point x="79" y="528"/>
      <point x="79" y="535" type="curve" smooth="yes"/>
      <point x="79" y="597"/>
      <point x="107" y="631"/>
      <point x="172" y="635" type="curve"/>
      <point x="172" y="12" type="line"/>
      <point x="218" y="0"/>
      <point x="285" y="-6"/>
      <point x="341" y="-6" type="curve" smooth="yes"/>
      <point x="565" y="-6"/>
      <point x="722" y="111"/>
      <point x="722" y="347" type="curve" smooth="yes"/>
      <point x="722" y="582"/>
      <point x="565" y="699"/>
    </contour>
    <contour>
      <point x="345" y="640" type="curve"/>
      <point x="548" y="640"/>
      <point x="650" y="528"/>
      <point x="650" y="347" type="curve" smooth="yes"/>
      <point x="650" y="165"/>
      <point x="548" y="53"/>
      <point x="349" y="53" type="curve" smooth="yes"/>
      <point x="277" y="53"/>
      <point x="248" y="59"/>
      <point x="240" y="60" type="curve"/>
      <point x="240" y="638" type="line"/>
      <point x="263" y="640"/>
      <point x="308" y="640"/>
    </contour>
  </outline>
</glyph>
<glyph name="uni018D" format="2">
  <advance width="572"/>
  <unicode hex="018D"/>
  <outline>
    <contour>
      <point x="517" y="289" type="curve" smooth="yes"/>
      <point x="517" y="401"/>
      <point x="454" y="530"/>
      <point x="286" y="530" type="curve" smooth="yes"/>
      <point x="121" y="530"/>
      <point x="55" y="410"/>
      <point x="55" y="284" type="curve" smooth="yes"/>
      <point x="55" y="138"/>
      <point x="155" y="74"/>
      <point x="245" y="32" type="curve" smooth="yes"/>
      <point x="320" y="-3"/>
      <point x="365" y="-20"/>
      <point x="365" y="-68" type="curve" smooth="yes"/>
      <point x="365" y="-117"/>
      <point x="315" y="-130"/>
      <point x="250" y="-130" type="curve" smooth="yes"/>
      <point x="176" y="-130"/>
      <point x="131" y="-113"/>
      <point x="120" y="-107" type="curve"/>
      <point x="106" y="-160" type="line"/>
      <point x="122" y="-167"/>
      <point x="180" y="-185"/>
      <point x="249" y="-185" type="curve" smooth="yes"/>
      <point x="331" y="-185"/>
      <point x="430" y="-161"/>
      <point x="430" y="-67" type="curve" smooth="yes"/>
      <point x="430" y="-12"/>
      <point x="404" y="19"/>
      <point x="348" y="49" type="curve"/>
      <point x="446" y="90"/>
      <point x="517" y="182"/>
    </contour>
    <contour>
      <point x="293" y="75" type="curve"/>
      <point x="223" y="106"/>
      <point x="124" y="151"/>
      <point x="124" y="286" type="curve" smooth="yes"/>
      <point x="124" y="399"/>
      <point x="179" y="471"/>
      <point x="286" y="471" type="curve" smooth="yes"/>
      <point x="408" y="471"/>
      <point x="448" y="375"/>
      <point x="448" y="288" type="curve" smooth="yes"/>
      <point x="448" y="178"/>
      <point x="374" y="111"/>
    </contour>
  </outline>
</glyph>
<glyph name="uni0191" format="2">
	<unicode hex="0191"/>
	<advance width="520"/>
	<outline>
		<contour>
			<point x="158" y="-26" type="line"/>
			<point x="158" y="-60"/>
			<point x="149" y="-119"/>
			<point x="121" y="-162"/>
			<point x="71" y="-187"/>
			<point x="29" y="-187" type="qcurve"/>
			<point x="12" y="-187"/>
			<point x="-17" y="-181"/>
			<point x="-25" y="-178" type="qcurve"/>
			<point x="-16" y="-124" type="line"/>
			<point x="-11" y="-126"/>
			<point x="9" y="-130"/>
			<point x="21" y="-130" type="qcurve"/>
			<point x="59" y="-130"/>
			<point x="90" y="-85"/>
			<point x="90" y="-37" type="qcurve"/>
			<point x="90" y="693" type="line"/>
			<point x="485" y="693" type="line"/>
			<point x="485" y="634" type="line"/>
			<point x="158" y="634" type="line"/>
			<point x="158" y="390" type="line"/>
			<point x="448" y="390" type="line"/>
			<point x="448" y="331" type="line"/>
			<point x="158" y="331" type="line"/>
		</contour>
	</outline>
</glyph>
<glyph name="uni0194" format="2">
  <advance width="624"/>
  <unicode hex="0194"/>
  <anchor x="312" y="0" name="bottom"/>
  <anchor x="312" y="693" name="top"/>
  <outline>
    <contour>
      <point x="313" y="-184" type="curve" smooth="yes"/>
      <point x="424" y="-184"/>
      <point x="443" y="-99"/>
      <point x="443" y="-55" type="curve" smooth="yes"/>
      <point x="443" y="12"/>
      <point x="397" y="74"/>
      <point x="361" y="135" type="curve"/>
      <point x="348" y="156" type="line"/>
      <point x="434" y="303"/>
      <point x="541" y="513"/>
      <point x="614" y="693" type="curve"/>
      <point x="542" y="693" type="line"/>
      <point x="473" y="536"/>
      <point x="398" y="368"/>
      <point x="313" y="212" type="curve"/>
      <point x="231" y="363"/>
      <point x="156" y="530"/>
      <point x="86" y="693" type="curve"/>
      <point x="10" y="693" type="line"/>
      <point x="96" y="492"/>
      <point x="188" y="301"/>
      <point x="275" y="152" type="curve"/>
      <point x="265" y="135" type="line"/>
      <point x="230" y="73"/>
      <point x="183" y="12"/>
      <point x="183" y="-55" type="curve" smooth="yes"/>
      <point x="183" y="-99"/>
      <point x="202" y="-184"/>
    </contour>
    <contour>
      <point x="312" y="-126" type="curve" smooth="yes"/>
      <point x="266" y="-126"/>
      <point x="245" y="-92"/>
      <point x="245" y="-54" type="curve"/>
      <point x="245" y="-1"/>
      <point x="283" y="56"/>
      <point x="312" y="102" type="curve"/>
      <point x="341" y="56"/>
      <point x="379" y="-1"/>
      <point x="379" y="-54" type="curve" smooth="yes"/>
      <point x="379" y="-92"/>
      <point x="358" y="-126"/>
    </contour>
  </outline>
</glyph>
<glyph name="uni0195" format="2">
  <advance width="884"/>
  <unicode hex="0195"/>
  <outline>
    <contour>
      <point x="475" y="287" type="line" smooth="yes"/>
      <point x="475" y="429"/>
      <point x="435" y="527"/>
      <point x="280" y="527" type="curve" smooth="yes"/>
      <point x="236" y="527"/>
      <point x="193" y="518"/>
      <point x="151" y="502" type="curve"/>
      <point x="151" y="776" type="line"/>
      <point x="86" y="764" type="line"/>
      <point x="86" y="0" type="line"/>
      <point x="151" y="0" type="line"/>
      <point x="151" y="445" type="line"/>
      <point x="163" y="451"/>
      <point x="222" y="468"/>
      <point x="270" y="468" type="curve" smooth="yes"/>
      <point x="381" y="468"/>
      <point x="410" y="412"/>
      <point x="410" y="266" type="curve" smooth="yes"/>
      <point x="410" y="221" type="line"/>
      <point x="410" y="88"/>
      <point x="452" y="-11"/>
      <point x="607" y="-11" type="curve" smooth="yes"/>
      <point x="762" y="-11"/>
      <point x="804" y="88"/>
      <point x="804" y="221" type="curve" smooth="yes"/>
      <point x="804" y="517" type="line"/>
      <point x="739" y="517" type="line"/>
      <point x="739" y="227" type="line" smooth="yes"/>
      <point x="739" y="97"/>
      <point x="695" y="49"/>
      <point x="607" y="49" type="curve" smooth="yes"/>
      <point x="519" y="49"/>
      <point x="475" y="97"/>
      <point x="475" y="227" type="curve"/>
    </contour>
  </outline>
</glyph>
<glyph name="uni0196" format="2">
  <advance width="362"/>
  <unicode hex="0196"/>
  <outline>
    <contour>
      <point x="88" y="168" type="line"/>
      <point x="88" y="27"/>
      <point x="145" y="-15"/>
      <point x="245" y="-15" type="curve" smooth="yes"/>
      <point x="291" y="-15"/>
      <point x="336" y="-1"/>
      <point x="349" y="6" type="curve"/>
      <point x="333" y="62" type="line"/>
      <point x="321" y="55"/>
      <point x="290" y="46"/>
      <point x="255" y="46" type="curve" smooth="yes"/>
      <point x="194" y="46"/>
      <point x="156" y="66"/>
      <point x="156" y="165" type="curve" smooth="yes"/>
      <point x="156" y="693" type="line"/>
      <point x="88" y="693" type="line"/>
    </contour>
  </outline>
</glyph>
<glyph name="uni0198" format="2">
  <advance width="650"/>
  <unicode hex="0198"/>
  <anchor x="325" y="0" name="bottom"/>
  <anchor x="325" y="693" name="top"/>
  <outline>
    <contour>
      <point x="90" y="0" type="line"/>
      <point x="158" y="0" type="line"/>
      <point x="158" y="343" type="line"/>
      <point x="278" y="277"/>
      <point x="423" y="139"/>
      <point x="513" y="0" type="curve"/>
      <point x="589" y="0" type="line"/>
      <point x="531" y="111"/>
      <point x="353" y="296"/>
      <point x="233" y="369" type="curve"/>
      <point x="293" y="441"/>
      <point x="356" y="516"/>
      <point x="442" y="603" type="curve" smooth="yes"/>
      <point x="477" y="638"/>
      <point x="499" y="649"/>
      <point x="526" y="649" type="curve" smooth="yes"/>
      <point x="556" y="649"/>
      <point x="580" y="631"/>
      <point x="594" y="615" type="curve"/>
      <point x="628" y="661" type="line"/>
      <point x="612" y="678"/>
      <point x="582" y="707"/>
      <point x="527" y="707" type="curve" smooth="yes"/>
      <point x="471" y="707"/>
      <point x="435" y="678"/>
      <point x="399" y="640" type="curve" smooth="yes"/>
      <point x="320" y="555"/>
      <point x="216" y="437"/>
      <point x="158" y="364" type="curve"/>
      <point x="158" y="693" type="line"/>
      <point x="90" y="693" type="line"/>
    </contour>
  </outline>
</glyph>
<glyph name="uni019A" format="2">
	<unicode hex="019A"/>
	<advance width="260"/>
	<outline>
		<contour>
			<point x="226" y="-10" type="line"/>
			<point x="193" y="-8"/>
			<point x="144" y="7"/>
			<point x="111" y="37"/>
			<point x="94" y="86"/>
			<point x="94" y="123" type="qcurve"/>
			<point x="94" y="376" type="line"/>
			<point x="17" y="376" type="line"/>
			<point x="17" y="429" type="line"/>
			<point x="94" y="429" type="line"/>
			<point x="94" y="764" type="line"/>
			<point x="159" y="776" type="line"/>
			<point x="159" y="429" type="line"/>
			<point x="252" y="429" type="line"/>
			<point x="252" y="376" type="line"/>
			<point x="159" y="376" type="line"/>
			<point x="159" y="125" type="line"/>
			<point x="159" y="101"/>
			<point x="168" y="72"/>
			<point x="186" y="55"/>
			<point x="215" y="47"/>
			<point x="235" y="44" type="qcurve"/>
		</contour>
	</outline>
</glyph>
<glyph name="uni019B" format="2">
  <advance width="492"/>
  <unicode hex="019B"/>
  <outline>
    <contour>
      <point x="260" y="455" type="curve"/>
      <point x="316" y="304"/>
      <point x="368" y="139"/>
      <point x="403" y="0" type="curve"/>
      <point x="471" y="0" type="line"/>
      <point x="420" y="181"/>
      <point x="359" y="377"/>
      <point x="267" y="607" type="curve"/>
      <point x="389" y="648" type="line"/>
      <point x="370" y="701" type="line"/>
      <point x="246" y="659" type="line"/>
      <point x="219" y="719"/>
      <point x="181" y="776"/>
      <point x="95" y="776" type="curve" smooth="yes"/>
      <point x="66" y="776"/>
      <point x="43" y="771"/>
      <point x="33" y="767" type="curve"/>
      <point x="44" y="713" type="line"/>
      <point x="51" y="716"/>
      <point x="64" y="720"/>
      <point x="82" y="720" type="curve" smooth="yes"/>
      <point x="135" y="720"/>
      <point x="156" y="703"/>
      <point x="186" y="639" type="curve"/>
      <point x="79" y="603" type="line"/>
      <point x="98" y="550" type="line"/>
      <point x="209" y="587" type="line"/>
      <point x="217" y="569"/>
      <point x="225" y="548"/>
      <point x="233" y="526" type="curve"/>
      <point x="140" y="355"/>
      <point x="50" y="132"/>
      <point x="19" y="0" type="curve"/>
      <point x="85" y="0" type="line"/>
      <point x="114" y="119"/>
      <point x="170" y="286"/>
    </contour>
  </outline>
</glyph>
<glyph name="ohorn" format="2">
	<unicode hex="01A1"/>
	<advance width="587"/>
	<outline>
		<contour>
			<point x="527" y="258" type="qcurve"/>
			<point x="527" y="197"/>
			<point x="492" y="97"/>
			<point x="429" y="27"/>
			<point x="343" y="-12"/>
			<point x="291" y="-12" type="qcurve"/>
			<point x="239" y="-12"/>
			<point x="153" y="27"/>
			<point x="90" y="97"/>
			<point x="55" y="197"/>
			<point x="55" y="258" type="qcurve"/>
			<point x="55" y="319"/>
			<point x="90" y="419"/>
			<point x="153" y="490"/>
			<point x="239" y="529"/>
			<point x="291" y="529" type="qcurve"/>
			<point x="339" y="529"/>
			<point x="420" y="495"/>
			<point x="451" y="464" type="qcurve"/>
			<point x="479" y="490"/>
			<point x="503" y="548"/>
			<point x="503" y="590" type="qcurve"/>
			<point x="503" y="599"/>
			<point x="501" y="622"/>
			<point x="500" y="625" type="qcurve"/>
			<point x="565" y="625" type="line"/>
			<point x="566" y="619"/>
			<point x="567" y="603"/>
			<point x="567" y="598" type="qcurve"/>
			<point x="567" y="551"/>
			<point x="534" y="457"/>
			<point x="485" y="420" type="qcurve"/>
			<point x="505" y="388"/>
			<point x="527" y="306"/>
		</contour>
		<contour>
			<point x="458" y="258" type="qcurve"/>
			<point x="458" y="355"/>
			<point x="368" y="470"/>
			<point x="291" y="470" type="qcurve"/>
			<point x="214" y="470"/>
			<point x="124" y="355"/>
			<point x="124" y="258" type="qcurve"/>
			<point x="124" y="161"/>
			<point x="214" y="47"/>
			<point x="291" y="47" type="qcurve"/>
			<point x="368" y="47"/>
			<point x="458" y="161"/>
		</contour>
	</outline>
</glyph>
<glyph name="uni01A3" format="2">
  <advance width="799"/>
  <unicode hex="01A3"/>
  <outline>
    <contour>
      <point x="654" y="-185" type="line"/>
      <point x="719" y="-185" type="line"/>
      <point x="719" y="303" type="line" smooth="yes"/>
      <point x="719" y="439"/>
      <point x="695" y="528"/>
      <point x="554" y="528" type="curve" smooth="yes"/>
      <point x="497" y="528"/>
      <point x="451" y="499"/>
      <point x="426" y="479" type="curve"/>
      <point x="388" y="511"/>
      <point x="340" y="529"/>
      <point x="286" y="529" type="curve" smooth="yes"/>
      <point x="151" y="529"/>
      <point x="55" y="421"/>
      <point x="55" y="258" type="curve" smooth="yes"/>
      <point x="55" y="95"/>
      <point x="151" y="-12"/>
      <point x="286" y="-12" type="curve" smooth="yes"/>
      <point x="421" y="-12"/>
      <point x="517" y="95"/>
      <point x="517" y="258" type="curve" smooth="yes"/>
      <point x="517" y="330"/>
      <point x="498" y="392"/>
      <point x="465" y="438" type="curve"/>
      <point x="482" y="452"/>
      <point x="510" y="471"/>
      <point x="550" y="471" type="curve" smooth="yes"/>
      <point x="635" y="471"/>
      <point x="654" y="409"/>
      <point x="654" y="294" type="curve" smooth="yes"/>
    </contour>
    <contour>
      <point x="286" y="47" type="curve" smooth="yes"/>
      <point x="186" y="47"/>
      <point x="124" y="129"/>
      <point x="124" y="258" type="curve" smooth="yes"/>
      <point x="124" y="387"/>
      <point x="186" y="470"/>
      <point x="286" y="470" type="curve" smooth="yes"/>
      <point x="386" y="470"/>
      <point x="448" y="387"/>
      <point x="448" y="258" type="curve" smooth="yes"/>
      <point x="448" y="129"/>
      <point x="386" y="47"/>
    </contour>
  </outline>
</glyph>
<glyph name="uni01A5" format="2">
  <advance width="583"/>
  <unicode hex="01A5"/>
  <outline>
    <contour>
      <point x="151" y="627" type="line" smooth="yes"/>
      <point x="151" y="691"/>
      <point x="168" y="720"/>
      <point x="219" y="720" type="curve" smooth="yes"/>
      <point x="235" y="720"/>
      <point x="248" y="718"/>
      <point x="255" y="715" type="curve"/>
      <point x="264" y="768" type="line"/>
      <point x="254" y="772"/>
      <point x="233" y="776"/>
      <point x="211" y="776" type="curve" smooth="yes"/>
      <point x="100" y="776"/>
      <point x="86" y="707"/>
      <point x="86" y="616" type="curve"/>
      <point x="86" y="-185" type="line"/>
      <point x="151" y="-185" type="line"/>
      <point x="151" y="30" type="line"/>
      <point x="174" y="13"/>
      <point x="227" y="-12"/>
      <point x="294" y="-12" type="curve" smooth="yes"/>
      <point x="443" y="-12"/>
      <point x="528" y="99"/>
      <point x="528" y="257" type="curve" smooth="yes"/>
      <point x="528" y="423"/>
      <point x="427" y="527"/>
      <point x="278" y="527" type="curve"/>
      <point x="235" y="527"/>
      <point x="192" y="518"/>
      <point x="151" y="502" type="curve"/>
    </contour>
    <contour>
      <point x="151" y="445" type="line"/>
      <point x="163" y="451"/>
      <point x="227" y="468"/>
      <point x="272" y="468" type="curve"/>
      <point x="384" y="468"/>
      <point x="459" y="392"/>
      <point x="459" y="257" type="curve" smooth="yes"/>
      <point x="459" y="142"/>
      <point x="415" y="47"/>
      <point x="288" y="47" type="curve" smooth="yes"/>
      <point x="226" y="47"/>
      <point x="174" y="74"/>
      <point x="151" y="93" type="curve"/>
    </contour>
  </outline>
</glyph>
<glyph name="uni01A7" format="2">
  <advance width="517"/>
  <unicode hex="01A7"/>
  <outline>
    <contour>
      <point x="277" y="-15" type="curve" smooth="yes"/>
      <point x="383" y="-15"/>
      <point x="457" y="17"/>
      <point x="483" y="32" type="curve"/>
      <point x="461" y="91" type="line"/>
      <point x="434" y="76"/>
      <point x="371" y="44"/>
      <point x="278" y="44" type="curve" smooth="yes"/>
      <point x="171" y="44"/>
      <point x="107" y="81"/>
      <point x="107" y="169" type="curve" smooth="yes"/>
      <point x="107" y="271"/>
      <point x="189" y="296"/>
      <point x="279" y="332" type="curve" smooth="yes"/>
      <point x="394" y="378"/>
      <point x="464" y="422"/>
      <point x="464" y="527" type="curve" smooth="yes"/>
      <point x="464" y="645"/>
      <point x="384" y="708"/>
      <point x="243" y="708" type="curve" smooth="yes"/>
      <point x="168" y="708"/>
      <point x="95" y="685"/>
      <point x="60" y="662" type="curve"/>
      <point x="84" y="605" type="line"/>
      <point x="122" y="632"/>
      <point x="181" y="649"/>
      <point x="244" y="649" type="curve" smooth="yes"/>
      <point x="331" y="649"/>
      <point x="395" y="615"/>
      <point x="395" y="532" type="curve" smooth="yes"/>
      <point x="395" y="447"/>
      <point x="328" y="421"/>
      <point x="237" y="384" type="curve" smooth="yes"/>
      <point x="128" y="340"/>
      <point x="36" y="301"/>
      <point x="36" y="173" type="curve" smooth="yes"/>
      <point x="36" y="48"/>
      <point x="126" y="-15"/>
    </contour>
  </outline>
</glyph>
<glyph name="uni01A8" format="2">
  <advance width="428"/>
  <unicode hex="01A8"/>
  <outline>
    <contour>
      <point x="235" y="-12" type="curve" smooth="yes"/>
      <point x="325" y="-12"/>
      <point x="372" y="9"/>
      <point x="388" y="17" type="curve"/>
      <point x="371" y="76" type="line"/>
      <point x="362" y="71"/>
      <point x="316" y="46"/>
      <point x="236" y="46" type="curve" smooth="yes"/>
      <point x="161" y="46"/>
      <point x="106" y="68"/>
      <point x="106" y="127" type="curve" smooth="yes"/>
      <point x="106" y="184"/>
      <point x="139" y="200"/>
      <point x="235" y="239" type="curve" smooth="yes"/>
      <point x="311" y="270"/>
      <point x="380" y="301"/>
      <point x="380" y="388" type="curve" smooth="yes"/>
      <point x="380" y="476"/>
      <point x="315" y="529"/>
      <point x="205" y="529" type="curve" smooth="yes"/>
      <point x="135" y="529"/>
      <point x="84" y="513"/>
      <point x="66" y="504" type="curve"/>
      <point x="81" y="446" type="line"/>
      <point x="97" y="454"/>
      <point x="132" y="472"/>
      <point x="205" y="472" type="curve" smooth="yes"/>
      <point x="263" y="472"/>
      <point x="314" y="449"/>
      <point x="314" y="394" type="curve" smooth="yes"/>
      <point x="314" y="337"/>
      <point x="275" y="319"/>
      <point x="197" y="288" type="curve" smooth="yes"/>
      <point x="118" y="256"/>
      <point x="40" y="227"/>
      <point x="40" y="130" type="curve" smooth="yes"/>
      <point x="40" y="37"/>
      <point x="108" y="-12"/>
    </contour>
  </outline>
</glyph>
<glyph name="uni01AA" format="2">
  <advance width="299"/>
  <unicode hex="01AA"/>
  <outline>
    <contour>
      <point x="280" y="-187" type="curve"/>
      <point x="289" y="-133" type="line"/>
      <point x="236" y="-124"/>
      <point x="213" y="-117"/>
      <point x="213" y="-52" type="curve" smooth="yes"/>
      <point x="213" y="610" type="line"/>
      <point x="213" y="697"/>
      <point x="184" y="776"/>
      <point x="69" y="776" type="curve" smooth="yes"/>
      <point x="-6" y="776"/>
      <point x="-64" y="726"/>
      <point x="-64" y="642" type="curve" smooth="yes"/>
      <point x="-64" y="567"/>
      <point x="-15" y="509"/>
      <point x="60" y="509" type="curve" smooth="yes"/>
      <point x="92" y="509"/>
      <point x="123" y="521"/>
      <point x="148" y="546" type="curve" smooth="yes"/>
      <point x="148" y="-54" type="line" smooth="yes"/>
      <point x="148" y="-152"/>
      <point x="193" y="-181"/>
    </contour>
    <contour>
      <point x="70" y="564" type="curve" smooth="yes"/>
      <point x="20" y="564"/>
      <point x="-3" y="600"/>
      <point x="-3" y="642" type="curve" smooth="yes"/>
      <point x="-3" y="686"/>
      <point x="19" y="720"/>
      <point x="69" y="720" type="curve" smooth="yes"/>
      <point x="116" y="720"/>
      <point x="148" y="692"/>
      <point x="148" y="633" type="curve" smooth="yes"/>
      <point x="148" y="611" type="line"/>
      <point x="126" y="584"/>
      <point x="107" y="564"/>
    </contour>
  </outline>
</glyph>
<glyph name="uni01AC" format="2">
	<unicode hex="01AC"/>
	<advance width="563"/>
	<outline>
		<contour>
			<point x="177" y="634" type="line"/>
			<point x="128" y="634"/>
			<point x="79" y="582"/>
			<point x="79" y="535" type="qcurve"/>
			<point x="79" y="530"/>
			<point x="80" y="512"/>
			<point x="82" y="503" type="qcurve"/>
			<point x="26" y="495" type="line"/>
			<point x="24" y="503"/>
			<point x="20" y="534"/>
			<point x="20" y="543" type="qcurve"/>
			<point x="20" y="587"/>
			<point x="49" y="645"/>
			<point x="100" y="679"/>
			<point x="168" y="693"/>
			<point x="208" y="693" type="qcurve"/>
			<point x="545" y="693" type="line"/>
			<point x="545" y="634" type="line"/>
			<point x="323" y="634" type="line"/>
			<point x="323" y="0" type="line"/>
			<point x="255" y="0" type="line"/>
			<point x="255" y="634" type="line"/>
		</contour>
	</outline>
</glyph>
<glyph name="Uhorn" format="2">
  <advance width="693"/>
  <unicode hex="01AF"/>
  <anchor x="347" y="0" name="bottom"/>
  <anchor x="347" y="693" name="top"/>
  <outline>
    <contour>
      <point x="340" y="-15" type="curve" smooth="yes"/>
      <point x="525" y="-15"/>
      <point x="593" y="105"/>
      <point x="593" y="257" type="curve" smooth="yes"/>
      <point x="593" y="639" type="line"/>
      <point x="689" y="644"/>
      <point x="717" y="713"/>
      <point x="717" y="774" type="curve" smooth="yes"/>
      <point x="717" y="780"/>
      <point x="716" y="793"/>
      <point x="715" y="801" type="curve"/>
      <point x="650" y="801" type="line"/>
      <point x="651" y="797"/>
      <point x="653" y="778"/>
      <point x="653" y="766" type="curve" smooth="yes"/>
      <point x="653" y="711"/>
      <point x="620" y="693"/>
      <point x="589" y="693" type="curve" smooth="yes"/>
      <point x="525" y="693" type="line"/>
      <point x="525" y="266" type="line" smooth="yes"/>
      <point x="525" y="114"/>
      <point x="451" y="46"/>
      <point x="340" y="46" type="curve" smooth="yes"/>
      <point x="229" y="46"/>
      <point x="155" y="114"/>
      <point x="155" y="266" type="curve" smooth="yes"/>
      <point x="155" y="693" type="line"/>
      <point x="87" y="693" type="line"/>
      <point x="87" y="257" type="line" smooth="yes"/>
      <point x="87" y="105"/>
      <point x="155" y="-15"/>
    </contour>
  </outline>
</glyph>
<glyph name="uhorn" format="2">
  <advance width="584"/>
  <unicode hex="01B0"/>
  <outline>
    <contour>
      <point x="483" y="463" type="line"/>
      <point x="579" y="468"/>
      <point x="607" y="537"/>
      <point x="607" y="598" type="curve" smooth="yes"/>
      <point x="607" y="604"/>
      <point x="606" y="617"/>
      <point x="605" y="625" type="curve"/>
      <point x="540" y="625" type="line"/>
      <point x="541" y="621"/>
      <point x="543" y="602"/>
      <point x="543" y="590" type="curve" smooth="yes"/>
      <point x="543" y="535"/>
      <point x="510" y="517"/>
      <point x="479" y="517" type="curve" smooth="yes"/>
      <point x="418" y="517" type="line"/>
      <point x="418" y="63" type="line"/>
      <point x="406" y="58"/>
      <point x="356" y="49"/>
      <point x="295" y="49" type="curve" smooth="yes"/>
      <point x="185" y="49"/>
      <point x="145" y="102"/>
      <point x="145" y="248" type="curve" smooth="yes"/>
      <point x="145" y="517" type="line"/>
      <point x="80" y="517" type="line"/>
      <point x="80" y="227" type="line" smooth="yes"/>
      <point x="80" y="85"/>
      <point x="131" y="-10"/>
      <point x="285" y="-10" type="curve" smooth="yes"/>
      <point x="379" y="-10"/>
      <point x="444" y="7"/>
      <point x="483" y="18" type="curve"/>
    </contour>
  </outline>
</glyph>
<glyph name="uni01B2" format="2">
	<unicode hex="01B2"/>
	<advance width="681"/>
	<outline>
		<contour>
			<point x="606" y="362" type="qcurve"/>
			<point x="606" y="325"/>
			<point x="599" y="241"/>
			<point x="579" y="157"/>
			<point x="541" y="80"/>
			<point x="480" y="21"/>
			<point x="391" y="-15"/>
			<point x="330" y="-15" type="qcurve"/>
			<point x="263" y="-15"/>
			<point x="170" y="27"/>
			<point x="113" y="99"/>
			<point x="87" y="196"/>
			<point x="87" y="251" type="qcurve"/>
			<point x="87" y="693" type="line"/>
			<point x="155" y="693" type="line"/>
			<point x="155" y="261" type="line"/>
			<point x="155" y="206"/>
			<point x="181" y="125"/>
			<point x="226" y="72"/>
			<point x="288" y="46"/>
			<point x="324" y="46" type="qcurve"/>
			<point x="375" y="46"/>
			<point x="454" y="80"/>
			<point x="509" y="153"/>
			<point x="537" y="269"/>
			<point x="537" y="351" type="qcurve"/>
			<point x="537" y="499"/>
			<point x="462" y="637"/>
			<point x="383" y="637" type="qcurve"/>
			<point x="372" y="637"/>
			<point x="354" y="635"/>
			<point x="349" y="634" type="qcurve"/>
			<point x="343" y="688" type="line"/>
			<point x="350" y="690"/>
			<point x="381" y="694"/>
			<point x="398" y="694" type="qcurve"/>
			<point x="459" y="694"/>
			<point x="540" y="639"/>
			<point x="587" y="548"/>
			<point x="606" y="428"/>
		</contour>
	</outline>
</glyph>
<glyph name="uni01B3" format="2">
	<unicode hex="01B3"/>
	<advance width="654"/>
	<outline>
		<contour>
			<point x="286" y="343" type="qcurve"/>
			<point x="303" y="377"/>
			<point x="344" y="454"/>
			<point x="385" y="530"/>
			<point x="426" y="602"/>
			<point x="443" y="632" type="qcurve"/>
			<point x="453" y="650"/>
			<point x="473" y="677"/>
			<point x="497" y="695"/>
			<point x="529" y="703"/>
			<point x="551" y="703" type="qcurve"/>
			<point x="572" y="703"/>
			<point x="606" y="693"/>
			<point x="633" y="678"/>
			<point x="652" y="660"/>
			<point x="658" y="653" type="qcurve"/>
			<point x="624" y="608" type="line"/>
			<point x="613" y="621"/>
			<point x="578" y="644"/>
			<point x="555" y="644" type="qcurve"/>
			<point x="535" y="644"/>
			<point x="511" y="628"/>
			<point x="496" y="602" type="qcurve"/>
			<point x="479" y="573"/>
			<point x="434" y="496"/>
			<point x="386" y="411"/>
			<point x="338" y="324"/>
			<point x="319" y="287" type="qcurve"/>
			<point x="319" y="0" type="line"/>
			<point x="251" y="0" type="line"/>
			<point x="251" y="285" type="line"/>
			<point x="182" y="391"/>
			<point x="61" y="594"/>
			<point x="10" y="693" type="qcurve"/>
			<point x="89" y="693" type="line"/>
			<point x="132" y="603"/>
			<point x="232" y="426"/>
		</contour>
	</outline>
</glyph>
<glyph name="uni01B8" format="2">
  <advance width="546"/>
  <unicode hex="01B8"/>
  <outline>
    <contour>
      <point x="49" y="189" type="curve" smooth="yes"/>
      <point x="49" y="41"/>
      <point x="160" y="-15"/>
      <point x="318" y="-15" type="curve" smooth="yes"/>
      <point x="418" y="-15"/>
      <point x="482" y="13"/>
      <point x="518" y="33" type="curve"/>
      <point x="495" y="91" type="line"/>
      <point x="468" y="75"/>
      <point x="407" y="44"/>
      <point x="317" y="44" type="curve" smooth="yes"/>
      <point x="203" y="44"/>
      <point x="121" y="83"/>
      <point x="121" y="189" type="curve" smooth="yes"/>
      <point x="121" y="311"/>
      <point x="226" y="341"/>
      <point x="353" y="341" type="curve" smooth="yes"/>
      <point x="363" y="341" type="line"/>
      <point x="363" y="384" type="line"/>
      <point x="288" y="460"/>
      <point x="193" y="577"/>
      <point x="149" y="634" type="curve"/>
      <point x="487" y="634" type="line"/>
      <point x="487" y="693" type="line"/>
      <point x="64" y="693" type="line"/>
      <point x="64" y="652" type="line"/>
      <point x="111" y="584"/>
      <point x="201" y="478"/>
      <point x="281" y="390" type="curve"/>
      <point x="171" y="383"/>
      <point x="49" y="332"/>
    </contour>
  </outline>
</glyph>
<glyph name="uni01B9" format="2">
	<unicode hex="01B9"/>
	<advance width="459"/>
	<outline>
		<contour>
			<point x="332" y="167" type="line"/>
			<point x="307" y="167" type="line"/>
			<point x="273" y="167"/>
			<point x="202" y="157"/>
			<point x="145" y="126"/>
			<point x="109" y="70"/>
			<point x="109" y="24" type="qcurve"/>
			<point x="109" y="-48"/>
			<point x="200" y="-126"/>
			<point x="291" y="-126" type="qcurve"/>
			<point x="345" y="-126"/>
			<point x="421" y="-107"/>
			<point x="440" y="-97" type="qcurve"/>
			<point x="457" y="-153" type="line"/>
			<point x="437" y="-164"/>
			<point x="350" y="-185"/>
			<point x="291" y="-185" type="qcurve"/>
			<point x="176" y="-185"/>
			<point x="41" y="-80"/>
			<point x="41" y="24" type="qcurve"/>
			<point x="41" y="76"/>
			<point x="78" y="149"/>
			<point x="139" y="195"/>
			<point x="218" y="216"/>
			<point x="260" y="218" type="qcurve"/>
			<point x="234" y="247"/>
			<point x="177" y="318"/>
			<point x="125" y="389"/>
			<point x="80" y="455"/>
			<point x="65" y="480" type="qcurve"/>
			<point x="65" y="517" type="line"/>
			<point x="436" y="517" type="line"/>
			<point x="436" y="462" type="line"/>
			<point x="143" y="462" type="line"/>
			<point x="157" y="440"/>
			<point x="200" y="380"/>
			<point x="251" y="313"/>
			<point x="306" y="245"/>
			<point x="332" y="216" type="qcurve"/>
		</contour>
	</outline>
</glyph>
<glyph name="uni01BA" format="2">
  <advance width="452"/>
  <unicode hex="01BA"/>
  <anchor x="226" y="0" name="bottom"/>
  <anchor x="226" y="517" name="top"/>
  <outline>
    <contour>
      <point x="29" y="-187" type="curve"/>
      <point x="84" y="-175" type="line"/>
      <point x="81" y="-170"/>
      <point x="73" y="-152"/>
      <point x="73" y="-127" type="curve" smooth="yes"/>
      <point x="73" y="-77"/>
      <point x="122" y="-65"/>
      <point x="199" y="-45" type="curve" smooth="yes"/>
      <point x="310" y="-16"/>
      <point x="409" y="7"/>
      <point x="409" y="128" type="curve" smooth="yes"/>
      <point x="409" y="221"/>
      <point x="346" y="260"/>
      <point x="209" y="277" type="curve"/>
      <point x="291" y="348"/>
      <point x="345" y="411"/>
      <point x="390" y="472" type="curve"/>
      <point x="390" y="517" type="line"/>
      <point x="25" y="517" type="line"/>
      <point x="25" y="462" type="line"/>
      <point x="316" y="462" type="line"/>
      <point x="282" y="418"/>
      <point x="222" y="352"/>
      <point x="140" y="282" type="curve"/>
      <point x="140" y="232" type="line"/>
      <point x="274" y="226"/>
      <point x="341" y="200"/>
      <point x="341" y="128" type="curve" smooth="yes"/>
      <point x="341" y="45"/>
      <point x="260" y="27"/>
      <point x="169" y="4" type="curve"/>
      <point x="89" y="-16"/>
      <point x="13" y="-36"/>
      <point x="13" y="-125" type="curve" smooth="yes"/>
      <point x="13" y="-160"/>
      <point x="23" y="-177"/>
    </contour>
  </outline>
</glyph>
<glyph name="uni01BB" format="2">
  <advance width="525"/>
  <unicode hex="01BB"/>
  <anchor x="263" y="0" name="bottom"/>
  <anchor x="263" y="776" name="top"/>
  <outline>
    <contour>
      <point x="59" y="0" type="curve"/>
      <point x="459" y="0" type="line"/>
      <point x="459" y="59" type="line"/>
      <point x="133" y="59" type="line"/>
      <point x="133" y="127"/>
      <point x="201" y="197"/>
      <point x="309" y="298" type="curve"/>
      <point x="457" y="298" type="line"/>
      <point x="457" y="352" type="line"/>
      <point x="362" y="352" type="line"/>
      <point x="405" y="402"/>
      <point x="440" y="458"/>
      <point x="440" y="523" type="curve" smooth="yes"/>
      <point x="440" y="638"/>
      <point x="366" y="708"/>
      <point x="232" y="708" type="curve" smooth="yes"/>
      <point x="133" y="708"/>
      <point x="61" y="649"/>
      <point x="44" y="629" type="curve"/>
      <point x="78" y="583" type="line"/>
      <point x="95" y="600"/>
      <point x="149" y="649"/>
      <point x="233" y="649" type="curve" smooth="yes"/>
      <point x="311" y="649"/>
      <point x="368" y="611"/>
      <point x="368" y="520" type="curve" smooth="yes"/>
      <point x="368" y="453"/>
      <point x="330" y="401"/>
      <point x="281" y="352" type="curve"/>
      <point x="94" y="352" type="line"/>
      <point x="94" y="298" type="line"/>
      <point x="224" y="298" type="line"/>
      <point x="145" y="225"/>
      <point x="58" y="141"/>
      <point x="58" y="24" type="curve" smooth="yes"/>
      <point x="58" y="9"/>
      <point x="59" y="3"/>
    </contour>
  </outline>
</glyph>
<glyph name="uni01BD" format="2">
	<unicode hex="01BD"/>
	<advance width="490"/>
	<outline>
		<contour>
			<point x="445" y="146" type="qcurve"/>
			<point x="445" y="112"/>
			<point x="419" y="54"/>
			<point x="365" y="12"/>
			<point x="281" y="-12"/>
			<point x="223" y="-12" type="qcurve"/>
			<point x="197" y="-12"/>
			<point x="145" y="-7"/>
			<point x="98" y="2"/>
			<point x="61" y="13"/>
			<point x="51" y="19" type="qcurve"/>
			<point x="68" y="77" type="line"/>
			<point x="84" y="69"/>
			<point x="156" y="46"/>
			<point x="222" y="46" type="qcurve"/>
			<point x="297" y="46"/>
			<point x="377" y="97"/>
			<point x="377" y="147" type="qcurve"/>
			<point x="377" y="180"/>
			<point x="353" y="224"/>
			<point x="299" y="251"/>
			<point x="211" y="262"/>
			<point x="147" y="262" type="qcurve"/>
			<point x="101" y="262" type="line"/>
			<point x="108" y="319"/>
			<point x="116" y="412"/>
			<point x="119" y="462" type="qcurve"/>
			<point x="38" y="462" type="line"/>
			<point x="38" y="517" type="line"/>
			<point x="422" y="517" type="line"/>
			<point x="422" y="462" type="line"/>
			<point x="177" y="462" type="line"/>
			<point x="174" y="427"/>
			<point x="168" y="348"/>
			<point x="164" y="316" type="qcurve"/>
			<point x="183" y="316" type="line"/>
			<point x="244" y="316"/>
			<point x="341" y="299"/>
			<point x="409" y="259"/>
			<point x="445" y="194"/>
		</contour>
	</outline>
</glyph>
<glyph name="uni01E4" format="2">
	<unicode hex="01E4"/>
	<advance width="690"/>
	<outline>
		<contour>
			<point x="522" y="206" type="line"/>
			<point x="406" y="206" type="line"/>
			<point x="406" y="260" type="line"/>
			<point x="522" y="260" type="line"/>
			<point x="522" y="353" type="line"/>
			<point x="590" y="353" type="line"/>
			<point x="590" y="260" type="line"/>
			<point x="670" y="260" type="line"/>
			<point x="670" y="206" type="line"/>
			<point x="590" y="206" type="line"/>
			<point x="590" y="19" type="line"/>
			<point x="571" y="11"/>
			<point x="460" y="-14"/>
			<point x="379" y="-14" type="qcurve"/>
			<point x="311" y="-14"/>
			<point x="195" y="34"/>
			<point x="110" y="125"/>
			<point x="62" y="260"/>
			<point x="62" y="347" type="qcurve"/>
			<point x="62" y="434"/>
			<point x="114" y="569"/>
			<point x="203" y="660"/>
			<point x="321" y="708"/>
			<point x="388" y="708" type="qcurve"/>
			<point x="465" y="708"/>
			<point x="565" y="675"/>
			<point x="588" y="660" type="qcurve"/>
			<point x="565" y="602" type="line"/>
			<point x="537" y="622"/>
			<point x="441" y="647"/>
			<point x="385" y="647" type="qcurve"/>
			<point x="333" y="647"/>
			<point x="241" y="609"/>
			<point x="173" y="533"/>
			<point x="134" y="421"/>
			<point x="134" y="347" type="qcurve"/>
			<point x="134" y="278"/>
			<point x="166" y="167"/>
			<point x="231" y="88"/>
			<point x="327" y="46"/>
			<point x="390" y="46" type="qcurve"/>
			<point x="441" y="46"/>
			<point x="510" y="57"/>
			<point x="522" y="62" type="qcurve"/>
		</contour>
	</outline>
	<guideline y="353"/>
</glyph>
<glyph name="uni01E5" format="2">
  <advance width="587"/>
  <unicode hex="01E5"/>
  <outline>
    <contour>
      <point x="423" y="26" type="line" smooth="yes"/>
      <point x="423" y="-89"/>
      <point x="371" y="-131"/>
      <point x="248" y="-131" type="curve" smooth="yes"/>
      <point x="192" y="-131"/>
      <point x="131" y="-118"/>
      <point x="99" y="-104" type="curve"/>
      <point x="86" y="-163" type="line"/>
      <point x="124" y="-176"/>
      <point x="180" y="-188"/>
      <point x="246" y="-188" type="curve" smooth="yes"/>
      <point x="407" y="-188"/>
      <point x="487" y="-128"/>
      <point x="487" y="27" type="curve" smooth="yes"/>
      <point x="487" y="247" type="line"/>
      <point x="570" y="247" type="line"/>
      <point x="570" y="300" type="line"/>
      <point x="487" y="300" type="line"/>
      <point x="487" y="499" type="line"/>
      <point x="450" y="511"/>
      <point x="395" y="527"/>
      <point x="300" y="527" type="curve" smooth="yes"/>
      <point x="147" y="527"/>
      <point x="55" y="416"/>
      <point x="55" y="270" type="curve" smooth="yes"/>
      <point x="55" y="89"/>
      <point x="164" y="19"/>
      <point x="285" y="19" type="curve" smooth="yes"/>
      <point x="359" y="19"/>
      <point x="406" y="48"/>
      <point x="423" y="60" type="curve"/>
    </contour>
    <contour>
      <point x="422" y="121" type="line"/>
      <point x="395" y="98"/>
      <point x="343" y="78"/>
      <point x="285" y="78" type="curve" smooth="yes"/>
      <point x="205" y="78"/>
      <point x="124" y="132"/>
      <point x="124" y="269" type="curve" smooth="yes"/>
      <point x="124" y="387"/>
      <point x="190" y="468"/>
      <point x="301" y="468" type="curve" smooth="yes"/>
      <point x="367" y="468"/>
      <point x="400" y="461"/>
      <point x="422" y="454" type="curve"/>
      <point x="422" y="300" type="line"/>
      <point x="299" y="300" type="line"/>
      <point x="299" y="247" type="line"/>
      <point x="422" y="247" type="line"/>
    </contour>
  </outline>
</glyph>
<glyph name="uni01E9" format="2">
  <advance width="495"/>
  <unicode hex="01E9"/>
  <outline>
    <contour>
      <point x="224" y="281" type="curve"/>
      <point x="292" y="348"/>
      <point x="395" y="454"/>
      <point x="455" y="517" type="curve"/>
      <point x="377" y="517" type="line"/>
      <point x="325" y="457"/>
      <point x="217" y="348"/>
      <point x="151" y="284" type="curve"/>
      <point x="151" y="776" type="line"/>
      <point x="86" y="764" type="line"/>
      <point x="86" y="0" type="line"/>
      <point x="151" y="0" type="line"/>
      <point x="151" y="260" type="line"/>
      <point x="230" y="210"/>
      <point x="337" y="106"/>
      <point x="400" y="0" type="curve"/>
      <point x="477" y="0" type="line"/>
      <point x="420" y="97"/>
      <point x="308" y="224"/>
    </contour>
    <contour>
      <point x="283" y="923" type="line"/>
      <point x="261" y="958" type="line"/>
      <point x="164" y="890" type="line"/>
      <point x="67" y="958" type="line"/>
      <point x="45" y="923" type="line"/>
      <point x="164" y="825" type="line"/>
    </contour>
  </outline>
</glyph>
<glyph name="uni01F6" format="2">
  <advance width="1047"/>
  <unicode hex="01F6"/>
  <outline>
    <contour>
      <point x="899" y="257" type="line" smooth="yes"/>
      <point x="899" y="111"/>
      <point x="857" y="47"/>
      <point x="748" y="47" type="curve"/>
      <point x="639" y="47"/>
      <point x="597" y="111"/>
      <point x="597" y="257" type="curve" smooth="yes"/>
      <point x="597" y="693" type="line"/>
      <point x="529" y="693" type="line"/>
      <point x="529" y="392" type="line"/>
      <point x="158" y="392" type="line"/>
      <point x="158" y="693" type="line"/>
      <point x="90" y="693" type="line"/>
      <point x="90" y="0" type="line"/>
      <point x="158" y="0" type="line"/>
      <point x="158" y="333" type="line"/>
      <point x="529" y="333" type="line"/>
      <point x="529" y="241" type="line"/>
      <point x="529" y="95"/>
      <point x="576" y="-14"/>
      <point x="748" y="-14" type="curve" smooth="yes"/>
      <point x="920" y="-14"/>
      <point x="967" y="95"/>
      <point x="967" y="241" type="curve"/>
      <point x="967" y="513" type="line"/>
      <point x="899" y="513" type="line"/>
    </contour>
  </outline>
</glyph>
<glyph name="Aringacute" format="2">
	<unicode hex="01FA"/>
	<advance width="641"/>
	<outline>
		<contour>
			<point x="408" y="731" type="qcurve"/>
			<point x="408" y="705"/>
			<point x="385" y="666"/>
			<point x="367" y="655" type="qcurve"/>
			<point x="401" y="583"/>
			<point x="463" y="437"/>
			<point x="526" y="278"/>
			<point x="593" y="102"/>
			<point x="631" y="0" type="qcurve"/>
			<point x="556" y="0" type="line"/>
			<point x="537" y="51"/>
			<point x="503" y="145"/>
			<point x="487" y="190" type="qcurve"/>
			<point x="150" y="190" type="line"/>
			<point x="133" y="145"/>
			<point x="99" y="51"/>
			<point x="81" y="0" type="qcurve"/>
			<point x="10" y="0" type="line"/>
			<point x="47" y="102"/>
			<point x="114" y="278"/>
			<point x="177" y="436"/>
			<point x="239" y="582"/>
			<point x="272" y="654" type="qcurve"/>
			<point x="253" y="665"/>
			<point x="231" y="705"/>
			<point x="231" y="731" type="qcurve"/>
			<point x="231" y="771"/>
			<point x="282" y="819"/>
			<point x="320" y="819" type="qcurve"/>
			<point x="355" y="819"/>
			<point x="408" y="771"/>
		</contour>
		<contour>
			<point x="318" y="615" type="qcurve"/>
			<point x="280" y="529"/>
			<point x="209" y="351"/>
			<point x="171" y="248" type="qcurve"/>
			<point x="466" y="248" type="line"/>
			<point x="428" y="351"/>
			<point x="356" y="529"/>
		</contour>
		<contour>
			<point x="371" y="731" type="qcurve"/>
			<point x="371" y="755"/>
			<point x="342" y="783"/>
			<point x="320" y="783" type="qcurve"/>
			<point x="297" y="783"/>
			<point x="268" y="755"/>
			<point x="268" y="731" type="qcurve"/>
			<point x="268" y="706"/>
			<point x="297" y="677"/>
			<point x="320" y="677" type="qcurve"/>
			<point x="342" y="677"/>
			<point x="371" y="706"/>
		</contour>
		<contour>
			<point x="384" y="956" type="line"/>
			<point x="408" y="898" type="line"/>
			<point x="254" y="841" type="line"/>
			<point x="238" y="882" type="line"/>
		</contour>
	</outline>
	<guideline x="408"/>
</glyph>
<glyph name="uni0224" format="2">
  <advance width="560"/>
  <unicode hex="0224"/>
  <outline>
    <contour>
      <point x="394" y="-187" type="curve" smooth="yes"/>
      <point x="507" y="-187"/>
      <point x="520" y="-121"/>
      <point x="520" y="-3" type="curve"/>
      <point x="520" y="59" type="line"/>
      <point x="112" y="59" type="line"/>
      <point x="215" y="248"/>
      <point x="414" y="520"/>
      <point x="510" y="631" type="curve"/>
      <point x="510" y="693" type="line"/>
      <point x="57" y="693" type="line"/>
      <point x="57" y="634" type="line"/>
      <point x="436" y="634" type="line"/>
      <point x="326" y="510"/>
      <point x="127" y="225"/>
      <point x="38" y="51" type="curve"/>
      <point x="38" y="0" type="line"/>
      <point x="454" y="0" type="line"/>
      <point x="454" y="-21" type="line"/>
      <point x="454" y="-101"/>
      <point x="438" y="-130"/>
      <point x="384" y="-130" type="curve" smooth="yes"/>
      <point x="368" y="-130"/>
      <point x="354" y="-127"/>
      <point x="347" y="-124" type="curve"/>
      <point x="338" y="-178" type="line"/>
      <point x="348" y="-182"/>
      <point x="372" y="-187"/>
    </contour>
  </outline>
</glyph>
<glyph name="uni0225" format="2">
  <advance width="455"/>
  <unicode hex="0225"/>
  <outline>
    <contour>
      <point x="416" y="55" type="line"/>
      <point x="113" y="55" type="line"/>
      <point x="195" y="203"/>
      <point x="346" y="396"/>
      <point x="407" y="464" type="curve"/>
      <point x="407" y="517" type="line"/>
      <point x="53" y="517" type="line"/>
      <point x="53" y="462" type="line"/>
      <point x="328" y="462" type="line"/>
      <point x="257" y="377"/>
      <point x="107" y="177"/>
      <point x="38" y="47" type="curve"/>
      <point x="38" y="0" type="line"/>
      <point x="355" y="0" type="line"/>
      <point x="355" y="-21" type="line" smooth="yes"/>
      <point x="355" y="-98"/>
      <point x="341" y="-130"/>
      <point x="285" y="-130" type="curve" smooth="yes"/>
      <point x="269" y="-130"/>
      <point x="256" y="-128"/>
      <point x="249" y="-125" type="curve"/>
      <point x="240" y="-178" type="line"/>
      <point x="250" y="-182"/>
      <point x="271" y="-186"/>
      <point x="293" y="-186" type="curve" smooth="yes"/>
      <point x="407" y="-186"/>
      <point x="416" y="-114"/>
      <point x="416" y="-3" type="curve" smooth="yes"/>
    </contour>
  </outline>
</glyph>
<glyph name="uni0234" format="2">
  <advance width="357"/>
  <unicode hex="0234"/>
  <outline>
    <contour>
      <point x="231" y="-185" type="curve" smooth="yes"/>
      <point x="313" y="-185"/>
      <point x="369" y="-133"/>
      <point x="369" y="-45" type="curve" smooth="yes"/>
      <point x="369" y="34"/>
      <point x="320" y="94"/>
      <point x="241" y="94" type="curve" smooth="yes"/>
      <point x="207" y="94"/>
      <point x="174" y="82"/>
      <point x="148" y="56" type="curve"/>
      <point x="148" y="776" type="line"/>
      <point x="83" y="764" type="line"/>
      <point x="83" y="12" type="line" smooth="yes"/>
      <point x="83" y="0"/>
      <point x="83" y="-6"/>
      <point x="84" y="-19" type="curve"/>
      <point x="-18" y="-141" type="line"/>
      <point x="16" y="-171" type="line"/>
      <point x="90" y="-83" type="line"/>
      <point x="106" y="-144"/>
      <point x="147" y="-185"/>
    </contour>
    <contour>
      <point x="231" y="-129" type="curve" smooth="yes"/>
      <point x="182" y="-129"/>
      <point x="148" y="-98"/>
      <point x="148" y="-36" type="curve" smooth="yes"/>
      <point x="148" y="-10" type="line"/>
      <point x="171" y="18"/>
      <point x="191" y="39"/>
      <point x="230" y="39" type="curve" smooth="yes"/>
      <point x="283" y="39"/>
      <point x="308" y="-1"/>
      <point x="308" y="-45" type="curve" smooth="yes"/>
      <point x="308" y="-91"/>
      <point x="284" y="-129"/>
    </contour>
  </outline>
</glyph>
<glyph name="uni0235" format="2">
  <advance width="698"/>
  <unicode hex="0235"/>
  <outline>
    <contour>
      <point x="571" y="39" type="curve" smooth="yes"/>
      <point x="624" y="39"/>
      <point x="649" y="-1"/>
      <point x="649" y="-45" type="curve" smooth="yes"/>
      <point x="649" y="-91"/>
      <point x="625" y="-129"/>
      <point x="572" y="-129" type="curve" smooth="yes"/>
      <point x="523" y="-129"/>
      <point x="489" y="-98"/>
      <point x="489" y="-36" type="curve" smooth="yes"/>
      <point x="489" y="-10" type="line"/>
      <point x="512" y="18"/>
      <point x="532" y="39"/>
    </contour>
    <contour>
      <point x="489" y="289" type="line" smooth="yes"/>
      <point x="489" y="431"/>
      <point x="442" y="527"/>
      <point x="284" y="527" type="curve" smooth="yes"/>
      <point x="190" y="527"/>
      <point x="125" y="510"/>
      <point x="86" y="499" type="curve"/>
      <point x="86" y="0" type="line"/>
      <point x="151" y="0" type="line"/>
      <point x="151" y="454" type="line"/>
      <point x="164" y="459"/>
      <point x="213" y="468"/>
      <point x="274" y="468" type="curve" smooth="yes"/>
      <point x="388" y="468"/>
      <point x="424" y="414"/>
      <point x="424" y="268" type="curve" smooth="yes"/>
      <point x="424" y="12" type="line"/>
      <point x="424" y="0"/>
      <point x="424" y="-6"/>
      <point x="425" y="-19" type="curve"/>
      <point x="323" y="-141" type="line"/>
      <point x="357" y="-171" type="line"/>
      <point x="431" y="-83" type="line"/>
      <point x="447" y="-144"/>
      <point x="488" y="-185"/>
      <point x="572" y="-185" type="curve" smooth="yes"/>
      <point x="654" y="-185"/>
      <point x="710" y="-133"/>
      <point x="710" y="-45" type="curve" smooth="yes"/>
      <point x="710" y="34"/>
      <point x="661" y="94"/>
      <point x="582" y="94" type="curve" smooth="yes"/>
      <point x="548" y="94"/>
      <point x="515" y="82"/>
      <point x="489" y="56" type="curve"/>
    </contour>
  </outline>
</glyph>
<glyph name="uni0238" format="2">
  <advance width="929"/>
  <unicode hex="0238"/>
  <outline>
    <contour>
      <point x="497" y="423" type="line"/>
      <point x="520" y="442"/>
      <point x="572" y="469"/>
      <point x="634" y="469" type="curve" smooth="yes"/>
      <point x="761" y="469"/>
      <point x="805" y="373"/>
      <point x="805" y="258" type="curve" smooth="yes"/>
      <point x="805" y="123"/>
      <point x="730" y="47"/>
      <point x="619" y="47" type="curve" smooth="yes"/>
      <point x="556" y="47"/>
      <point x="517" y="55"/>
      <point x="497" y="61" type="curve"/>
    </contour>
    <contour>
      <point x="497" y="776" type="line"/>
      <point x="432" y="764" type="line"/>
      <point x="432" y="486" type="line"/>
      <point x="409" y="503"/>
      <point x="356" y="528"/>
      <point x="289" y="528" type="curve" smooth="yes"/>
      <point x="140" y="528"/>
      <point x="55" y="416"/>
      <point x="55" y="258" type="curve" smooth="yes"/>
      <point x="55" y="90"/>
      <point x="158" y="-12"/>
      <point x="309" y="-12" type="curve" smooth="yes"/>
      <point x="376" y="-12"/>
      <point x="431" y="2"/>
      <point x="464" y="12" type="curve"/>
      <point x="497" y="2"/>
      <point x="553" y="-12"/>
      <point x="620" y="-12" type="curve" smooth="yes"/>
      <point x="771" y="-12"/>
      <point x="874" y="90"/>
      <point x="874" y="258" type="curve" smooth="yes"/>
      <point x="874" y="416"/>
      <point x="789" y="528"/>
      <point x="640" y="528" type="curve" smooth="yes"/>
      <point x="573" y="528"/>
      <point x="520" y="503"/>
      <point x="497" y="486" type="curve"/>
    </contour>
    <contour>
      <point x="432" y="61" type="line"/>
      <point x="412" y="55"/>
      <point x="373" y="47"/>
      <point x="310" y="47" type="curve" smooth="yes"/>
      <point x="199" y="47"/>
      <point x="124" y="123"/>
      <point x="124" y="258" type="curve"/>
      <point x="124" y="373"/>
      <point x="168" y="469"/>
      <point x="295" y="469" type="curve" smooth="yes"/>
      <point x="357" y="469"/>
      <point x="409" y="442"/>
      <point x="432" y="423" type="curve"/>
    </contour>
  </outline>
</glyph>
<glyph name="uni023A" format="2">
  <advance width="641"/>
  <unicode hex="023A"/>
  <outline>
    <contour>
      <point x="210" y="-100" type="line"/>
      <point x="320" y="191" type="line"/>
      <point x="487" y="191" type="line"/>
      <point x="508" y="131"/>
      <point x="532" y="68"/>
      <point x="557" y="0" type="curve"/>
      <point x="631" y="0" type="line"/>
      <point x="556" y="198"/>
      <point x="498" y="355"/>
      <point x="437" y="500" type="curve"/>
      <point x="533" y="754" type="line"/>
      <point x="479" y="773" type="line"/>
      <point x="404" y="575" type="line"/>
      <point x="387" y="614"/>
      <point x="369" y="653"/>
      <point x="350" y="693" type="curve"/>
      <point x="290" y="693" type="line"/>
      <point x="192" y="489"/>
      <point x="117" y="289"/>
      <point x="10" y="0" type="curve"/>
      <point x="80" y="0" type="line"/>
      <point x="104" y="68"/>
      <point x="127" y="131"/>
      <point x="149" y="191" type="curve"/>
      <point x="259" y="191" type="line"/>
      <point x="156" y="-81" type="line"/>
    </contour>
    <contour>
      <point x="169" y="246" type="line"/>
      <point x="220" y="384"/>
      <point x="267" y="503"/>
      <point x="318" y="617" type="curve"/>
      <point x="336" y="575"/>
      <point x="354" y="534"/>
      <point x="372" y="490" type="curve"/>
      <point x="280" y="246" type="line"/>
    </contour>
    <contour>
      <point x="341" y="246" type="line"/>
      <point x="404" y="412" type="line"/>
      <point x="425" y="359"/>
      <point x="446" y="304"/>
      <point x="468" y="246" type="curve"/>
    </contour>
  </outline>
</glyph>
<glyph name="uni023D" format="2">
  <advance width="516"/>
  <unicode hex="023D"/>
  <outline>
    <contour>
      <point x="172" y="59" type="line"/>
      <point x="172" y="334" type="line"/>
      <point x="335" y="334" type="line"/>
      <point x="335" y="388" type="line"/>
      <point x="172" y="388" type="line"/>
      <point x="172" y="693" type="line"/>
      <point x="104" y="693" type="line"/>
      <point x="104" y="388" type="line"/>
      <point x="24" y="388" type="line"/>
      <point x="24" y="334" type="line"/>
      <point x="104" y="334" type="line"/>
      <point x="104" y="0" type="line"/>
      <point x="498" y="0" type="line"/>
      <point x="498" y="59" type="line"/>
    </contour>
  </outline>
</glyph>
<glyph name="uni0243" format="2">
  <advance width="644"/>
  <unicode hex="0243"/>
  <outline>
    <contour>
      <point x="270" y="-6" type="curve" smooth="yes"/>
      <point x="487" y="-6"/>
      <point x="589" y="64"/>
      <point x="589" y="195" type="curve" smooth="yes"/>
      <point x="589" y="304"/>
      <point x="529" y="350"/>
      <point x="450" y="369" type="curve"/>
      <point x="513" y="389"/>
      <point x="555" y="445"/>
      <point x="555" y="519" type="curve" smooth="yes"/>
      <point x="555" y="655"/>
      <point x="427" y="699"/>
      <point x="277" y="699" type="curve" smooth="yes"/>
      <point x="227" y="699"/>
      <point x="152" y="693"/>
      <point x="104" y="680" type="curve"/>
      <point x="104" y="221" type="line"/>
      <point x="24" y="221" type="line"/>
      <point x="24" y="168" type="line"/>
      <point x="104" y="168" type="line"/>
      <point x="104" y="13" type="line"/>
      <point x="143" y="2"/>
      <point x="224" y="-6"/>
    </contour>
    <contour>
      <point x="278" y="52" type="curve" smooth="yes"/>
      <point x="237" y="52"/>
      <point x="192" y="56"/>
      <point x="172" y="59" type="curve"/>
      <point x="172" y="168" type="line"/>
      <point x="302" y="168" type="line"/>
      <point x="302" y="221" type="line"/>
      <point x="172" y="221" type="line"/>
      <point x="172" y="332" type="line"/>
      <point x="316" y="332" type="line" smooth="yes"/>
      <point x="440" y="332"/>
      <point x="517" y="303"/>
      <point x="517" y="196" type="curve" smooth="yes"/>
      <point x="517" y="79"/>
      <point x="402" y="52"/>
    </contour>
    <contour>
      <point x="172" y="390" type="line"/>
      <point x="172" y="634" type="line"/>
      <point x="194" y="638"/>
      <point x="228" y="641"/>
      <point x="277" y="641" type="curve" smooth="yes"/>
      <point x="399" y="641"/>
      <point x="484" y="608"/>
      <point x="484" y="517" type="curve" smooth="yes"/>
      <point x="484" y="416"/>
      <point x="404" y="390"/>
      <point x="304" y="390" type="curve" smooth="yes"/>
    </contour>
  </outline>
</glyph>
<glyph name="uni0248" format="2">
  <advance width="504"/>
  <unicode hex="0248"/>
  <outline>
    <contour>
      <point x="400" y="693" type="line"/>
      <point x="332" y="693" type="line"/>
      <point x="332" y="388" type="line"/>
      <point x="183" y="388" type="line"/>
      <point x="183" y="334" type="line"/>
      <point x="332" y="334" type="line"/>
      <point x="332" y="225" type="line" smooth="yes"/>
      <point x="332" y="95"/>
      <point x="284" y="46"/>
      <point x="182" y="46" type="curve" smooth="yes"/>
      <point x="112" y="46"/>
      <point x="65" y="77"/>
      <point x="40" y="99" type="curve"/>
      <point x="8" y="44" type="line"/>
      <point x="29" y="23"/>
      <point x="93" y="-15"/>
      <point x="189" y="-15" type="curve" smooth="yes"/>
      <point x="351" y="-15"/>
      <point x="400" y="85"/>
      <point x="400" y="218" type="curve" smooth="yes"/>
      <point x="400" y="334" type="line"/>
      <point x="480" y="334" type="line"/>
      <point x="480" y="388" type="line"/>
      <point x="400" y="388" type="line"/>
    </contour>
  </outline>
</glyph>
<glyph name="uni024A" format="2">
  <advance width="789"/>
  <unicode hex="024A"/>
  <outline>
    <contour>
      <point x="640" y="347" type="curve"/>
      <point x="640" y="161"/>
      <point x="541" y="46"/>
      <point x="387" y="46" type="curve" smooth="yes"/>
      <point x="233" y="46"/>
      <point x="134" y="161"/>
      <point x="134" y="347" type="curve"/>
      <point x="134" y="533"/>
      <point x="233" y="647"/>
      <point x="387" y="647" type="curve" smooth="yes"/>
      <point x="541" y="647"/>
      <point x="640" y="533"/>
    </contour>
    <contour>
      <point x="646" y="-26" type="line" smooth="yes"/>
      <point x="646" y="-117"/>
      <point x="660" y="-187"/>
      <point x="773" y="-187" type="curve" smooth="yes"/>
      <point x="795" y="-187"/>
      <point x="817" y="-182"/>
      <point x="827" y="-178" type="curve"/>
      <point x="818" y="-124" type="line"/>
      <point x="811" y="-127"/>
      <point x="797" y="-130"/>
      <point x="781" y="-130" type="curve" smooth="yes"/>
      <point x="730" y="-130"/>
      <point x="712" y="-101"/>
      <point x="712" y="-37" type="curve"/>
      <point x="712" y="347" type="line" smooth="yes"/>
      <point x="712" y="585"/>
      <point x="562" y="708"/>
      <point x="387" y="708" type="curve"/>
      <point x="212" y="708"/>
      <point x="62" y="585"/>
      <point x="62" y="347" type="curve" smooth="yes"/>
      <point x="62" y="109"/>
      <point x="212" y="-15"/>
      <point x="387" y="-15" type="curve" smooth="yes"/>
      <point x="499" y="-15"/>
      <point x="602" y="46"/>
      <point x="646" y="124" type="curve"/>
    </contour>
  </outline>
</glyph>
<glyph name="uni024C" format="2">
	<unicode hex="024C"/>
	<advance width="632"/>
	<outline>
		<contour>
			<point x="347" y="285" type="qcurve"/>
			<point x="332" y="283"/>
			<point x="300" y="283"/>
			<point x="284" y="283" type="qcurve"/>
			<point x="172" y="283" type="line"/>
			<point x="172" y="0" type="line"/>
			<point x="104" y="0" type="line"/>
			<point x="104" y="283" type="line"/>
			<point x="24" y="283" type="line"/>
			<point x="24" y="338" type="line"/>
			<point x="104" y="338" type="line"/>
			<point x="104" y="680" type="line"/>
			<point x="140" y="690"/>
			<point x="237" y="699"/>
			<point x="278" y="699" type="qcurve"/>
			<point x="421" y="699"/>
			<point x="566" y="591"/>
			<point x="566" y="485" type="qcurve"/>
			<point x="566" y="407"/>
			<point x="484" y="317"/>
			<point x="417" y="297" type="qcurve"/>
			<point x="433" y="277"/>
			<point x="484" y="209"/>
			<point x="538" y="128"/>
			<point x="590" y="40"/>
			<point x="608" y="0" type="qcurve"/>
			<point x="535" y="0" type="line"/>
			<point x="514" y="40"/>
			<point x="464" y="121"/>
			<point x="413" y="196"/>
			<point x="365" y="261"/>
		</contour>
		<contour>
			<point x="286" y="640" type="qcurve"/>
			<point x="248" y="640"/>
			<point x="191" y="635"/>
			<point x="172" y="633" type="qcurve"/>
			<point x="172" y="338" type="line"/>
			<point x="266" y="338" type="line"/>
			<point x="313" y="338"/>
			<point x="397" y="347"/>
			<point x="459" y="378"/>
			<point x="495" y="436"/>
			<point x="495" y="486" type="qcurve"/>
			<point x="495" y="532"/>
			<point x="459" y="592"/>
			<point x="401" y="627"/>
			<point x="326" y="640"/>
		</contour>
	</outline>
	<guideline y="280"/>
	<guideline y="338"/>
</glyph>
<glyph name="uni024D" format="2">
	<unicode hex="024D"/>
	<advance width="382"/>
	<outline>
		<contour>
			<point x="270" y="527" type="qcurve"/>
			<point x="302" y="527"/>
			<point x="359" y="517"/>
			<point x="370" y="512" type="qcurve"/>
			<point x="357" y="456" type="line"/>
			<point x="349" y="460"/>
			<point x="300" y="469"/>
			<point x="260" y="469" type="qcurve"/>
			<point x="218" y="469"/>
			<point x="167" y="457"/>
			<point x="159" y="453" type="qcurve"/>
			<point x="159" y="267" type="line"/>
			<point x="314" y="267" type="line"/>
			<point x="314" y="214" type="line"/>
			<point x="159" y="214" type="line"/>
			<point x="159" y="0" type="line"/>
			<point x="94" y="0" type="line"/>
			<point x="94" y="214" type="line"/>
			<point x="17" y="214" type="line"/>
			<point x="17" y="267" type="line"/>
			<point x="94" y="267" type="line"/>
			<point x="94" y="493" type="line"/>
			<point x="119" y="504"/>
			<point x="207" y="527"/>
		</contour>
	</outline>
</glyph>
<glyph name="uni024F" format="2">
  <advance width="506"/>
  <unicode hex="024F"/>
  <outline>
    <contour>
      <point x="247" y="-11" type="curve"/>
      <point x="211" y="-103"/>
      <point x="171" y="-133"/>
      <point x="95" y="-133" type="curve" smooth="yes"/>
      <point x="69" y="-133"/>
      <point x="39" y="-123"/>
      <point x="34" y="-119" type="curve"/>
      <point x="21" y="-173" type="line"/>
      <point x="27" y="-177"/>
      <point x="59" y="-188"/>
      <point x="92" y="-188" type="curve" smooth="yes"/>
      <point x="210" y="-188"/>
      <point x="258" y="-136"/>
      <point x="309" y="-16" type="curve" smooth="yes"/>
      <point x="343" y="65"/>
      <point x="375" y="157"/>
      <point x="404" y="255" type="curve"/>
      <point x="489" y="255" type="line"/>
      <point x="489" y="308" type="line"/>
      <point x="419" y="308" type="line"/>
      <point x="438" y="376"/>
      <point x="455" y="446"/>
      <point x="471" y="517" type="curve"/>
      <point x="406" y="517" type="line"/>
      <point x="389" y="439"/>
      <point x="373" y="372"/>
      <point x="356" y="308" type="curve"/>
      <point x="172" y="308" type="line"/>
      <point x="145" y="383"/>
      <point x="123" y="455"/>
      <point x="109" y="517" type="curve"/>
      <point x="40" y="517" type="line"/>
      <point x="56" y="449"/>
      <point x="78" y="379"/>
      <point x="104" y="308" type="curve"/>
      <point x="28" y="308" type="line"/>
      <point x="28" y="255" type="line"/>
      <point x="123" y="255" type="line"/>
      <point x="159" y="163"/>
      <point x="201" y="72"/>
    </contour>
    <contour>
      <point x="279" y="56" type="curve"/>
      <point x="246" y="121"/>
      <point x="217" y="189"/>
      <point x="191" y="255" type="curve"/>
      <point x="342" y="255" type="line"/>
      <point x="324" y="191"/>
      <point x="304" y="128"/>
    </contour>
  </outline>
</glyph>
<glyph name="uni0292" format="2">
	<unicode hex="0292"/>
	<advance width="454"/>
	<outline>
		<contour>
			<point x="125" y="216" type="line"/>
			<point x="151" y="245"/>
			<point x="206" y="313"/>
			<point x="257" y="380"/>
			<point x="300" y="440"/>
			<point x="314" y="462" type="qcurve"/>
			<point x="21" y="462" type="line"/>
			<point x="21" y="517" type="line"/>
			<point x="392" y="517" type="line"/>
			<point x="392" y="480" type="line"/>
			<point x="377" y="455"/>
			<point x="332" y="389"/>
			<point x="280" y="318"/>
			<point x="223" y="247"/>
			<point x="197" y="218" type="qcurve"/>
			<point x="239" y="216"/>
			<point x="318" y="195"/>
			<point x="379" y="149"/>
			<point x="416" y="76"/>
			<point x="416" y="24" type="qcurve"/>
			<point x="416" y="-80"/>
			<point x="281" y="-185"/>
			<point x="166" y="-185" type="qcurve"/>
			<point x="107" y="-185"/>
			<point x="20" y="-164"/>
			<point x="0" y="-153" type="qcurve"/>
			<point x="17" y="-97" type="line"/>
			<point x="36" y="-107"/>
			<point x="112" y="-126"/>
			<point x="166" y="-126" type="qcurve"/>
			<point x="257" y="-126"/>
			<point x="348" y="-48"/>
			<point x="348" y="24" type="qcurve"/>
			<point x="348" y="70"/>
			<point x="312" y="126"/>
			<point x="255" y="157"/>
			<point x="184" y="167"/>
			<point x="150" y="167" type="qcurve"/>
			<point x="125" y="167" type="line"/>
		</contour>
	</outline>
	<guideline y="218"/>
</glyph>
<glyph name="apostrophe" format="2">
  <advance width="376"/>
  <unicode hex="02BC"/>
  <outline>
    <contour>
      <point x="235" y="776" type="line"/>
      <point x="235" y="692"/>
      <point x="209" y="636"/>
      <point x="169" y="569" type="curve"/>
      <point x="124" y="590" type="line"/>
      <point x="147" y="637"/>
      <point x="164" y="690"/>
      <point x="164" y="741" type="curve" smooth="yes"/>
      <point x="164" y="753"/>
      <point x="163" y="769"/>
      <point x="162" y="776" type="curve"/>
    </contour>
  </outline>
</glyph>
<glyph name="circumflex" format="2">
	<unicode hex="02C6"/>
	<advance width="376"/>
	<outline>
		<contour>
			<point x="84" y="584" type="line"/>
			<point x="56" y="615" type="line"/>
			<point x="188" y="762" type="line"/>
			<point x="320" y="615" type="line"/>
			<point x="292" y="584" type="line"/>
			<point x="188" y="680" type="line"/>
		</contour>
	</outline>
</glyph>
<glyph name="ring" format="2">
  <advance width="376"/>
  <unicode hex="02DA"/>
  <outline>
    <contour>
      <point x="283" y="676" type="curve" smooth="yes"/>
      <point x="283" y="733"/>
      <point x="239" y="771"/>
      <point x="188" y="771" type="curve" smooth="yes"/>
      <point x="136" y="771"/>
      <point x="92" y="733"/>
      <point x="92" y="676" type="curve" smooth="yes"/>
      <point x="92" y="618"/>
      <point x="136" y="580"/>
      <point x="188" y="580" type="curve" smooth="yes"/>
      <point x="239" y="580"/>
      <point x="283" y="618"/>
    </contour>
    <contour>
      <point x="245" y="676" type="curve" smooth="yes"/>
      <point x="245" y="638"/>
      <point x="220" y="617"/>
      <point x="188" y="617" type="curve" smooth="yes"/>
      <point x="156" y="617"/>
      <point x="131" y="638"/>
      <point x="131" y="676" type="curve" smooth="yes"/>
      <point x="131" y="713"/>
      <point x="156" y="735"/>
      <point x="188" y="735" type="curve" smooth="yes"/>
      <point x="220" y="735"/>
      <point x="245" y="713"/>
    </contour>
  </outline>
</glyph>
<glyph name="ogonek" format="2">
  <advance width="376"/>
  <unicode hex="02DB"/>
  <outline>
    <contour>
      <point x="177" y="-186" type="curve" smooth="yes"/>
      <point x="197" y="-186"/>
      <point x="221" y="-181"/>
      <point x="231" y="-177" type="curve"/>
      <point x="226" y="-129" type="line"/>
      <point x="215" y="-133"/>
      <point x="200" y="-135"/>
      <point x="188" y="-135" type="curve" smooth="yes"/>
      <point x="164" y="-135"/>
      <point x="146" y="-125"/>
      <point x="146" y="-101" type="curve" smooth="yes"/>
      <point x="146" y="-61"/>
      <point x="204" y="-15"/>
      <point x="234" y="8" type="curve"/>
      <point x="165" y="8" type="line"/>
      <point x="131" y="-14"/>
      <point x="79" y="-64"/>
      <point x="79" y="-116" type="curve" smooth="yes"/>
      <point x="79" y="-157"/>
      <point x="106" y="-186"/>
    </contour>
  </outline>
</glyph>
<glyph name="tilde" format="2">
  <advance width="376"/>
  <unicode hex="02DC"/>
  <outline>
    <contour>
      <point x="68" y="623" type="line"/>
      <point x="81" y="646"/>
      <point x="95" y="668"/>
      <point x="123" y="668" type="curve" smooth="yes"/>
      <point x="165" y="668"/>
      <point x="196" y="629"/>
      <point x="251" y="629" type="curve" smooth="yes"/>
      <point x="304" y="629"/>
      <point x="333" y="677"/>
      <point x="347" y="709" type="curve"/>
      <point x="309" y="727" type="line"/>
      <point x="296" y="704"/>
      <point x="282" y="682"/>
      <point x="254" y="682" type="curve" smooth="yes"/>
      <point x="213" y="682"/>
      <point x="181" y="721"/>
      <point x="126" y="721" type="curve"/>
      <point x="73" y="721"/>
      <point x="44" y="673"/>
      <point x="30" y="641" type="curve"/>
    </contour>
  </outline>
</glyph>
<glyph name="hungarumlaut" format="2">
  <advance width="376"/>
  <unicode hex="02DD"/>
  <outline>
    <contour>
      <point x="144" y="773" type="line"/>
      <point x="25" y="611" type="line"/>
      <point x="64" y="582" type="line"/>
      <point x="190" y="731" type="line"/>
    </contour>
    <contour>
      <point x="301" y="773" type="line"/>
      <point x="182" y="611" type="line"/>
      <point x="221" y="582" type="line"/>
      <point x="347" y="731" type="line"/>
    </contour>
  </outline>
</glyph>
<glyph name="breveinvertedcomb" format="2">
  <unicode hex="0311"/>
  <anchor x="188" y="746" name="_top"/>
  <anchor x="188" y="517" name="top"/>
  <outline>
    <contour>
      <point x="66" y="613" type="curve"/>
      <point x="109" y="613" type="line"/>
      <point x="110" y="632"/>
      <point x="117" y="690"/>
      <point x="188" y="690" type="curve" smooth="yes"/>
      <point x="259" y="690"/>
      <point x="266" y="632"/>
      <point x="267" y="613" type="curve"/>
      <point x="310" y="613" type="line"/>
      <point x="313" y="705"/>
      <point x="253" y="746"/>
      <point x="188" y="746" type="curve" smooth="yes"/>
      <point x="123" y="746"/>
      <point x="63" y="705"/>
    </contour>
  </outline>
</glyph>
<glyph name="Theta" format="2">
	<unicode hex="0398"/>
	<advance width="774"/>
	<outline>
		<contour>
			<point x="223" y="378" type="line"/>
			<point x="551" y="378" type="line"/>
			<point x="551" y="320" type="line"/>
			<point x="223" y="320" type="line"/>
		</contour>
		<contour>
			<point x="712" y="347" type="qcurve"/>
			<point x="712" y="258"/>
			<point x="660" y="122"/>
			<point x="571" y="31"/>
			<point x="453" y="-15"/>
			<point x="387" y="-15" type="qcurve"/>
			<point x="321" y="-15"/>
			<point x="203" y="31"/>
			<point x="114" y="122"/>
			<point x="62" y="258"/>
			<point x="62" y="347" type="qcurve"/>
			<point x="62" y="436"/>
			<point x="114" y="571"/>
			<point x="203" y="662"/>
			<point x="321" y="708"/>
			<point x="387" y="708" type="qcurve"/>
			<point x="453" y="708"/>
			<point x="571" y="662"/>
			<point x="660" y="571"/>
			<point x="712" y="436"/>
		</contour>
		<contour>
			<point x="640" y="347" type="qcurve"/>
			<point x="640" y="417"/>
			<point x="604" y="528"/>
			<point x="538" y="606"/>
			<point x="445" y="647"/>
			<point x="387" y="647" type="qcurve"/>
			<point x="329" y="647"/>
			<point x="236" y="606"/>
			<point x="170" y="528"/>
			<point x="134" y="417"/>
			<point x="134" y="347" type="qcurve"/>
			<point x="134" y="277"/>
			<point x="170" y="166"/>
			<point x="236" y="88"/>
			<point x="329" y="46"/>
			<point x="387" y="46" type="qcurve"/>
			<point x="445" y="46"/>
			<point x="538" y="88"/>
			<point x="604" y="166"/>
			<point x="640" y="277"/>
		</contour>
	</outline>
</glyph>
<glyph name="Xi" format="2">
  <advance width="551"/>
  <unicode hex="039E"/>
  <outline>
    <contour>
      <point x="39" y="0" type="line"/>
      <point x="512" y="0" type="line"/>
      <point x="512" y="59" type="line"/>
      <point x="39" y="59" type="line"/>
    </contour>
    <contour>
      <point x="98" y="334" type="line"/>
      <point x="452" y="334" type="line"/>
      <point x="452" y="393" type="line"/>
      <point x="98" y="393" type="line"/>
    </contour>
    <contour>
      <point x="54" y="634" type="line"/>
      <point x="497" y="634" type="line"/>
      <point x="497" y="693" type="line"/>
      <point x="54" y="693" type="line"/>
    </contour>
  </outline>
</glyph>
<glyph name="Pi" format="2">
  <advance width="685"/>
  <unicode hex="03A0"/>
  <outline>
    <contour>
      <point x="90" y="0" type="line"/>
      <point x="158" y="0" type="line"/>
      <point x="158" y="634" type="line"/>
      <point x="527" y="634" type="line"/>
      <point x="527" y="0" type="line"/>
      <point x="595" y="0" type="line"/>
      <point x="595" y="693" type="line"/>
      <point x="90" y="693" type="line"/>
    </contour>
  </outline>
</glyph>
<glyph name="Psi" format="2">
	<unicode hex="03A8"/>
	<advance width="802"/>
	<outline>
		<contour>
			<point x="367" y="0" type="line"/>
			<point x="367" y="183" type="line"/>
			<point x="282" y="183"/>
			<point x="168" y="226"/>
			<point x="98" y="302"/>
			<point x="68" y="404"/>
			<point x="68" y="464" type="qcurve"/>
			<point x="68" y="693" type="line"/>
			<point x="135" y="693" type="line"/>
			<point x="135" y="471" type="line"/>
			<point x="135" y="409"/>
			<point x="166" y="322"/>
			<point x="225" y="268"/>
			<point x="311" y="244"/>
			<point x="367" y="244" type="qcurve"/>
			<point x="367" y="693" type="line"/>
			<point x="435" y="693" type="line"/>
			<point x="435" y="244" type="line"/>
			<point x="490" y="244"/>
			<point x="577" y="268"/>
			<point x="636" y="322"/>
			<point x="667" y="409"/>
			<point x="667" y="471" type="qcurve"/>
			<point x="667" y="693" type="line"/>
			<point x="734" y="693" type="line"/>
			<point x="734" y="464" type="line"/>
			<point x="734" y="404"/>
			<point x="704" y="302"/>
			<point x="634" y="226"/>
			<point x="520" y="183"/>
			<point x="435" y="183" type="qcurve"/>
			<point x="435" y="0" type="line"/>
		</contour>
	</outline>
</glyph>
<glyph name="Omega" format="2">
  <advance width="780"/>
  <unicode hex="03A9"/>
  <outline>
    <contour>
      <point x="390" y="708" type="curve" smooth="yes"/>
      <point x="218" y="708"/>
      <point x="72" y="592"/>
      <point x="72" y="367" type="curve" smooth="yes"/>
      <point x="72" y="216"/>
      <point x="151" y="112"/>
      <point x="211" y="58" type="curve"/>
      <point x="56" y="58" type="line"/>
      <point x="56" y="0" type="line"/>
      <point x="310" y="0" type="line"/>
      <point x="310" y="44" type="line"/>
      <point x="217" y="113"/>
      <point x="144" y="217"/>
      <point x="144" y="369" type="curve" smooth="yes"/>
      <point x="144" y="542"/>
      <point x="244" y="647"/>
      <point x="390" y="647" type="curve"/>
      <point x="536" y="647"/>
      <point x="636" y="542"/>
      <point x="636" y="369" type="curve" smooth="yes"/>
      <point x="636" y="217"/>
      <point x="563" y="113"/>
      <point x="470" y="44" type="curve"/>
      <point x="470" y="0" type="line"/>
      <point x="724" y="0" type="line"/>
      <point x="724" y="58" type="line"/>
      <point x="569" y="58" type="line"/>
      <point x="629" y="112"/>
      <point x="708" y="216"/>
      <point x="708" y="367" type="curve" smooth="yes"/>
      <point x="708" y="592"/>
      <point x="562" y="708"/>
    </contour>
  </outline>
</glyph>
<glyph name="beta" format="2">
  <advance width="599"/>
  <unicode hex="03B2"/>
  <outline>
    <contour>
      <point x="151" y="29" type="line"/>
      <point x="168" y="18"/>
      <point x="223" y="-8"/>
      <point x="296" y="-8" type="curve" smooth="yes"/>
      <point x="462" y="-8"/>
      <point x="544" y="81"/>
      <point x="544" y="221" type="curve" smooth="yes"/>
      <point x="544" y="315"/>
      <point x="499" y="400"/>
      <point x="378" y="431" type="curve"/>
      <point x="452" y="456"/>
      <point x="495" y="521"/>
      <point x="495" y="589" type="curve" smooth="yes"/>
      <point x="495" y="717"/>
      <point x="403" y="776"/>
      <point x="297" y="776" type="curve" smooth="yes"/>
      <point x="141" y="776"/>
      <point x="86" y="677"/>
      <point x="86" y="545" type="curve" smooth="yes"/>
      <point x="86" y="-185" type="line"/>
      <point x="151" y="-185" type="line"/>
    </contour>
    <contour>
      <point x="151" y="543" type="line"/>
      <point x="151" y="648"/>
      <point x="188" y="719"/>
      <point x="294" y="719" type="curve" smooth="yes"/>
      <point x="384" y="719"/>
      <point x="428" y="665"/>
      <point x="428" y="590" type="curve" smooth="yes"/>
      <point x="428" y="505"/>
      <point x="364" y="450"/>
      <point x="268" y="450" type="curve" smooth="yes"/>
      <point x="259" y="450" type="line"/>
      <point x="259" y="395" type="line"/>
      <point x="265" y="395" type="line" smooth="yes"/>
      <point x="413" y="395"/>
      <point x="475" y="327"/>
      <point x="475" y="220" type="curve" smooth="yes"/>
      <point x="475" y="111"/>
      <point x="403" y="51"/>
      <point x="296" y="51" type="curve" smooth="yes"/>
      <point x="223" y="51"/>
      <point x="165" y="80"/>
      <point x="151" y="92" type="curve"/>
    </contour>
  </outline>
</glyph>
<glyph name="zeta" format="2">
  <advance width="423"/>
  <unicode hex="03B6"/>
  <outline>
    <contour>
      <point x="442" y="-56" type="curve" smooth="yes"/>
      <point x="442" y="23"/>
      <point x="398" y="48"/>
      <point x="282" y="72" type="curve"/>
      <point x="168" y="96"/>
      <point x="125" y="125"/>
      <point x="125" y="230" type="curve" smooth="yes"/>
      <point x="125" y="427"/>
      <point x="333" y="634"/>
      <point x="423" y="716" type="curve"/>
      <point x="423" y="769" type="line"/>
      <point x="88" y="769" type="line"/>
      <point x="88" y="714" type="line"/>
      <point x="345" y="714" type="line"/>
      <point x="261" y="640"/>
      <point x="56" y="439"/>
      <point x="56" y="230" type="curve" smooth="yes"/>
      <point x="56" y="103"/>
      <point x="101" y="48"/>
      <point x="244" y="18" type="curve" smooth="yes"/>
      <point x="341" y="-2"/>
      <point x="378" y="-14"/>
      <point x="378" y="-69" type="curve"/>
      <point x="378" y="-112"/>
      <point x="347" y="-154"/>
      <point x="338" y="-166" type="curve"/>
      <point x="392" y="-188" type="line"/>
      <point x="412" y="-163"/>
      <point x="442" y="-107"/>
    </contour>
  </outline>
</glyph>
<glyph name="eta" format="2">
	<unicode hex="03B7"/>
	<advance width="568"/>
	<outline>
		<contour>
			<point x="86" y="499" type="line"/>
			<point x="115" y="507"/>
			<point x="213" y="527"/>
			<point x="284" y="527" type="qcurve"/>
			<point x="343" y="527"/>
			<point x="422" y="493"/>
			<point x="469" y="430"/>
			<point x="489" y="342"/>
			<point x="489" y="289" type="qcurve"/>
			<point x="489" y="-185" type="line"/>
			<point x="424" y="-185" type="line"/>
			<point x="424" y="268" type="line"/>
			<point x="424" y="323"/>
			<point x="409" y="399"/>
			<point x="374" y="447"/>
			<point x="317" y="468"/>
			<point x="274" y="468" type="qcurve"/>
			<point x="228" y="468"/>
			<point x="161" y="458"/>
			<point x="151" y="454" type="qcurve"/>
			<point x="151" y="0" type="line"/>
			<point x="86" y="0" type="line"/>
		</contour>
	</outline>
</glyph>
<glyph name="theta" format="2">
  <advance width="594"/>
  <unicode hex="03B8"/>
  <outline>
    <contour>
      <point x="297" y="776" type="curve" smooth="yes"/>
      <point x="134" y="776"/>
      <point x="59" y="612"/>
      <point x="59" y="381" type="curve" smooth="yes"/>
      <point x="59" y="150"/>
      <point x="134" y="-14"/>
      <point x="297" y="-14" type="curve" smooth="yes"/>
      <point x="460" y="-14"/>
      <point x="535" y="150"/>
      <point x="535" y="381" type="curve" smooth="yes"/>
      <point x="535" y="612"/>
      <point x="460" y="776"/>
    </contour>
    <contour>
      <point x="297" y="45" type="curve" smooth="yes"/>
      <point x="183" y="45"/>
      <point x="130" y="163"/>
      <point x="127" y="360" type="curve"/>
      <point x="467" y="360" type="line"/>
      <point x="463" y="163"/>
      <point x="411" y="45"/>
    </contour>
    <contour>
      <point x="297" y="717" type="curve" smooth="yes"/>
      <point x="408" y="717"/>
      <point x="461" y="603"/>
      <point x="466" y="415" type="curve"/>
      <point x="127" y="415" type="line"/>
      <point x="133" y="603"/>
      <point x="185" y="717"/>
    </contour>
  </outline>
</glyph>
<glyph name="iota" format="2">
  <advance width="253"/>
  <unicode hex="03B9"/>
  <outline>
    <contour>
      <point x="224" y="45" type="line"/>
      <point x="171" y="54"/>
      <point x="148" y="61"/>
      <point x="148" y="126" type="curve" smooth="yes"/>
      <point x="148" y="517" type="line"/>
      <point x="83" y="517" type="line"/>
      <point x="83" y="124" type="line" smooth="yes"/>
      <point x="83" y="26"/>
      <point x="128" y="-5"/>
      <point x="215" y="-9" type="curve"/>
    </contour>
  </outline>
</glyph>
<glyph name="lambda" format="2">
  <advance width="492"/>
  <unicode hex="03BB"/>
  <outline>
    <contour>
      <point x="19" y="0" type="curve"/>
      <point x="85" y="0" type="line"/>
      <point x="114" y="119"/>
      <point x="170" y="286"/>
      <point x="260" y="455" type="curve"/>
      <point x="316" y="304"/>
      <point x="368" y="139"/>
      <point x="403" y="0" type="curve"/>
      <point x="471" y="0" type="line"/>
      <point x="418" y="191"/>
      <point x="353" y="397"/>
      <point x="253" y="643" type="curve"/>
      <point x="226" y="709"/>
      <point x="189" y="776"/>
      <point x="95" y="776" type="curve" smooth="yes"/>
      <point x="66" y="776"/>
      <point x="43" y="771"/>
      <point x="33" y="767" type="curve"/>
      <point x="44" y="713" type="line"/>
      <point x="51" y="716"/>
      <point x="64" y="720"/>
      <point x="82" y="720" type="curve" smooth="yes"/>
      <point x="145" y="720"/>
      <point x="162" y="697"/>
      <point x="204" y="600" type="curve" smooth="yes"/>
      <point x="213" y="579"/>
      <point x="223" y="553"/>
      <point x="233" y="526" type="curve"/>
      <point x="140" y="355"/>
      <point x="50" y="132"/>
    </contour>
  </outline>
</glyph>
<glyph name="nu" format="2">
  <advance width="476"/>
  <unicode hex="03BD"/>
  <outline>
    <contour>
      <point x="174" y="0" type="curve"/>
      <point x="236" y="0" type="line"/>
      <point x="338" y="159"/>
      <point x="422" y="319"/>
      <point x="460" y="517" type="curve"/>
      <point x="395" y="517" type="line"/>
      <point x="367" y="358"/>
      <point x="290" y="195"/>
      <point x="218" y="70" type="curve"/>
      <point x="199" y="206"/>
      <point x="143" y="383"/>
      <point x="87" y="517" type="curve"/>
      <point x="18" y="517" type="line"/>
      <point x="88" y="356"/>
      <point x="151" y="142"/>
    </contour>
  </outline>
</glyph>
<glyph name="xi" format="2">
  <advance width="459"/>
  <unicode hex="03BE"/>
  <outline>
    <contour>
      <point x="293" y="72" type="curve"/>
      <point x="182" y="95"/>
      <point x="124" y="122"/>
      <point x="124" y="210" type="curve" smooth="yes"/>
      <point x="124" y="351"/>
      <point x="269" y="387"/>
      <point x="350" y="387" type="curve" smooth="yes"/>
      <point x="394" y="387" type="line"/>
      <point x="394" y="442" type="line"/>
      <point x="339" y="442" type="line" smooth="yes"/>
      <point x="228" y="442"/>
      <point x="158" y="491"/>
      <point x="158" y="584" type="curve" smooth="yes"/>
      <point x="158" y="661"/>
      <point x="200" y="718"/>
      <point x="305" y="718" type="curve" smooth="yes"/>
      <point x="360" y="718"/>
      <point x="399" y="704"/>
      <point x="411" y="698" type="curve"/>
      <point x="427" y="755" type="line"/>
      <point x="409" y="763"/>
      <point x="362" y="776"/>
      <point x="300" y="776" type="curve" smooth="yes"/>
      <point x="187" y="776"/>
      <point x="90" y="720"/>
      <point x="90" y="588" type="curve" smooth="yes"/>
      <point x="90" y="511"/>
      <point x="137" y="435"/>
      <point x="217" y="415" type="curve"/>
      <point x="168" y="399"/>
      <point x="56" y="342"/>
      <point x="56" y="209" type="curve" smooth="yes"/>
      <point x="56" y="95"/>
      <point x="121" y="46"/>
      <point x="255" y="18" type="curve" smooth="yes"/>
      <point x="352" y="-2"/>
      <point x="389" y="-14"/>
      <point x="389" y="-69" type="curve" smooth="yes"/>
      <point x="389" y="-112"/>
      <point x="358" y="-154"/>
      <point x="349" y="-166" type="curve"/>
      <point x="403" y="-188" type="line"/>
      <point x="423" y="-163"/>
      <point x="453" y="-107"/>
      <point x="453" y="-56" type="curve" smooth="yes"/>
      <point x="453" y="23"/>
      <point x="409" y="48"/>
    </contour>
  </outline>
</glyph>
<glyph name="upsilon" format="2">
	<unicode hex="03C5"/>
	<advance width="568"/>
	<outline>
		<contour>
			<point x="284" y="-11" type="qcurve"/>
			<point x="226" y="-11"/>
			<point x="148" y="24"/>
			<point x="100" y="85"/>
			<point x="80" y="170"/>
			<point x="80" y="220" type="qcurve"/>
			<point x="80" y="517" type="line"/>
			<point x="145" y="517" type="line"/>
			<point x="145" y="226" type="line"/>
			<point x="145" y="177"/>
			<point x="164" y="110"/>
			<point x="199" y="68"/>
			<point x="251" y="49"/>
			<point x="284" y="49" type="qcurve"/>
			<point x="317" y="49"/>
			<point x="369" y="68"/>
			<point x="404" y="110"/>
			<point x="423" y="177"/>
			<point x="423" y="226" type="qcurve"/>
			<point x="423" y="517" type="line"/>
			<point x="488" y="517" type="line"/>
			<point x="488" y="220" type="line"/>
			<point x="488" y="170"/>
			<point x="468" y="85"/>
			<point x="420" y="24"/>
			<point x="342" y="-11"/>
		</contour>
	</outline>
</glyph>
<glyph name="phi" format="2">
	<unicode hex="03C6"/>
	<advance width="758"/>
	<outline>
		<contour>
			<point x="379" y="529" type="qcurve"/>
			<point x="451" y="529"/>
			<point x="570" y="492"/>
			<point x="656" y="423"/>
			<point x="704" y="323"/>
			<point x="704" y="260" type="qcurve"/>
			<point x="704" y="197"/>
			<point x="661" y="100"/>
			<point x="583" y="32"/>
			<point x="475" y="-6"/>
			<point x="411" y="-8" type="qcurve"/>
			<point x="411" y="-185" type="line"/>
			<point x="347" y="-185" type="line"/>
			<point x="347" y="-8" type="line"/>
			<point x="282" y="-6"/>
			<point x="175" y="32"/>
			<point x="97" y="100"/>
			<point x="54" y="197"/>
			<point x="54" y="260" type="qcurve"/>
			<point x="54" y="323"/>
			<point x="102" y="423"/>
			<point x="187" y="492"/>
			<point x="307" y="529"/>
		</contour>
		<contour>
			<point x="637" y="260" type="qcurve"/>
			<point x="637" y="303"/>
			<point x="608" y="379"/>
			<point x="551" y="436"/>
			<point x="467" y="471"/>
			<point x="411" y="474" type="qcurve"/>
			<point x="411" y="47" type="line"/>
			<point x="528" y="55"/>
			<point x="637" y="170"/>
		</contour>
		<contour>
			<point x="121" y="260" type="qcurve"/>
			<point x="121" y="170"/>
			<point x="230" y="55"/>
			<point x="347" y="47" type="qcurve"/>
			<point x="347" y="474" type="line"/>
			<point x="291" y="471"/>
			<point x="207" y="436"/>
			<point x="150" y="379"/>
			<point x="121" y="303"/>
		</contour>
	</outline>
	<guideline x="390"/>
	<guideline y="260"/>
</glyph>
<glyph name="chi" format="2">
  <advance width="489"/>
  <unicode hex="03C7"/>
  <outline>
    <contour>
      <point x="16" y="-185" type="curve"/>
      <point x="85" y="-185" type="line"/>
      <point x="109" y="-116"/>
      <point x="169" y="15"/>
      <point x="244" y="143" type="curve"/>
      <point x="316" y="20"/>
      <point x="376" y="-114"/>
      <point x="402" y="-185" type="curve"/>
      <point x="473" y="-185" type="line"/>
      <point x="427" y="-67"/>
      <point x="353" y="75"/>
      <point x="281" y="195" type="curve"/>
      <point x="454" y="517" type="line"/>
      <point x="381" y="517" type="line"/>
      <point x="243" y="247" type="line"/>
      <point x="106" y="517" type="line"/>
      <point x="29" y="517" type="line"/>
      <point x="205" y="191" type="line"/>
      <point x="126" y="57"/>
      <point x="64" y="-66"/>
    </contour>
  </outline>
</glyph>
<glyph name="psi" format="2">
  <advance width="760"/>
  <unicode hex="03C8"/>
  <outline>
    <contour>
      <point x="412" y="-185" type="line"/>
      <point x="412" y="-9" type="line"/>
      <point x="596" y="-9"/>
      <point x="680" y="91"/>
      <point x="680" y="255" type="curve" smooth="yes"/>
      <point x="680" y="517" type="line"/>
      <point x="615" y="517" type="line"/>
      <point x="615" y="271" type="line" smooth="yes"/>
      <point x="615" y="108"/>
      <point x="538" y="51"/>
      <point x="412" y="51" type="curve"/>
      <point x="412" y="517" type="line"/>
      <point x="348" y="517" type="line"/>
      <point x="348" y="51" type="line"/>
      <point x="222" y="51"/>
      <point x="145" y="108"/>
      <point x="145" y="271" type="curve" smooth="yes"/>
      <point x="145" y="517" type="line"/>
      <point x="80" y="517" type="line"/>
      <point x="80" y="255" type="line" smooth="yes"/>
      <point x="80" y="91"/>
      <point x="164" y="-9"/>
      <point x="348" y="-9" type="curve"/>
      <point x="348" y="-185" type="line"/>
    </contour>
  </outline>
</glyph>
<glyph name="afii10058" format="2">
  <advance width="1019"/>
  <unicode hex="0409"/>
  <outline>
    <contour>
      <point x="21" y="-8" type="line"/>
      <point x="151" y="-2"/>
      <point x="219" y="93"/>
      <point x="253" y="207" type="curve" smooth="yes"/>
      <point x="290" y="330"/>
      <point x="296" y="468"/>
      <point x="296" y="634" type="curve"/>
      <point x="522" y="634" type="line"/>
      <point x="522" y="13" type="line"/>
      <point x="570" y="0"/>
      <point x="641" y="-6"/>
      <point x="693" y="-6" type="curve" smooth="yes"/>
      <point x="892" y="-6"/>
      <point x="983" y="75"/>
      <point x="983" y="215" type="curve" smooth="yes"/>
      <point x="983" y="354"/>
      <point x="885" y="420"/>
      <point x="691" y="420" type="curve" smooth="yes"/>
      <point x="662" y="420"/>
      <point x="612" y="420"/>
      <point x="590" y="420" type="curve"/>
      <point x="590" y="693" type="line"/>
      <point x="229" y="693" type="line"/>
      <point x="229" y="463"/>
      <point x="221" y="326"/>
      <point x="186" y="219" type="curve" smooth="yes"/>
      <point x="152" y="115"/>
      <point x="106" y="61"/>
      <point x="14" y="50" type="curve"/>
    </contour>
    <contour>
      <point x="696" y="53" type="curve" smooth="yes"/>
      <point x="650" y="53"/>
      <point x="615" y="57"/>
      <point x="590" y="60" type="curve"/>
      <point x="590" y="361" type="line"/>
      <point x="613" y="361"/>
      <point x="651" y="361"/>
      <point x="695" y="361" type="curve" smooth="yes"/>
      <point x="817" y="361"/>
      <point x="912" y="335"/>
      <point x="912" y="215" type="curve" smooth="yes"/>
      <point x="912" y="85"/>
      <point x="812" y="53"/>
    </contour>
  </outline>
</glyph>
<glyph name="afii10145" format="2">
	<unicode hex="040F"/>
	<advance width="685"/>
	<outline>
		<contour>
			<point x="375" y="0" type="line"/>
			<point x="375" y="-185" type="line"/>
			<point x="310" y="-185" type="line"/>
			<point x="310" y="0" type="line"/>
			<point x="90" y="0" type="line"/>
			<point x="90" y="693" type="line"/>
			<point x="158" y="693" type="line"/>
			<point x="158" y="59" type="line"/>
			<point x="527" y="59" type="line"/>
			<point x="527" y="693" type="line"/>
			<point x="595" y="693" type="line"/>
			<point x="595" y="0" type="line"/>
		</contour>
	</outline>
	<guideline x="428"/>
</glyph>
<glyph name="afii10021" format="2">
  <advance width="681"/>
  <unicode hex="0414"/>
  <outline>
    <contour>
      <point x="583" y="0" type="line"/>
      <point x="583" y="-185" type="line"/>
      <point x="648" y="-185" type="line"/>
      <point x="648" y="59" type="line"/>
      <point x="583" y="59" type="line"/>
      <point x="583" y="693" type="line"/>
      <point x="223" y="693" type="line"/>
      <point x="223" y="671" type="line"/>
      <point x="223" y="443"/>
      <point x="216" y="196"/>
      <point x="80" y="59" type="curve"/>
      <point x="18" y="59" type="line"/>
      <point x="18" y="-185" type="line"/>
      <point x="83" y="-185" type="line"/>
      <point x="83" y="0" type="line"/>
    </contour>
    <contour>
      <point x="515" y="634" type="line"/>
      <point x="515" y="59" type="line"/>
      <point x="163" y="59" type="line"/>
      <point x="280" y="203"/>
      <point x="290" y="439"/>
      <point x="290" y="626" type="curve" smooth="yes"/>
      <point x="290" y="634" type="line"/>
    </contour>
  </outline>
</glyph>
